<svg width="1" height="6" viewBox="0 0 1 6" fill="none" xmlns="http://www.w3.org/2000/svg">
<path d="M0.157061 5.71305C0.223427 5.73089 0.29198 5.74172 0.361255 5.7453C0.446627 5.75146 0.532422 5.75146 0.617793 5.7453C0.735302 5.72723 0.854576 5.71952 0.973824 5.72226C0.937175 4.68562 0.874338 2.49715 0.816747 0.0138213L0.848159 0.041464L0.0314121 0.0691137L0.0628242 0.041464C0.0994732 1.6402 0.130894 3.06385 0.151836 4.08667C0.151836 4.59347 0.151836 5.00813 0.151836 5.29379V5.75452C0.152961 5.74533 0.152961 5.73606 0.151836 5.72687V5.64394C0.151836 5.57022 0.151836 5.45965 0.151836 5.32143C0.151836 5.03578 0.151832 4.62573 0.115183 4.11892C0.0837697 3.0915 0.0418845 1.66784 0 0.0598971V0.0322545H0.0314121L0.842934 0H0.879571V0.0460758C0.942398 2.55245 0.984288 4.72248 0.999995 5.75912C0.883226 5.75153 0.765974 5.75153 0.649205 5.75912C0.563845 5.76551 0.478028 5.76551 0.392667 5.75912C0.340946 5.75551 0.289937 5.74622 0.240832 5.73148L0.157061 5.71305Z" fill="#263238"/>
</svg>
