<svg width="16" height="7" viewBox="0 0 16 7" fill="none" xmlns="http://www.w3.org/2000/svg">
<path d="M15.878 6.68276C15.878 6.68276 15.878 6.63981 15.878 6.55821C15.878 6.47661 15.878 6.35207 15.878 6.21034C15.878 5.89254 15.878 5.45018 15.8536 4.89187C15.8536 3.74519 15.8243 2.1132 15.8048 0.111872L15.8975 0.193472L0.119372 0.223538L0.246265 0.111872V3.49179C0.246265 4.59124 0.246265 5.63914 0.246265 6.67417L0.124257 6.5711L11.4222 6.61833L14.7067 6.6484H15.59H15.9024C15.8081 6.65443 15.7136 6.65443 15.6193 6.6484H14.7604L11.5052 6.67846L0.124257 6.73H0.00224858V6.62263C0.00224858 5.60479 0.00224858 4.5397 0.00224858 3.44026V0.141938C-0.0270334 0.141938 0.241375 -0.0727991 0.129127 0.0259789L15.9073 0.0560449H16V0.141938C16 2.16474 15.9658 3.8139 15.9512 4.97347C15.9512 5.52319 15.9512 5.95696 15.9268 6.26188V6.59257C15.8877 6.6484 15.8829 6.68706 15.878 6.68276Z" fill="#263238"/>
</svg>
