<svg width="12" height="4" viewBox="0 0 12 4" fill="none" xmlns="http://www.w3.org/2000/svg">
<path d="M11.6467 1.28155C11.4552 1.02445 11.2035 0.806322 10.9085 0.641775C10.6134 0.477227 10.2818 0.370061 9.93585 0.327453C9.2524 0.255698 8.56012 0.363832 7.94648 0.638192C7.44914 0.839516 6.9518 1.11524 6.45446 1.02333C6.08925 0.919581 5.75113 0.752959 5.45977 0.533154C5.0761 0.302728 4.6439 0.142198 4.18864 0.0610203C3.73339 -0.0201573 3.26427 -0.0203418 2.80893 0.0604794C1.86984 0.253186 1.04873 0.75211 0.511214 1.45662C0.28876 1.71659 0.133467 2.01615 0.0561571 2.33439C-0.0211527 2.65263 -0.018613 2.98189 0.0636093 3.29917L11.8108 3.25978C11.9593 2.94136 12.0218 2.59695 11.9934 2.25367C11.9649 1.91039 11.8462 1.57761 11.6467 1.28155Z" fill="white"/>
</svg>
