<svg width="33" height="46" viewBox="0 0 33 46" fill="none" xmlns="http://www.w3.org/2000/svg">
<path d="M5.51875 0.482016C11.7204 -0.235804 20.5757 -0.166336 26.514 0.78767C27.9977 1.03838 29.3593 1.71746 30.4063 2.72887C31.4532 3.74028 32.1324 5.03283 32.3479 6.42372C33.5952 14.7829 32.5218 29.3893 31.7268 44.0931C18.1606 48.4185 3.84908 44.0329 3.84908 44.0329C3.35216 41.069 4.46527 31.3483 5.21066 26.1615C4.09257 20.8033 1.73217 14.6671 0.151937 7.54908C-0.0398768 6.75282 -0.0501895 5.92789 0.12166 5.12768C0.293509 4.32747 0.643699 3.56979 1.14957 2.90366C1.65544 2.23752 2.30572 1.67778 3.05835 1.26063C3.81098 0.843484 4.64918 0.578225 5.51875 0.482016Z" fill="#263238"/>
</svg>
