<svg width="10" height="2" viewBox="0 0 10 2" fill="none" xmlns="http://www.w3.org/2000/svg">
<path d="M9.20294 1.81484C9.2145 1.67789 9.2145 1.54038 9.20294 1.40343C9.1869 1.21438 9.1242 1.03068 9.01924 0.865132C8.91427 0.699581 8.76956 0.556157 8.59517 0.444852C8.35243 0.296883 8.05575 0.233812 7.76301 0.267947C7.42771 0.327769 7.10965 0.446728 6.828 0.617645C6.51051 0.81407 6.16255 0.969251 5.79481 1.07842C5.37959 1.16195 4.94477 1.12441 4.55592 0.971455C3.76116 0.695813 3.12067 0.226809 2.40539 0.103388C2.09252 0.0468768 1.76842 0.061825 1.46398 0.146806C1.15954 0.231788 0.884906 0.38397 0.666259 0.588847C0.3699 0.869107 0.164809 1.21444 0.0725306 1.58856C0.00707961 1.85186 0.0164326 1.99997 0.00240739 1.99997C-0.00534234 1.86218 0.00563317 1.72406 0.035122 1.58856C0.114005 1.20235 0.316774 0.844047 0.619506 0.555934C0.84305 0.338686 1.12693 0.176299 1.44329 0.0847024C1.75965 -0.00689458 2.09763 -0.0245577 2.42409 0.0334461C3.16743 0.160982 3.8266 0.634099 4.59332 0.901513C4.96368 1.04489 5.37628 1.08091 5.77144 1.00436C6.13019 0.898945 6.47017 0.749357 6.78126 0.560049C7.07307 0.385316 7.40238 0.264915 7.74899 0.206239C8.06148 0.168696 8.37832 0.239505 8.63258 0.403712C8.81259 0.521456 8.96054 0.673007 9.06566 0.847357C9.17079 1.02171 9.23045 1.21448 9.24034 1.41166C9.25634 1.54693 9.24366 1.68364 9.20294 1.81484Z" fill="#263238"/>
</svg>
