<svg width="5" height="4" viewBox="0 0 5 4" fill="none" xmlns="http://www.w3.org/2000/svg">
<path d="M2.74211 2.14285C2.46384 1.86419 2.21479 1.56395 1.99797 1.24581C1.7839 0.918758 1.67468 0.546716 1.68197 0.169346C1.68094 0.141327 1.68626 0.113411 1.69763 0.0872257C1.70901 0.0610408 1.7262 0.0371147 1.74822 0.0168497C1.77715 0.005736 1.8084 0 1.83997 0C1.87155 0 1.90277 0.005736 1.93171 0.0168497C2.72815 0.174861 3.44839 0.54834 3.99136 1.08488C4.53433 1.62141 4.87279 2.29408 4.95924 3.0085L5.00001 3.19688C4.32674 3.54452 3.52657 3.64902 2.76759 3.48842C2.15451 3.3907 1.56922 3.18802 1.04486 2.89188C0.51977 2.58833 0.146062 2.11992 0 1.5822C0.475884 1.49427 0.967857 1.49889 1.4415 1.59573C1.91514 1.69258 2.35902 1.8793 2.74211 2.14285Z" fill="#455A64"/>
</svg>
