<svg width="4" height="5" viewBox="0 0 4 5" fill="none" xmlns="http://www.w3.org/2000/svg">
<path d="M3.14863 4.01968C2.85925 4.24632 2.49238 4.38175 2.10587 4.40464V4.99999H1.50056V4.42254C1.21172 4.40919 0.926134 4.36253 0.651092 4.28378C0.416771 4.22236 0.196433 4.12541 0 3.9973L0.33063 3.34824C0.494774 3.45294 0.674482 3.53728 0.864723 3.59891C1.06956 3.6649 1.28331 3.70703 1.50056 3.72425V2.82899C1.25319 2.78177 1.01138 2.71433 0.778259 2.62756C0.579819 2.55859 0.404718 2.4461 0.269593 2.3008C0.131788 2.13673 0.0617907 1.93616 0.0712052 1.73231C0.0692946 1.59076 0.100875 1.45041 0.163926 1.32018C0.226976 1.18994 0.320119 1.07267 0.437446 0.975822C0.728886 0.746452 1.10005 0.610754 1.49039 0.590863V0H2.0957V0.577435C2.52673 0.597591 2.94572 0.709738 3.3165 0.9042L3.01639 1.55774C2.73436 1.41066 2.42097 1.31619 2.0957 1.28021V2.17546C2.33921 2.22052 2.57757 2.28494 2.80783 2.36794C3.00561 2.43583 3.18061 2.54671 3.3165 2.69023C3.4543 2.8543 3.52429 3.05487 3.51487 3.25872C3.51845 3.40114 3.48767 3.5426 3.42454 3.67378C3.36141 3.80495 3.26736 3.92285 3.14863 4.01968ZM1.16993 1.91584C1.26789 1.98292 1.3804 2.03166 1.50056 2.05908V1.30707C1.37352 1.32735 1.25547 1.37852 1.15976 1.45479C1.09108 1.52078 1.05296 1.60701 1.05293 1.6965C1.05231 1.73847 1.06253 1.78001 1.08279 1.818C1.10306 1.85599 1.13285 1.88944 1.16993 1.91584ZM2.42633 3.56758C2.46245 3.53878 2.49113 3.5035 2.51044 3.46412C2.52974 3.42474 2.53922 3.38217 2.53824 3.33929C2.53984 3.29764 2.5306 3.25622 2.5112 3.2182C2.4918 3.18018 2.46277 3.14658 2.42633 3.11996C2.3304 3.05427 2.22186 3.00423 2.10587 2.97224V3.70635C2.22489 3.68619 2.33557 3.63826 2.42633 3.56758Z" fill="#E0E0E0"/>
</svg>
