<svg width="6" height="1" viewBox="0 0 6 1" fill="none" xmlns="http://www.w3.org/2000/svg">
<path d="M5.79259 0.0840742H5.34508H4.12321L0.0352018 0.0354L0.0703882 0.0132742C0.0703882 0.172571 0.0352024 0.340719 0.0201175 0.51329L0.0754214 0.566387C0.0867516 0.585246 0.104277 0.600668 0.125707 0.610638C0.267175 0.679407 0.419799 0.728656 0.578251 0.756661C0.734128 0.79206 0.895035 0.81861 1.05091 0.840735C1.36267 0.880559 1.67442 0.907107 1.97612 0.929232C2.53302 0.969342 3.09191 0.984107 3.65055 0.973476C4.10765 0.969094 4.5635 0.93061 5.01321 0.858432C5.18417 0.828472 5.35227 0.787053 5.51604 0.734535C5.65285 0.698973 5.782 0.643647 5.8982 0.570816L5.81271 0.216822V0.128326C5.81152 0.11655 5.81152 0.104702 5.81271 0.0929259C5.81404 0.103218 5.81404 0.113605 5.81271 0.123897L5.83784 0.212393C5.86299 0.296466 5.89316 0.411515 5.93842 0.566387C5.81949 0.641168 5.68915 0.700761 5.55124 0.743387C5.38692 0.79556 5.21896 0.838418 5.04841 0.871706C4.59748 0.948567 4.13993 0.9915 3.68072 1.00003C3.17789 1.00003 2.59963 1.00003 1.99623 0.960202C1.69454 0.938078 1.38278 0.91153 1.066 0.871706C0.910119 0.871706 0.749223 0.823031 0.588317 0.787632C0.422423 0.758409 0.262871 0.706135 0.115656 0.632764C0.0903865 0.618701 0.0682338 0.600704 0.050286 0.579661L0 0.526564L0.050286 0.0265483V0H0.0804546L4.18355 0.0663775L5.39537 0.0929259H5.7222H5.83283L5.79259 0.0840742Z" fill="#263238"/>
</svg>
