<svg width="4" height="4" viewBox="0 0 4 4" fill="none" xmlns="http://www.w3.org/2000/svg">
<path d="M2.87891 3.97082L2.00816 2.86454H1.0449V3.97082H0V0.000647934H1.95375C2.31193 -0.00691581 2.66791 0.051815 2.99864 0.173049C3.28 0.277682 3.5186 0.455066 3.68285 0.681701C3.84709 0.908337 3.92923 1.17354 3.91837 1.44217C3.92968 1.71032 3.84626 1.97495 3.67961 2.19965C3.51295 2.42435 3.27124 2.59809 2.98776 2.69692L4 3.9756L2.87891 3.97082ZM2.61225 0.924942C2.40618 0.79264 2.15386 0.728227 1.89933 0.742954H1.0449V2.13181H1.89933C2.15386 2.14653 2.40618 2.08212 2.61225 1.94982C2.69443 1.88625 2.75917 1.8071 2.80158 1.71834C2.844 1.62959 2.86298 1.53353 2.85714 1.43738C2.8638 1.34115 2.84518 1.24486 2.80271 1.15599C2.76024 1.06712 2.69507 0.988055 2.61225 0.924942Z" fill="white"/>
</svg>
