<svg width="4" height="2" viewBox="0 0 4 2" fill="none" xmlns="http://www.w3.org/2000/svg">
<path d="M3.02527 1.39939C3.31132 1.41102 3.59791 1.39767 3.88129 1.3595C3.91934 1.35259 3.95291 1.33194 3.97468 1.30204C3.99645 1.27215 4.00464 1.23545 3.99746 1.19994C3.9874 1.16279 3.96333 1.13026 3.92965 1.10829C3.89597 1.08632 3.85494 1.07637 3.81404 1.08028C3.17535 1.16877 2.52346 1.12144 1.90719 0.941835C1.29091 0.76223 0.726219 0.455006 0.255416 0.0431709C0.241692 0.029543 0.225118 0.0186808 0.206714 0.0112557C0.18831 0.00383068 0.168475 0 0.148421 0C0.128366 0 0.108512 0.00383068 0.0901085 0.0112557C0.0717046 0.0186808 0.0551302 0.029543 0.0414062 0.0431709C0.0147673 0.0704498 0 0.106005 0 0.14289C0 0.179775 0.0147673 0.215335 0.0414062 0.242614C0.850272 0.956007 1.91213 1.36766 3.02527 1.39939Z" fill="#263238"/>
</svg>
