<svg width="9" height="2" viewBox="0 0 9 2" fill="none" xmlns="http://www.w3.org/2000/svg">
<path d="M8.99749 1.25643C9.00807 1.13197 8.98473 1.00708 8.92939 0.892155C8.86027 0.762426 8.75139 0.652239 8.61499 0.573988C8.42513 0.48154 8.20388 0.45209 7.99145 0.490988C7.4989 0.555544 7.06399 0.952099 6.41948 1.14115C5.70995 1.29031 4.96272 1.20154 4.32353 0.892155C3.70109 0.594982 3.04852 0.349534 2.3743 0.158993C2.10217 0.0865224 1.81561 0.0658992 1.53372 0.0984975C1.25183 0.131096 0.981068 0.216166 0.739456 0.348046C0.422491 0.543022 0.191259 0.827899 0.0844712 1.15499C0.0519937 1.27621 0.0309651 1.3996 0.0215952 1.52388C-0.00719841 1.39911 -0.00719841 1.27053 0.0215952 1.14577C0.116461 0.801437 0.348951 0.49864 0.67658 0.292711C0.925311 0.149506 1.20662 0.0559042 1.5008 0.0184669C1.79497 -0.0189704 2.0949 0.000665222 2.37954 0.075993C3.06088 0.259634 3.71925 0.503736 4.34449 0.804543C4.96056 1.10442 5.68035 1.19468 6.36708 1.05815C6.96967 0.878322 7.41506 0.481767 7.93904 0.426433C8.16748 0.386357 8.40469 0.422519 8.6045 0.527878C8.74915 0.61447 8.86204 0.736237 8.92939 0.878322C8.97199 0.967037 8.98822 1.06384 8.97655 1.1596C8.98905 1.19076 8.9961 1.22341 8.99749 1.25643Z" fill="#263238"/>
</svg>
