<svg width="3" height="3" viewBox="0 0 3 3" fill="none" xmlns="http://www.w3.org/2000/svg">
<path d="M2.97849 1.25261C3.01699 1.08418 3.00371 0.909774 2.94004 0.747369C2.87637 0.584965 2.76461 0.440449 2.61629 0.328742C2.32201 0.112706 1.94965 -0.00361544 1.56644 0.00077287C1.22458 -0.00875124 0.887013 0.0699239 0.595329 0.227116C0.429519 0.313409 0.289465 0.433227 0.186753 0.576639C0.0840417 0.720052 0.0216238 0.882933 0.00469232 1.0518C-0.0122392 1.22066 0.0167996 1.39064 0.089387 1.54767C0.161974 1.70469 0.276034 1.84424 0.422111 1.95475C0.744239 2.20563 1.16268 2.33939 1.59268 2.32892C1.95357 2.33894 2.30503 2.22648 2.5743 2.0148C2.70146 1.91872 2.80481 1.80066 2.87795 1.66795C2.9511 1.53525 2.99247 1.39073 2.99949 1.24337" fill="#F45570"/>
</svg>
