<svg width="15" height="21" viewBox="0 0 15 21" fill="none" xmlns="http://www.w3.org/2000/svg">
<path d="M12.4492 11.0209C12.4414 9.51562 13.0898 8.37949 14.4023 7.54277C13.668 6.43945 12.5586 5.83242 11.0938 5.71348C9.70703 5.59863 8.19141 6.5625 7.63672 6.5625C7.05078 6.5625 5.70703 5.75449 4.65234 5.75449C2.47266 5.79141 0.15625 7.57969 0.15625 11.2178C0.15625 12.2924 0.34375 13.4025 0.71875 14.5482C1.21875 16.0535 3.02344 19.7449 4.90625 19.6834C5.89062 19.6588 6.58594 18.9492 7.86719 18.9492C9.10938 18.9492 9.75391 19.6834 10.8516 19.6834C12.75 19.6547 14.3828 16.2996 14.8594 14.7902C12.3125 13.5311 12.4492 11.0988 12.4492 11.0209ZM10.2383 4.28613C11.3047 2.95723 11.207 1.74727 11.1758 1.3125C10.2344 1.36992 9.14453 1.98516 8.52344 2.74395C7.83984 3.55605 7.4375 4.56094 7.52344 5.69297C8.54297 5.775 9.47266 5.22539 10.2383 4.28613Z" fill="black"/>
</svg>
