<svg width="1" height="1" viewBox="0 0 1 1" fill="none" xmlns="http://www.w3.org/2000/svg">
<path d="M0.999928 0.439879C0.999908 0.352491 0.970304 0.267089 0.914912 0.194559C0.85952 0.122028 0.780855 0.0656542 0.688915 0.0326283C0.596974 -0.000397585 0.49593 -0.00858035 0.398683 0.00912139C0.301436 0.0268231 0.212379 0.0696093 0.142872 0.132023C0.0733659 0.194437 0.0265687 0.27365 0.00842156 0.359567C-0.00972558 0.445484 0.00160252 0.534213 0.0409815 0.614437C0.0803605 0.694661 0.146013 0.762746 0.229536 0.810015C0.31306 0.857285 0.410687 0.881596 0.509973 0.879848C0.575166 0.87986 0.639702 0.868423 0.699809 0.846207C0.759915 0.823991 0.814384 0.791442 0.860015 0.750467C0.905645 0.709493 0.94151 0.660918 0.965537 0.607586C0.989564 0.554255 1.00126 0.497237 0.999928 0.439879Z" fill="#263238"/>
</svg>
