<svg width="512" height="512" viewBox="0 0 512 512" fill="none" xmlns="http://www.w3.org/2000/svg">
<path d="M267.2 25.08L197.2 95.24C189.5 102.9 189.9 112.1 194.8 122.2L196.8 126.5L193.7 129.4L170.1 151.7L191.8 173.3L214 149.6L216.9 146.6L221.1 148.5C231.8 153.8 241.7 154.2 248.8 147.1L319 76.85L308.8 66.67L263.1 112.3L253.5 102.5L299 56.97L288.1 45.94L242.6 91.64L232.9 81.94L278.4 36.25L267.2 25.08ZM28.9701 27.84C23.2401 36.96 22.3601 48.67 25.6501 62.42C29.5201 78.74 39.3301 97.64 53.0601 115.5C80.4101 151.3 103.1 163.6 139.9 170.3L142.3 170.7C155.9 186.8 169.5 202.8 183.1 218.9H220.2L28.9701 27.84ZM137 183.2L99.2601 218.9H148.9L158.6 208.6L137 183.2ZM26.2501 232.9V296.4L42.7601 246.9H279.8L296.3 296.4V232.9H26.2501ZM55.7401 264.9L45.7401 294.9H90.7801L100.8 264.9H55.7401ZM119.7 264.9L109.7 294.9H152.3V264.9H119.7ZM170.3 264.9V294.9H212.9L202.9 264.9H170.3ZM221.7 264.9L231.7 294.9H276.8L266.8 264.9H221.7ZM314.3 266.7V454.9H393.3C397.5 436.7 413.9 422.9 433.3 422.9C452.7 422.9 469.1 436.7 473.3 454.9H488.3V390.9L432.1 376.9H328.3V294.9H390L383.1 279.9L314.3 266.7ZM26.2501 312.9V427.1L68.4201 454.9H83.2701C87.4101 436.7 103.8 422.9 123.3 422.9C142.7 422.9 159.1 436.7 163.3 454.9H296.3V312.9H282.3V392.9H40.2501V312.9H26.2501ZM346.3 312.9V358.9H418.7L395.7 312.9H346.3ZM65.2501 331.9L81.2501 347.9H97.2501L113.3 331.9H65.2501ZM57.2501 358.9V376.9H265.3V358.9H57.2501ZM123.3 440.9C110.4 440.9 100.2 451.1 100.2 463.9C100.2 476.7 110.4 486.9 123.3 486.9C136.1 486.9 146.3 476.7 146.3 463.9C146.3 451.1 136.1 440.9 123.3 440.9ZM433.3 440.9C420.5 440.9 410.3 451.1 410.3 463.9C410.3 476.7 420.5 486.9 433.3 486.9C446.1 486.9 456.3 476.7 456.3 463.9C456.3 451.1 446.1 440.9 433.3 440.9Z" fill="black"/>
</svg>
