<svg width="4" height="4" viewBox="0 0 4 4" fill="none" xmlns="http://www.w3.org/2000/svg">
<path d="M3.54797 0V3.95309H2.64953V3.62516C2.52271 3.75146 2.36488 3.85068 2.18798 3.91529C2.01108 3.97989 1.81977 4.00818 1.62859 3.99801C1.33787 4.00044 1.05135 3.93701 0.796536 3.81383C0.551263 3.69316 0.349573 3.51412 0.214592 3.29723C0.0735843 3.05698 0 2.7905 0 2.52009C0 2.24968 0.0735843 1.98321 0.214592 1.74295C0.349573 1.52606 0.551263 1.34703 0.796536 1.22636C1.05174 1.10455 1.3383 1.04266 1.62859 1.04667C1.81013 1.03672 1.99191 1.06262 2.16061 1.12246C2.3293 1.18231 2.48065 1.2746 2.60359 1.39256V0H3.54797ZM2.3892 3.09958C2.54467 2.93748 2.62995 2.73221 2.62995 2.52009C2.62995 2.30798 2.54467 2.1027 2.3892 1.94061C2.2298 1.80288 2.01533 1.72572 1.79195 1.72572C1.56856 1.72572 1.3541 1.80288 1.1947 1.94061C1.03923 2.1027 0.95394 2.30798 0.95394 2.52009C0.95394 2.73221 1.03923 2.93748 1.1947 3.09958C1.3541 3.2373 1.56856 3.31447 1.79195 3.31447C2.01533 3.31447 2.2298 3.2373 2.3892 3.09958Z" fill="#263238"/>
</svg>
