<svg width="10" height="2" viewBox="0 0 10 2" fill="none" xmlns="http://www.w3.org/2000/svg">
<path d="M9.76609 0.090552H9.03176H7.0112L0.243226 0.00823371H0.271288L0.0233948 0.749111V0.720296L0.322731 0.942562C0.438211 1.00399 0.560438 1.05501 0.687556 1.09485L0.879325 1.15247L1.07578 1.20598C1.33302 1.26772 1.59494 1.31711 1.85687 1.35827C2.3644 1.43716 2.8766 1.49075 3.391 1.5188C4.32485 1.57829 5.26166 1.59341 6.19735 1.56407C6.95693 1.54803 7.71388 1.47922 8.46114 1.35827C8.7571 1.31036 9.04926 1.24575 9.33579 1.16482C9.56379 1.10565 9.78109 1.01834 9.98124 0.905514L9.84093 0.325166L9.80352 0.17287V0.119367C9.80528 0.135794 9.80528 0.152329 9.80352 0.168757L9.84093 0.321046C9.87835 0.452757 9.93447 0.650325 9.99996 0.9014C9.79863 1.01707 9.57977 1.10713 9.34983 1.16894C9.06357 1.25282 8.77139 1.32019 8.47517 1.37062C7.72659 1.49439 6.96809 1.56596 6.20671 1.58465C5.27119 1.61667 4.33438 1.6043 3.40037 1.54761C2.88444 1.51933 2.3707 1.46574 1.86155 1.38709C1.59523 1.34674 1.33141 1.29453 1.07109 1.23068C1.00561 1.23068 0.940124 1.19775 0.874643 1.18129C0.809161 1.16483 0.743692 1.14424 0.682888 1.11955C0.549929 1.08098 0.422729 1.02846 0.304032 0.963137L0 0.740877C0.0888677 0.485686 0.173062 0.234611 0.252575 0L7.03458 0.102899L9.04579 0.135828H9.58835H9.77077L9.76609 0.090552Z" fill="#263238"/>
</svg>
