<svg width="3" height="3" viewBox="0 0 3 3" fill="none" xmlns="http://www.w3.org/2000/svg">
<path d="M2.99995 1.39181C3.00124 1.66854 2.91437 1.93941 2.75034 2.17009C2.58631 2.40078 2.3525 2.5809 2.07853 2.68764C1.80457 2.79438 1.50277 2.82294 1.21137 2.76969C0.919977 2.71644 0.652095 2.58379 0.441664 2.38854C0.231232 2.19328 0.0877123 1.94421 0.0293024 1.67288C-0.0291074 1.40155 0.000222938 1.12017 0.113558 0.864381C0.226892 0.608592 0.419134 0.389908 0.665944 0.236034C0.912754 0.0821591 1.20302 1.60263e-05 1.49996 1.33877e-05C1.69663 -0.000790505 1.89153 0.0346166 2.07348 0.104201C2.25542 0.173785 2.42085 0.276177 2.56022 0.405497C2.69959 0.534817 2.81018 0.688517 2.88565 0.857777C2.96111 1.02704 2.99995 1.20852 2.99995 1.39181Z" fill="#EB0029"/>
</svg>
