<svg width="4" height="5" viewBox="0 0 4 5" fill="none" xmlns="http://www.w3.org/2000/svg">
<path d="M3.15146 4.0188C2.8686 4.24113 2.51117 4.37638 2.13322 4.40411V4.99998H1.50191V4.42203C1.21287 4.40825 0.927076 4.36156 0.651674 4.28313C0.417143 4.22165 0.196609 4.12462 0 3.9964L0.330926 3.34676C0.496404 3.45246 0.678108 3.53693 0.870593 3.59765C1.07348 3.6656 1.28582 3.7093 1.50191 3.72758V2.83153C1.25451 2.78367 1.01253 2.7162 0.778954 2.62993C0.579891 2.5616 0.404443 2.44889 0.269834 2.30286C0.126181 2.14102 0.0538565 1.93895 0.0661882 1.73387C0.0642759 1.5922 0.0958846 1.45171 0.158992 1.32136C0.222099 1.191 0.315324 1.07364 0.432756 0.976708C0.724457 0.747133 1.09595 0.611306 1.48664 0.591398V0H2.0925V0.582442C2.5239 0.599065 2.94382 0.709925 3.31438 0.905022L3.02928 1.55914C2.747 1.41192 2.43333 1.31738 2.10777 1.28136V2.17742C2.3515 2.22251 2.59006 2.28699 2.82053 2.37006C3.01925 2.43677 3.19474 2.54796 3.32966 2.69264C3.46758 2.85686 3.53763 3.0576 3.5282 3.26163C3.52978 3.4041 3.49702 3.54525 3.43208 3.67576C3.36714 3.80628 3.2715 3.92319 3.15146 4.0188ZM1.17099 1.91308C1.26962 1.9794 1.38204 2.02809 1.50191 2.05644V1.30376C1.37584 1.32295 1.25898 1.37437 1.16589 1.45161C1.13004 1.48347 1.10169 1.52123 1.08247 1.56275C1.06325 1.60426 1.05354 1.64871 1.05388 1.69354C1.05621 1.73745 1.07035 1.78025 1.09514 1.81841C1.11992 1.85658 1.15463 1.88902 1.19644 1.91308H1.17099ZM2.4336 3.5663C2.46832 3.53673 2.49573 3.50117 2.51413 3.46185C2.53252 3.42254 2.54152 3.38031 2.54052 3.3378C2.54213 3.29611 2.53286 3.25466 2.51344 3.21661C2.49403 3.17855 2.46499 3.14492 2.42852 3.11827C2.33167 3.05366 2.22327 3.00369 2.10777 2.97042V3.70519C2.22838 3.68494 2.34077 3.63703 2.4336 3.5663Z" fill="#263238"/>
</svg>
