<svg width="2" height="2" viewBox="0 0 2 2" fill="none" xmlns="http://www.w3.org/2000/svg">
<path d="M1.76918 1.34545C1.73132 1.34564 1.69405 1.33674 1.66095 1.3196C1.62785 1.30246 1.60004 1.27766 1.5802 1.2476C1.44051 1.01891 1.24427 0.824587 1.00779 0.680784C0.771309 0.536981 0.501427 0.44785 0.220554 0.420801C0.190907 0.420166 0.161682 0.414096 0.134555 0.402933C0.107428 0.39177 0.082922 0.375733 0.0624466 0.355742C0.0419712 0.335752 0.0259223 0.312198 0.0152179 0.286425C0.00451359 0.260653 -0.00063499 0.233169 6.24693e-05 0.205541C0.00279103 0.149307 0.0290544 0.0963056 0.0732124 0.0578966C0.11737 0.0194875 0.175916 -0.00127605 0.236302 6.07709e-05C0.592005 0.0302964 0.934807 0.139312 1.23615 0.318021C1.53748 0.496731 1.78863 0.739963 1.96867 1.02745C1.99848 1.07517 2.00747 1.13173 1.99379 1.18546C1.98011 1.23918 1.94482 1.28595 1.89518 1.3161C1.85823 1.33944 1.81358 1.34984 1.76918 1.34545Z" fill="#263238"/>
</svg>
