<svg width="10" height="2" viewBox="0 0 10 2" fill="none" xmlns="http://www.w3.org/2000/svg">
<path d="M0.00165071 0.715214C-0.000550238 0.699486 -0.000550238 0.68358 0.00165071 0.667852C0.0223719 0.62472 0.0562435 0.587468 0.0995127 0.56021C0.269163 0.463267 0.45602 0.391956 0.652387 0.34923C1.36995 0.194851 2.102 0.0982934 2.83947 0.0607516C3.93052 -0.0063884 5.02509 -0.0178902 6.11765 0.0263055C6.73904 0.0564452 7.38489 0.0995021 8.07477 0.18131C8.40748 0.220061 8.74509 0.267423 9.08758 0.336314C9.25333 0.367656 9.41673 0.407917 9.57687 0.456872C9.66251 0.481446 9.74591 0.511674 9.82639 0.547294L9.88511 0.57743L9.94383 0.611876C9.96263 0.62552 9.97911 0.641471 9.99276 0.659239C10.0025 0.682888 10.0025 0.708785 9.99276 0.732434C9.98845 0.756363 9.97658 0.778747 9.9585 0.797023L9.90468 0.844386C9.86916 0.86978 9.83156 0.89281 9.79215 0.913278C9.71386 0.951008 9.63201 0.982695 9.54751 1.008C9.38788 1.06177 9.22444 1.10636 9.05823 1.14148C8.71573 1.21467 8.37813 1.26634 8.04542 1.3137C7.38 1.39551 6.73414 1.44718 6.11765 1.46871C5.53252 1.49466 4.94627 1.49466 4.36114 1.46871C3.81314 1.46871 3.2994 1.41703 2.83459 1.37828C2.09892 1.33402 1.36886 1.23463 0.652387 1.0812C0.454963 1.04126 0.267569 0.969749 0.0995127 0.870219C0.0550645 0.844073 0.0208801 0.806477 0.00165071 0.762577C-0.000297804 0.748276 -0.000297804 0.733819 0.00165071 0.719518C0.00165071 0.719518 0.00165071 0.71952 0.00165071 0.762577C0.0217625 0.803745 0.055977 0.838362 0.0995127 0.861606C0.269918 0.954382 0.456797 1.02134 0.652387 1.05967C1.36951 1.20777 2.09946 1.30282 2.83459 1.34384C3.2994 1.37829 3.81314 1.40412 4.35624 1.42134C4.93974 1.44727 5.52437 1.44727 6.10787 1.42134C6.72436 1.39551 7.37022 1.34815 8.03564 1.26204C8.36345 1.21898 8.70105 1.16301 9.03865 1.09412C9.20455 1.05802 9.36792 1.01345 9.52793 0.960641C9.61001 0.933483 9.69008 0.901846 9.76768 0.865915C9.80386 0.846873 9.83823 0.825269 9.87044 0.801326C9.90162 0.784049 9.92564 0.75838 9.93893 0.728131C9.93858 0.71268 9.93393 0.697543 9.9254 0.684034C9.91687 0.670525 9.90472 0.659058 9.89 0.650632C9.83622 0.620558 9.83623 0.620557 9.7824 0.590412C9.70459 0.55723 9.62451 0.528464 9.54261 0.504235C9.38214 0.457402 9.21878 0.418594 9.05333 0.387986C8.71573 0.319096 8.37813 0.271733 8.04542 0.232982C7.38489 0.151175 6.73904 0.103812 6.12255 0.077978C5.03025 0.0300921 3.93573 0.0372813 2.84437 0.0995076C2.10907 0.130987 1.37862 0.221782 0.662182 0.37076C0.468452 0.410002 0.283338 0.476911 0.114191 0.568823C0.0719247 0.594625 0.0367952 0.628471 0.0114309 0.667852C0.00653814 0.715214 0.00654351 0.715214 0.00165071 0.715214Z" fill="#263238"/>
</svg>
