<svg width="11" height="12" viewBox="0 0 11 12" fill="none" xmlns="http://www.w3.org/2000/svg">
<path d="M2.23502 0.192418C2.00674 0.0640973 1.74883 -0.00222182 1.48696 5.67971e-05C1.22509 0.00233542 0.968384 0.0731325 0.742365 0.205407C0.516346 0.337681 0.328896 0.526822 0.198656 0.754019C0.0684169 0.981217 -7.2637e-05 1.23855 5.78084e-08 1.50043V10.5005C0.000101911 10.7623 0.0687184 11.0195 0.199029 11.2466C0.32934 11.4736 0.516807 11.6626 0.742796 11.7948C0.968786 11.927 1.22543 11.9977 1.48721 11.9999C1.749 12.0021 2.00681 11.9358 2.23502 11.8075L10.2351 7.30749C10.4669 7.17695 10.6598 6.98711 10.7941 6.75743C10.9283 6.52776 10.9991 6.26651 10.9991 6.00048C10.9991 5.73444 10.9283 5.4732 10.7941 5.24352C10.6598 5.01384 10.4669 4.824 10.2351 4.69346L2.23502 0.193419V0.192418Z" fill="#010F1C"/>
</svg>
