<svg width="3" height="2" viewBox="0 0 3 2" fill="none" xmlns="http://www.w3.org/2000/svg">
<path d="M1.13636 2C0.911604 2 0.691911 1.94135 0.505036 1.83147C0.318162 1.72159 0.17251 1.56541 0.0865009 1.38268C0.000492149 1.19996 -0.0220114 0.998892 0.0218355 0.804911C0.0656824 0.61093 0.17391 0.432747 0.332834 0.292894C0.491758 0.153041 0.69423 0.0578005 0.914664 0.0192153C1.1351 -0.01937 1.36358 0.000433091 1.57123 0.0761208C1.77887 0.151809 1.95635 0.279981 2.08122 0.44443C2.20608 0.60888 2.27273 0.80222 2.27273 1C2.27273 1.26522 2.153 1.51957 1.93989 1.70711C1.72678 1.89465 1.43774 2 1.13636 2Z" fill="#455A64"/>
</svg>
