<svg width="4" height="5" viewBox="0 0 4 5" fill="none" xmlns="http://www.w3.org/2000/svg">
<path d="M3.15656 4.0188C2.86556 4.24655 2.49641 4.38218 2.10777 4.40411V4.99998H1.50701V4.42203C1.21792 4.40866 0.932058 4.36195 0.65677 4.28313C0.421125 4.22064 0.1991 4.12372 0 3.9964L0.336022 3.34676C0.500312 3.45154 0.680197 3.53596 0.870608 3.59765C1.07542 3.66512 1.28936 3.70881 1.50701 3.72758V2.83153C1.25796 2.78362 1.01429 2.71616 0.778955 2.62993C0.580663 2.56037 0.405543 2.44786 0.269834 2.30286C0.131906 2.13865 0.0618615 1.93791 0.0712844 1.73387C0.069372 1.5922 0.100965 1.45171 0.164072 1.32136C0.227179 1.191 0.32042 1.07364 0.437852 0.976708C0.729553 0.747133 1.10105 0.611306 1.49174 0.591398V0H2.0925V0.582442C2.52561 0.598515 2.94733 0.709387 3.31948 0.905022L3.0191 1.55914C2.73535 1.41123 2.41985 1.31665 2.0925 1.28136V2.17742C2.33805 2.2219 2.57838 2.2864 2.81036 2.37006C3.00758 2.43919 3.18243 2.54997 3.31948 2.69264C3.45741 2.85686 3.52745 3.0576 3.51803 3.26163C3.52154 3.4031 3.49117 3.54363 3.42889 3.67408C3.36661 3.80453 3.27382 3.92198 3.15656 4.0188ZM1.17607 1.91308C1.27412 1.98022 1.38675 2.029 1.50701 2.05644V1.30376C1.37986 1.32406 1.26169 1.37528 1.16589 1.45161C1.09715 1.51767 1.05902 1.60397 1.05898 1.69354C1.05717 1.7357 1.06686 1.77764 1.08723 1.81583C1.1076 1.85402 1.13806 1.88737 1.17607 1.91308ZM2.4336 3.5663C2.46975 3.53748 2.49846 3.50216 2.51778 3.46274C2.5371 3.42333 2.54659 3.38072 2.54561 3.3378C2.54613 3.29625 2.53639 3.2551 2.51705 3.2172C2.49771 3.17929 2.46923 3.14554 2.4336 3.11827C2.33485 3.05371 2.2248 3.00377 2.10777 2.97042V3.70519C2.23057 3.68678 2.34514 3.63869 2.43869 3.5663H2.4336Z" fill="#263238"/>
</svg>
