<svg width="209" height="178" viewBox="0 0 209 178" fill="none" xmlns="http://www.w3.org/2000/svg">
<path d="M22.799 58.339C22.7957 58.3063 22.7957 58.2733 22.799 58.2406V57.9698C22.799 57.7236 22.799 57.3749 22.799 56.9317C22.799 56.0209 22.799 54.708 22.7617 53.0586L22.8317 53.1202L0.149196 53.1571L0.261094 53.0586V58.339L0.149196 58.2365L16.3137 58.2816L21.0833 58.3103H22.3748H22.7104H22.8317H22.7244H22.4027H21.1346L16.3929 58.339L0.116559 58.4211H0V53.0873L0.116559 52.9848L22.799 53.0217H22.869V53.0873C22.869 54.7531 22.8363 56.0783 22.8317 56.9974C22.8317 57.4364 22.8317 57.7769 22.8317 58.0231V58.2816C22.8218 58.3012 22.8109 58.3204 22.799 58.339Z" fill="#E0E0E0"/>
<path d="M25.8715 53.0586C25.8715 53.0586 25.8715 53.0217 25.8715 52.956C25.8715 52.8904 25.8715 52.7878 25.8715 52.677C25.8715 52.4145 25.8715 52.0616 25.8715 51.6185C25.8715 50.6912 25.8715 49.3824 25.8296 47.7741L25.9088 47.8479L12.2807 47.8767C12.1781 47.9669 12.4205 47.7536 12.3972 47.7782V50.4861C12.3972 51.3723 12.3972 52.2257 12.3972 53.0463L12.2853 52.9519L22.0344 52.9971L24.8738 53.0258H25.6431H25.9135H25.6664L24.8878 53.0873L22.0903 53.1161L12.2667 53.1612H12.1595V53.0627C12.1595 52.2421 12.1595 51.3887 12.1595 50.5025C12.1595 50.0635 12.1595 49.6122 12.1595 49.1609V47.7946L12.276 47.692L25.9042 47.7207H25.9881V47.7905C25.9881 49.4316 25.9554 50.7405 25.9461 51.68C25.9461 52.119 25.9461 52.4637 25.9461 52.7222C25.932 52.836 25.907 52.9485 25.8715 53.0586Z" fill="#E0E0E0"/>
<path d="M91.4898 10.6552C91.4857 10.6238 91.4857 10.5922 91.4898 10.5608V10.29C91.4898 10.0398 91.4898 9.69511 91.4898 9.2479C91.4898 8.33705 91.4665 7.02823 91.4479 5.37476L91.5225 5.43631L68.8074 5.49375C68.8586 5.44862 68.6908 5.59632 68.9193 5.39118V10.6552L68.8027 10.5567L84.9672 10.6018L89.7415 10.6306H91.0329H91.3686H91.4898C91.4542 10.6342 91.4182 10.6342 91.3826 10.6306H91.0609H89.7927L85.0324 10.7085L68.7887 10.7537H68.7141V6.72462C68.7141 6.50306 68.7141 6.2774 68.7141 6.05174V5.38297L68.8353 5.2804L91.5178 5.32143H91.5598V5.38297C91.5598 7.05285 91.5271 8.37398 91.5178 9.29303C91.5178 9.73204 91.5178 10.0767 91.5178 10.3188V10.5813C91.5107 10.6066 91.5013 10.6312 91.4898 10.6552Z" fill="#E0E0E0"/>
<path d="M94.5624 5.37479C94.5624 5.37479 94.5624 5.33787 94.5624 5.27632C94.5624 5.21478 94.5624 5.1081 94.5624 4.99322C94.5624 4.73474 94.5624 4.38189 94.5624 3.93468C94.5624 3.01152 94.5344 1.7027 94.5157 0.0943664L94.5997 0.168219L80.9715 0.196939L81.0881 0.0943664V1.46063C81.0881 1.91605 81.0881 2.36327 81.0881 2.80638V5.36658L80.9762 5.26812L90.7252 5.31735L93.5646 5.34197H94.3292H94.6043C94.5221 5.34783 94.4394 5.34783 94.3572 5.34197H93.6159L90.8185 5.36658L80.9342 5.49378H80.8363V5.39531C80.8363 4.57473 80.8363 3.71722 80.8363 2.8351V0.102572L80.9529 0L94.581 0.0287201H94.6649V0.102572C94.6649 1.74373 94.6323 3.05255 94.6183 3.98801C94.6183 4.42702 94.6183 4.77577 94.6183 5.03015C94.608 5.14596 94.5893 5.26108 94.5624 5.37479Z" fill="#E0E0E0"/>
<path d="M70.3133 1.00113V35.3916H14.1876L12.1641 1.2432L70.3133 1.00113Z" fill="#E0E0E0"/>
<path d="M12.1641 1.24316L12.1641 35.3177H68.2898V1.24316H12.1641Z" fill="white"/>
<path d="M68.5603 35.5516H11.8984V1.00523H68.5603V35.5516ZM12.4299 35.0839H68.0288V1.47706H12.4299V35.0839Z" fill="#E0E0E0"/>
<path d="M62.2148 5.47328H18.2439V31.0835H62.2148V5.47328Z" fill="white"/>
<path d="M62.2148 5.49379C62.1418 5.49735 62.0687 5.49735 61.9957 5.49379H61.3709H58.9558L49.8968 5.52251L18.2439 5.57995L18.3605 5.49379C18.3605 13.318 18.3605 21.9874 18.3605 31.0999L18.2206 30.9769L62.1915 31.0015L62.0796 31.0999C62.1029 23.3044 62.1262 16.9162 62.1402 12.4687C62.1402 10.2449 62.1402 8.50531 62.1682 7.31547C62.1682 6.72876 62.1682 6.27334 62.1682 5.96152C62.1682 5.6497 62.1682 5.48968 62.1682 5.48968C62.1682 5.48968 62.1682 5.64149 62.1682 5.941C62.1682 6.24051 62.1682 6.69593 62.1682 7.27854C62.1682 8.46428 62.1682 10.1916 62.1962 12.4072C62.1962 16.8711 62.2288 23.2798 62.2521 31.0999V31.1984H62.1402L18.1693 31.223H18.0294V31.0999C18.0294 21.9874 18.0294 13.318 18.0294 5.49379V5.38301H18.1553L49.8921 5.44045L58.9232 5.46917H61.3103H61.9211L62.2148 5.49379Z" fill="#E0E0E0"/>
<path d="M12.1642 1.14473C12.5098 1.29329 12.8338 1.47787 13.1293 1.69452C13.7028 2.05967 14.486 2.57664 15.3299 3.17156C16.1738 3.76648 16.9151 4.32857 17.442 4.75117C17.7433 4.96845 18.0127 5.21791 18.2439 5.4938C18.1926 5.54713 16.8452 4.56654 15.1574 3.38491C13.4696 2.20327 12.1175 1.20217 12.1642 1.14473Z" fill="#E0E0E0"/>
<path d="M68.2945 1.24317C67.3676 2.0349 66.3799 2.76968 65.3386 3.44232C64.3536 4.18021 63.3097 4.85483 62.2148 5.46095C63.139 4.66436 64.1251 3.92541 65.1661 3.24949C66.8492 2.09247 68.2479 1.18984 68.2945 1.24317Z" fill="#E0E0E0"/>
<path d="M68.2479 35.3218L61.991 30.8579L68.2479 35.3218Z" fill="white"/>
<path d="M61.991 30.8579C63.1155 31.5076 64.1902 32.2216 65.2081 32.9955C66.2793 33.7103 67.2949 34.4875 68.248 35.3218C67.1209 34.6754 66.046 33.9612 65.0309 33.1842C63.3058 31.9534 61.9398 30.9317 61.991 30.8579Z" fill="#E0E0E0"/>
<path d="M12.1641 35.3177C13.0811 34.5268 14.0611 33.7946 15.0967 33.1268C16.072 32.3953 17.1067 31.7275 18.1926 31.1286C17.2786 31.9192 16.3017 32.6514 15.2692 33.3196C14.2909 34.0514 13.2531 34.7192 12.1641 35.3177Z" fill="#E0E0E0"/>
<path d="M27.1724 13.4534V22.0284H54.8389V13.4534L27.1724 13.4534Z" fill="#E0E0E0"/>
<path d="M125.614 162.298V178H151.705H180.481V162.298H125.614Z" fill="#F5F5F5"/>
<path d="M123.311 157.908V162.298H182.397V157.908H151.705H123.311Z" fill="#E0E0E0"/>
<path d="M152.856 178H180.481V162.298H182.397V157.908H151.705V161.892L152.856 178Z" fill="#E0E0E0"/>
<path d="M144.417 164.83H133.288V167.193H144.417V164.83Z" fill="#E0E0E0"/>
<path d="M146.142 170.147H131.857V175.136H146.142V170.147Z" fill="white"/>
<path d="M98.3948 72.1494H75.7123V77.4298H98.3948V72.1494Z" fill="#EBEBEB"/>
<path d="M88.8043 82.9934C88.801 82.9606 88.801 82.9276 88.8043 82.8949V82.6282C88.8043 82.382 88.8043 82.0333 88.8043 81.5902C88.8043 80.6793 88.781 79.3664 88.767 77.717L88.8369 77.7786L66.1545 77.8155L66.2664 77.717V82.9893L66.1545 82.8908L82.3189 82.9359L87.0886 82.9605H88.38H88.7157H88.8369H88.7297H88.408H87.1398L82.3982 82.9893L66.1545 83.0344H66.0379V77.7047L66.1545 77.6022L88.8369 77.6432H88.9069V77.7047C88.9069 79.3705 88.8789 80.6957 88.8696 81.6148C88.8696 82.0538 88.8696 82.3943 88.8696 82.6405C88.8696 82.7472 88.8696 82.8334 88.8696 82.899C88.8508 82.932 88.8289 82.9635 88.8043 82.9934Z" fill="#E0E0E0"/>
<path d="M208.306 40.6556H185.623V45.936H208.306V40.6556Z" fill="#EBEBEB"/>
<path d="M198.715 51.4995C198.715 51.4995 198.715 51.4626 198.715 51.4011V51.1303C198.715 50.8841 198.715 50.5353 198.715 50.0922C198.715 49.1814 198.692 47.8685 198.678 46.2191L198.748 46.2806L176.065 46.3176L176.182 46.2191V47.569C176.182 48.0162 176.182 48.4593 176.182 48.9024V51.4995L176.07 51.397L192.235 51.4421L197.004 51.4708H198.296H198.631H198.753H198.65H198.324H197.06L192.314 51.4995L176.07 51.5447H175.958V51.4462C175.958 50.5969 175.958 49.7271 175.958 48.8491V46.1658L176.075 46.0632L198.757 46.1001H198.795V46.1658C198.795 47.8315 198.767 49.1568 198.757 50.0758C198.757 50.5148 198.757 50.8554 198.757 51.1015C198.757 51.2082 198.757 51.2944 198.757 51.36C198.754 51.4086 198.74 51.4561 198.715 51.4995Z" fill="#E0E0E0"/>
</svg>
