<svg width="31" height="24" viewBox="0 0 31 24" fill="none" xmlns="http://www.w3.org/2000/svg">
<path d="M8.55083 10.79C10.4108 13.62 13.4075 15.93 17.0629 17.38L19.9046 15.18C20.2533 14.91 20.77 14.82 21.2221 14.94C22.6688 15.31 24.2317 15.51 25.8333 15.51C26.5437 15.51 27.125 15.96 27.125 16.51V20C27.125 20.55 26.5437 21 25.8333 21C13.7046 21 3.875 13.39 3.875 4C3.875 3.45 4.45625 3 5.16667 3H9.6875C10.3979 3 10.9792 3.45 10.9792 4C10.9792 5.25 11.2375 6.45 11.7154 7.57C11.8575 7.92 11.7542 8.31 11.3925 8.59L8.55083 10.79Z" fill="black"/>
</svg>
