<svg width="23" height="26" viewBox="0 0 23 26" fill="none" xmlns="http://www.w3.org/2000/svg">
<path d="M7.76486 15.9098C7.93154 15.8573 8.98509 15.3995 8.32675 13.4704H8.33619C6.6201 11.7666 5.30866 9.02507 5.30866 6.32594C5.30866 2.17568 8.1716 0 11.499 0C14.8284 0 17.6756 2.17467 17.6756 6.32594C17.6756 9.03618 16.3715 11.7889 14.6449 13.4886C13.9719 15.1903 15.1754 15.8219 15.427 15.9108C18.9116 17.1255 23 19.3396 23 21.5254V22.3449C23 25.3229 17.0099 26 11.4665 26C5.91459 26 0 25.3229 0 22.3449V21.5254C0 19.2739 4.10834 17.077 7.76486 15.9098Z" fill="black"/>
</svg>
