<svg width="2" height="10" viewBox="0 0 2 10" fill="none" xmlns="http://www.w3.org/2000/svg">
<path d="M0.816939 10C0.719493 10.0001 0.625717 9.96735 0.554951 9.90839C0.484185 9.84944 0.441828 9.76883 0.436631 9.6832L0.000550989 0.348095C-0.00223651 0.302875 0.00557384 0.257635 0.0235001 0.215185C0.0414264 0.172735 0.0690741 0.133981 0.104743 0.101337C0.140412 0.0686926 0.183332 0.0428546 0.230831 0.0254275C0.27833 0.00800043 0.329403 -0.000641397 0.38086 3.70671e-05H0.887938C0.988802 3.70671e-05 1.08552 0.0352951 1.15684 0.0980582C1.22817 0.160821 1.26825 0.245948 1.26825 0.334709L1.17696 9.66981C1.17581 9.75479 1.13797 9.83621 1.07111 9.89753C1.00425 9.95886 0.913377 9.9955 0.816939 10Z" fill="#844031"/>
</svg>
