<svg width="10" height="9" viewBox="0 0 10 9" fill="none" xmlns="http://www.w3.org/2000/svg">
<path opacity="0.3" d="M0.458409 9H3.52662C3.63273 8.99828 3.73491 8.96241 3.81589 8.89849C3.89686 8.83457 3.95164 8.74652 3.97092 8.64927C4.5877 5.61935 6.52689 2.97913 9.61078 0.684769C9.68073 0.632373 9.73045 0.56017 9.75243 0.479085C9.77441 0.398 9.76746 0.31245 9.73261 0.235381C9.69776 0.158313 9.63692 0.0939206 9.55929 0.0519547C9.48167 0.00998875 9.39148 -0.00726673 9.3024 0.0027969C6.97014 0.289686 4.80143 1.27615 3.12388 2.81317C1.44634 4.35019 0.351105 6.35426 0.00365139 8.52261C-0.00455412 8.58259 0.00110774 8.64352 0.0202568 8.70129C0.0394058 8.75907 0.0715987 8.81235 0.114673 8.85757C0.157747 8.90279 0.210706 8.9389 0.269992 8.96346C0.329277 8.98803 0.39353 9.00049 0.458409 9Z" fill="white"/>
</svg>
