<svg width="2" height="3" viewBox="0 0 2 3" fill="none" xmlns="http://www.w3.org/2000/svg">
<path d="M0.171896 0.900975C0.115507 0.851287 0.0712184 0.792005 0.0417358 0.72675C0.0122532 0.661495 -0.00179795 0.59163 0.00042653 0.521434C-0.00265912 0.451826 0.0110248 0.382429 0.0405782 0.317806C0.0701316 0.253183 0.114879 0.194792 0.171896 0.14647C0.286867 0.0507455 0.439731 -0.00173833 0.597991 0.000153972C0.67649 -0.00152454 0.754573 0.0105344 0.827722 0.0356549C0.900871 0.0607753 0.96763 0.0984452 1.02409 0.14647C1.0811 0.194792 1.12585 0.253183 1.1554 0.317806C1.18496 0.382429 1.19864 0.451826 1.19556 0.521434C1.19778 0.59163 1.18373 0.661495 1.15425 0.72675C1.12476 0.792005 1.08048 0.851287 1.02409 0.900975C0.968596 0.950468 0.902128 0.989391 0.828832 1.01535C0.755536 1.04131 0.676972 1.05374 0.597991 1.05187C0.51913 1.05294 0.440811 1.04014 0.367643 1.01423C0.294475 0.98832 0.227926 0.949823 0.171896 0.900975ZM0.171896 2.84893C0.115507 2.79924 0.0712184 2.73996 0.0417358 2.67471C0.0122532 2.60945 -0.00179795 2.5396 0.00042653 2.46941C-0.00265912 2.3998 0.0110248 2.3304 0.0405782 2.26578C0.0701316 2.20115 0.114879 2.14276 0.171896 2.09444C0.286867 1.99872 0.439731 1.94622 0.597991 1.94811C0.67649 1.94643 0.754573 1.95851 0.827722 1.98363C0.900871 2.00875 0.96763 2.04642 1.02409 2.09444C1.0811 2.14276 1.12585 2.20115 1.1554 2.26578C1.18496 2.3304 1.19864 2.3998 1.19556 2.46941C1.19778 2.5396 1.18373 2.60945 1.15425 2.67471C1.12476 2.73996 1.08048 2.79924 1.02409 2.84893C0.968596 2.89843 0.902128 2.93736 0.828832 2.96332C0.755536 2.98928 0.676972 3.00171 0.597991 2.99984C0.51913 3.00092 0.440811 2.98812 0.367643 2.9622C0.294475 2.93629 0.227926 2.89778 0.171896 2.84893Z" fill="#263238"/>
</svg>
