<svg width="16" height="2" viewBox="0 0 16 2" fill="none" xmlns="http://www.w3.org/2000/svg">
<path d="M1.15083 1.89489C1.00347 1.90369 0.855636 1.88574 0.71649 1.84216C0.577343 1.79859 0.449862 1.73031 0.341949 1.64157C0.234036 1.55283 0.148 1.44553 0.0891764 1.32631C0.0303533 1.20709 0 1.0785 0 0.948531C0 0.818559 0.0303533 0.689975 0.0891764 0.570756C0.148 0.451537 0.234036 0.34423 0.341949 0.255491C0.449862 0.166752 0.577343 0.0984749 0.71649 0.0548991C0.855636 0.0113234 1.00347 -0.00662212 1.15083 0.00217563H14.9951C15.2677 0.0184517 15.5231 0.125231 15.7097 0.300916C15.8963 0.476601 16 0.708079 16 0.948531C16 1.18898 15.8963 1.42046 15.7097 1.59615C15.5231 1.77183 15.2677 1.87861 14.9951 1.89489H1.15083Z" fill="#455A64"/>
</svg>
