<svg width="57" height="147" viewBox="0 0 57 147" fill="none" xmlns="http://www.w3.org/2000/svg">
<path d="M35.4525 9.93501C31.5899 12.9017 27.8166 17.6843 30.028 22.8737C32.2395 28.063 46.3907 28.5852 49.3657 26.4503C53.2333 23.6777 49.8169 11.3305 46.8022 11.2566C46.5742 6.67725 38.6804 7.45356 35.4525 9.93501Z" fill="#263238"/>
<path d="M30.0427 59.9106C30.0427 59.9106 31.5947 86.2222 33.3054 100.469C33.4789 113.846 36.7762 144.067 36.7762 144.067H40.4008C41.0107 129.072 45.4881 115.071 42.5131 101.846C49.4548 75.8759 44.6997 59.929 44.6997 59.929L30.0427 59.9106Z" fill="#FFB573"/>
<path d="M33.9897 59.9291C33.9897 59.9291 41.452 89.115 43.4949 101.545C45.6468 114.604 48.85 139.945 48.7012 144.058H51.8299C51.8299 144.058 57.0858 118.421 52.2217 102.007C56.233 65.0398 46.336 59.9568 46.336 59.9568L33.9897 59.9291Z" fill="#FFB573"/>
<path d="M16.095 26.1731C15.862 24.5973 12.758 24.4633 12.758 24.4633L11.2705 23.7656C11.0094 23.6166 10.6964 23.568 10.3975 23.6301C10.0987 23.6921 9.83745 23.86 9.66896 24.0983L9.17312 24.8654C9.0287 25.1673 9.0048 25.5073 9.10572 25.8242C9.20663 26.1411 9.42574 26.414 9.7235 26.5936L10.1747 26.8986C10.9423 27.4099 11.8506 27.7064 12.7927 27.7534L14.1662 27.8228C14.4678 27.8389 14.7701 27.8045 15.0587 27.7211C15.4004 27.6209 15.6919 27.4092 15.8796 27.1248C16.0672 26.8404 16.1384 26.5025 16.0801 26.1731H16.095Z" fill="#FFB573"/>
<path d="M32.4428 35.3918C32.2544 35.572 32.1552 35.6598 32.0164 35.7754L31.6246 36.0988C31.3668 36.3022 31.099 36.4916 30.8363 36.6811C30.3007 37.0508 29.7553 37.3927 29.195 37.7162C28.0706 38.3468 26.8894 38.8849 25.6647 39.3243C23.2255 40.2086 20.6359 40.6781 18.0188 40.7105H17.7907C17.6712 40.7082 17.552 40.6989 17.4337 40.6828C17.2008 40.6511 16.9728 40.5937 16.7544 40.5118C16.3868 40.3706 16.0505 40.1669 15.7628 39.9111C15.3901 39.57 15.0861 39.1693 14.8653 38.7282C14.556 38.1033 14.3248 37.4475 14.1761 36.7735C13.9131 35.6135 13.7474 34.4363 13.6802 33.2523C13.546 30.9847 13.5957 28.7109 13.829 26.4503C13.8566 26.1976 13.9829 25.9633 14.1839 25.7918C14.3849 25.6203 14.6465 25.5236 14.919 25.5202C15.1915 25.5168 15.4558 25.6068 15.6616 25.7732C15.8675 25.9396 16.0006 26.1707 16.0355 26.4226V26.4503C16.3032 28.6037 16.6106 30.7894 17.0271 32.8827C17.2108 33.8964 17.4642 34.8982 17.7858 35.8817C17.9138 36.2839 18.0901 36.6714 18.3114 37.0369C18.4006 37.1709 18.4899 37.2356 18.4502 37.1894C18.3846 37.1232 18.303 37.0725 18.2122 37.0415C18.1318 37.0075 18.0467 36.9841 17.9593 36.9722H17.8254C18.8914 36.8815 19.9487 36.7178 20.9889 36.4824C22.0196 36.2425 23.0305 35.9336 24.0135 35.5582C24.9925 35.1677 25.936 34.7041 26.8348 34.1719C27.286 33.9131 27.7224 33.6405 28.1438 33.3494C28.3521 33.2061 28.5504 33.0582 28.7488 32.9104L29.0364 32.6886L29.2545 32.5084L29.3834 32.4021C29.8159 32.0412 30.3824 31.8519 30.9624 31.8747C31.5424 31.8974 32.0899 32.1304 32.4882 32.5239C32.8865 32.9174 33.1042 33.4404 33.0948 33.9813C33.0854 34.5222 32.8496 35.0383 32.4378 35.4196L32.4428 35.3918Z" fill="#FFB573"/>
<path d="M34.8823 30.2626C30.9602 29.6526 26.8447 32.1387 24.7126 34.1627C23.6118 37.2495 27.1373 41.0017 27.1373 41.0017C27.1373 41.0017 32.1601 38.1275 33.9699 36.1635C35.7797 34.1996 37.1433 30.6138 34.8823 30.2626Z" fill="#E0E0E0"/>
<path d="M47.0303 59.5779C47.0303 59.5779 52.5638 63.2377 53.6051 75.4047C54.0216 80.1966 54.7703 99.3135 56.3471 107.539C50.6697 111.319 33.6724 110.801 31.0097 108.592C31.7634 91.9569 24.9407 69.8919 29.8891 59.7443C38.0804 58.8062 47.0303 59.5779 47.0303 59.5779Z" fill="#263238"/>
<path opacity="0.2" d="M41.4175 94.4706C41.4918 87.4791 40.3861 77.8583 37.0293 72.1561C38.1747 79.2723 41.4175 94.4706 41.4175 94.4706Z" fill="black"/>
<path d="M27.2909 35.9001C27.2909 39.8603 23.9043 41.9397 27.7372 44.9896C27.9652 48.4091 28.233 54.5318 29.3586 60.1093C30.5238 61.6203 39.0423 61.4956 47.893 59.7073C46.7377 54.9246 47.1641 47.1337 50.1937 36.4778C50.3551 35.8864 50.3837 35.2704 50.2777 34.6682C50.1717 34.0661 49.9334 33.4908 49.5778 32.9785C49.2222 32.4661 48.7568 32.0278 48.211 31.6909C47.6651 31.3539 47.0504 31.1257 46.4055 31.0204C45.6766 30.9003 44.918 30.7894 44.1147 30.697C41.3466 30.3167 38.5528 30.1221 35.7549 30.1147C34.8524 30.1147 33.9153 30.1702 33.0228 30.2256C31.4723 30.3149 30.0165 30.9514 28.9517 32.0056C27.8869 33.0597 27.293 34.4524 27.2909 35.9001Z" fill="#E0E0E0"/>
<path d="M45.3724 42.7759L34.9848 44.9682C34.5895 45.0516 34.3416 45.4179 34.4311 45.7863L37.7943 59.6267C37.8839 59.9951 38.2769 60.2261 38.6721 60.1427L49.0597 57.9504C49.455 57.867 49.7029 57.5007 49.6134 57.1324L46.2502 43.2919C46.1607 42.9235 45.7676 42.6925 45.3724 42.7759Z" fill="#EB0029"/>
<path d="M36.7814 35.2209C36.7814 35.2209 35.1005 37.097 33.7121 37.5314L33.5535 38.4555C35.309 38.2466 36.9294 37.4678 38.13 36.256L36.7814 35.2209Z" fill="#EB0029"/>
<path d="M32.2148 34.0888C32.2148 34.0888 32.1453 36.5286 32.8693 37.7208L32.3288 38.5156C31.1599 37.2759 30.4964 35.6924 30.4545 34.0426L32.2148 34.0888Z" fill="#EB0029"/>
<path d="M43.7727 21.9079C43.1082 24.3663 42.3298 28.8994 44.1148 30.6877C44.1148 30.6877 37.4656 32.379 33.132 37.9241C31.1486 32.0971 35.7748 30.1055 35.7748 30.1055C38.8044 29.6434 38.844 27.5824 38.4275 25.6047L43.7727 21.9079Z" fill="#FFB573"/>
<path opacity="0.2" d="M41.5959 23.419L38.4325 25.6139C38.5347 26.0704 38.5944 26.5342 38.611 27.0002C39.7613 26.9263 41.3976 25.8681 41.586 24.7637C41.6729 24.3194 41.6763 23.8643 41.5959 23.419Z" fill="black"/>
<path d="M46.8567 17.5273C45.5824 21.5105 45.1361 23.2249 42.4536 24.7914C38.4175 27.1435 33.5285 24.7221 33.4988 20.4431C33.4988 16.5892 35.5664 10.7391 40.1629 10.1014C44.7593 9.4637 48.1508 13.5394 46.8567 17.5273Z" fill="#FFB573"/>
<path d="M43.5249 11.7095C42.32 15.5495 43.3513 19.5651 45.8107 20.0272C49.227 18.8396 49.0584 15.3046 48.1858 13.6873C47.3131 12.0699 44.219 9.49606 43.5249 11.7095Z" fill="#263238"/>
<path d="M45.3938 18.6085C43.4947 19.1954 43.1278 20.383 43.1278 20.383C43.1278 20.383 44.4319 19.5235 45.6814 19.6852C45.5001 19.351 45.4018 18.983 45.3938 18.6085Z" fill="#263238"/>
<path d="M40.6487 17.1529C40.5644 17.481 40.3116 17.7028 40.0785 17.652C39.8455 17.6012 39.7215 17.2823 39.8058 16.9542C39.8901 16.6261 40.143 16.3997 40.376 16.4552C40.6091 16.5106 40.7132 16.8249 40.6487 17.1529Z" fill="#263238"/>
<path d="M36.2508 16.178C36.1665 16.5061 35.9136 16.7279 35.6805 16.6724C35.4475 16.617 35.3235 16.3074 35.4078 15.9746C35.4921 15.6419 35.745 15.4247 35.978 15.4802C36.2111 15.5356 36.34 15.8453 36.2508 16.178Z" fill="#263238"/>
<path d="M36.0872 15.5218L35.2889 15.092C35.2889 15.092 35.5715 15.8129 36.0872 15.5218Z" fill="#263238"/>
<path d="M37.0838 16.714C36.5797 17.3907 35.9754 17.9974 35.2889 18.5162C35.4396 18.679 35.6261 18.8098 35.8356 18.8999C36.0451 18.9899 36.2729 19.0372 36.5037 19.0383L37.0838 16.714Z" fill="#ED893E"/>
<path d="M46.8817 21.5244C46.6191 21.8117 46.2931 22.0429 45.9261 22.2024C45.5591 22.3619 45.1595 22.4458 44.7545 22.4486C43.7182 22.4209 43.5397 21.3118 44.1099 20.4015C44.6058 19.579 45.7759 18.604 46.6784 19.0707C47.5808 19.5374 47.5858 20.7758 46.8817 21.5244Z" fill="#FFB573"/>
<path d="M41.4768 15.7389C41.4234 15.7143 41.3825 15.6712 41.3628 15.6188C41.2832 15.3771 41.1453 15.1557 40.9597 14.9715C40.774 14.7872 40.5455 14.6451 40.2918 14.556C40.2369 14.5419 40.1902 14.5084 40.1615 14.4626C40.1328 14.4169 40.1244 14.3625 40.138 14.311C40.1443 14.2857 40.1561 14.2618 40.1727 14.2409C40.1893 14.2199 40.2104 14.2024 40.2346 14.1894C40.2588 14.1764 40.2856 14.1682 40.3133 14.1653C40.3411 14.1623 40.3692 14.1648 40.3959 14.1724C40.7203 14.2777 41.0137 14.4526 41.2523 14.6829C41.4909 14.9133 41.668 15.1927 41.7694 15.4986C41.7794 15.5231 41.7838 15.5493 41.7824 15.5755C41.781 15.6017 41.7738 15.6273 41.7612 15.6508C41.7486 15.6743 41.731 15.695 41.7093 15.7118C41.6877 15.7285 41.6625 15.7409 41.6355 15.7482C41.5832 15.7638 41.5266 15.7605 41.4768 15.7389Z" fill="#263238"/>
<path d="M34.6543 14.2094C34.598 14.2112 34.5431 14.193 34.5006 14.1586C34.4615 14.1207 34.4396 14.0702 34.4396 14.0176C34.4396 13.9651 34.4615 13.9146 34.5006 13.8767C34.7216 13.6385 35.0012 13.4536 35.3154 13.3377C35.6297 13.2219 35.9693 13.1785 36.3054 13.2113C36.362 13.2204 36.4127 13.2495 36.4469 13.2925C36.481 13.3355 36.4961 13.3892 36.4889 13.4423C36.4803 13.4944 36.4499 13.5412 36.4044 13.5724C36.3588 13.6036 36.3018 13.6166 36.2459 13.6087C35.9799 13.584 35.7114 13.6199 35.4635 13.7132C35.2156 13.8066 34.9958 13.9547 34.8228 14.1447C34.8014 14.1662 34.7753 14.1831 34.7462 14.1943C34.7171 14.2054 34.6857 14.2106 34.6543 14.2094Z" fill="#263238"/>
<path d="M40.4756 16.5014L39.6772 16.067C39.6772 16.067 39.9599 16.7925 40.4756 16.5014Z" fill="#263238"/>
<path d="M40.2174 49.3101L36.2507 48.5939L36.6969 52.8405C36.6969 52.8405 39.672 52.7204 41.3677 51.4543L41.5264 50.8997C41.343 49.9802 41.1198 49.6428 40.2174 49.3101Z" fill="#FFB573"/>
<path d="M33.8658 50.4053L34.327 52.2028C34.3944 52.461 34.5631 52.6863 34.7999 52.8342C35.0367 52.9822 35.3244 53.0422 35.6062 53.0023L36.7169 52.8405L36.2706 48.5939L34.5798 49.1669C34.3188 49.256 34.1019 49.4314 33.9703 49.6596C33.8387 49.8879 33.8015 50.1532 33.8658 50.4053Z" fill="#FFB573"/>
<path d="M49.0879 34.1257C50.2931 36.2769 51.3449 38.4997 52.2364 40.7799C52.6827 41.9212 53.1042 43.0903 53.4413 44.2872C53.809 45.5272 54.0579 46.7953 54.1851 48.0763C54.2148 48.4137 54.2297 48.7602 54.2347 49.1114V49.2362V49.4349C54.2227 49.571 54.1961 49.7057 54.1553 49.8369C54.0825 50.0917 53.9688 50.3347 53.8182 50.5578C53.5885 50.8899 53.2881 51.1746 52.9356 51.3942C52.5045 51.6615 52.0286 51.8598 51.5274 51.981C51.1477 52.0788 50.7619 52.1545 50.3721 52.2075C49.0206 52.3659 47.6568 52.4138 46.2963 52.3507C43.717 52.2398 41.1499 51.9525 38.6158 51.4912C38.3413 51.4489 38.094 51.3116 37.9232 51.1069C37.7525 50.9021 37.6709 50.6449 37.6947 50.3865C37.7185 50.1282 37.8459 49.8876 38.0515 49.713C38.2572 49.5383 38.5259 49.4423 38.8042 49.4441C41.2834 49.4026 43.7923 49.3425 46.207 49.1715C47.3631 49.0968 48.5116 48.9424 49.6432 48.7094C49.8742 48.6596 50.1012 48.5948 50.3225 48.5153C50.4321 48.487 50.5337 48.4365 50.62 48.3675C50.5248 48.4199 50.4462 48.4948 50.3919 48.5846C50.326 48.682 50.2759 48.7879 50.2432 48.8989C50.2256 48.9612 50.2124 49.0245 50.2035 49.0883C50.2009 49.1191 50.2009 49.15 50.2035 49.1808C50.2035 48.9451 50.1589 48.7187 50.1192 48.4599C49.6856 46.3182 49.0091 44.2255 48.1011 42.217C47.2037 40.1329 46.1773 38.0119 45.1261 36.0111V35.9741C44.913 35.4905 44.9032 34.9499 45.0985 34.4599C45.2939 33.9698 45.6801 33.5664 46.1803 33.3298C46.6805 33.0932 47.258 33.0409 47.7977 33.1833C48.3374 33.3256 48.7998 33.6522 49.0928 34.098L49.0879 34.1257Z" fill="#FFB573"/>
<path d="M46.6632 31.1636C49.5044 31.6535 50.7688 34.0333 52.8314 38.7836C52.2017 41.9813 47.1591 43.6633 47.1591 43.6633C47.1591 43.6633 44.2634 38.8806 43.6882 36.3437C43.113 33.8068 43.7973 30.6692 46.6632 31.1636Z" fill="#E0E0E0"/>
<path d="M40.6588 144.104C40.6356 144.043 40.5905 143.99 40.531 143.956C40.4715 143.921 40.4011 143.907 40.3315 143.915L36.9698 143.869C36.6258 143.847 36.2822 143.916 35.9781 144.067C34.4391 144.963 32.7105 145.539 30.9106 145.754C30.1966 145.856 30.5189 146.978 32.2047 146.997C34.9864 147.025 35.4922 146.831 37.8672 146.854C39.8952 146.877 38.9283 146.96 40.5398 146.997C40.9266 146.997 41.2439 146.771 41.1943 146.535L40.6588 144.104Z" fill="#263238"/>
<path d="M52.2565 144.104C52.2326 144.043 52.1873 143.991 52.128 143.957C52.0687 143.923 51.9987 143.908 51.9293 143.915L49.1873 143.869C48.8432 143.846 48.4992 143.915 48.1956 144.067C47.2039 144.71 47.3428 145.454 45.0818 145.754C44.3678 145.856 44.7198 146.978 46.4056 146.997C49.1873 147.025 49.0187 146.854 50.1492 146.854C51.2797 146.854 50.5856 146.96 52.202 146.997C52.5887 146.997 52.9011 146.771 52.8416 146.535L52.2565 144.104Z" fill="#263238"/>
<path d="M34.9517 35.9325C36.3599 35.9879 38.9432 37.0646 39.7713 38.2152C40.9414 37.0831 45.5131 34.4538 45.5924 30.891C45.0329 30.3896 44.3277 30.0522 43.5644 29.9206C43.5644 29.9206 37.4656 32.6701 34.9517 35.9325Z" fill="#FAFAFA"/>
<path d="M32.6709 35.7477C32.6709 35.7477 32.2891 32.8688 36.0277 30.0732C35.6508 29.7867 34.1732 30.1101 34.1732 30.1101C34.1732 30.1101 29.8049 31.8615 29.9338 36.3946C30.721 35.8552 31.7029 35.6231 32.6709 35.7477Z" fill="#FAFAFA"/>
<path d="M32.1154 36.9676C31.575 37.2033 31.3618 38.8437 32.1154 39.2273C32.8691 39.6108 32.7947 38.0443 33.2311 37.5083C33.6674 36.9722 33.0625 36.5564 32.1154 36.9676Z" fill="#EB0029"/>
<path d="M32.78 37.6053C32.3932 38.0674 32.894 39.6385 33.727 39.6339C34.56 39.6293 33.8411 38.2476 34.0047 37.5637C34.1683 36.8798 33.4394 36.792 32.78 37.6053Z" fill="#EB0029"/>
<path d="M32.894 38.7744C31.9668 37.4389 31.9024 44.4766 34.1485 47.2492C33.9998 44.5182 35.5716 40.6459 32.894 38.7744Z" fill="#EB0029"/>
<path d="M32.8096 38.7143C32.3981 37.3558 30.3304 43.3076 31.4758 46.2141C32.1254 43.8621 34.55 40.9601 32.8096 38.7143Z" fill="#EB0029"/>
<path d="M39.7219 20.309C39.9379 20.2214 40.1453 20.1162 40.3417 19.9948C40.3528 19.9845 40.3616 19.9723 40.3676 19.9588C40.3736 19.9453 40.3767 19.9309 40.3767 19.9163C40.3767 19.9017 40.3736 19.8872 40.3676 19.8737C40.3616 19.8603 40.3528 19.848 40.3417 19.8377C40.321 19.8131 40.2913 19.7966 40.2582 19.7915C40.2252 19.7863 40.1912 19.793 40.1632 19.81C39.721 20.0863 39.2179 20.2667 38.6911 20.3379C38.1642 20.4091 37.6269 20.3692 37.1187 20.2212C37.1037 20.2151 37.0876 20.2118 37.0713 20.2115C37.0549 20.2112 37.0387 20.214 37.0235 20.2196C37.0083 20.2251 36.9944 20.2335 36.9827 20.2441C36.9709 20.2547 36.9615 20.2673 36.9551 20.2813C36.9439 20.3101 36.9455 20.3419 36.9594 20.3696C36.9734 20.3973 36.9986 20.4188 37.0295 20.4292C37.9121 20.6999 38.871 20.6571 39.7219 20.309Z" fill="#263238"/>
<path d="M25.3324 23.5669H0V24.3339H25.3324V23.5669Z" fill="#EB0029"/>
<path d="M24.7275 24.3339H0.604915L1.66601 24.87H23.6664L24.7275 24.3339Z" fill="#EB0029"/>
<path opacity="0.2" d="M24.7275 24.3339H0.604915L1.66601 24.87H23.6664L24.7275 24.3339Z" fill="black"/>
<path d="M8.11688 3.01751C7.96868 3.0163 7.82692 2.9609 7.72213 2.86323C7.61733 2.76557 7.55789 2.63345 7.55659 2.49534V0.744C7.55789 0.605886 7.61733 0.473768 7.72213 0.376103C7.82692 0.278438 7.96868 0.223037 8.11688 0.221831C8.26507 0.223037 8.40684 0.278438 8.51164 0.376103C8.61643 0.473768 8.67587 0.605886 8.67717 0.744V2.49534C8.67587 2.63345 8.61643 2.76557 8.51164 2.86323C8.40684 2.9609 8.26507 3.0163 8.11688 3.01751Z" fill="#263238"/>
<path d="M9.0194 0.637688V0.40664C9.0194 0.182056 8.82405 0 8.58306 0L7.65088 0C7.40989 0 7.21454 0.182056 7.21454 0.40664V0.637688C7.21454 0.862271 7.40989 1.04433 7.65088 1.04433H8.58306C8.82405 1.04433 9.0194 0.862271 9.0194 0.637688Z" fill="#263238"/>
<path d="M9.01442 6.82051V1.82526C9.01444 1.7709 8.99161 1.7187 8.95083 1.67983C8.91005 1.64096 8.85457 1.61852 8.79625 1.61732H7.43765C7.37934 1.61852 7.32385 1.64096 7.28307 1.67983C7.2423 1.7187 7.21947 1.7709 7.21948 1.82526V6.82051C7.21964 7.19592 7.13445 7.5671 6.9695 7.90959C6.80455 8.25208 6.5636 8.55811 6.26252 8.80751C5.96253 9.05873 5.72237 9.36577 5.55754 9.70881C5.39271 10.0518 5.30686 10.4233 5.30555 10.7991V23.613H10.9234V10.7991C10.923 10.4231 10.8376 10.0514 10.6727 9.70827C10.5078 9.36511 10.2672 9.05818 9.96643 8.80751C9.66675 8.55732 9.42705 8.25103 9.26301 7.90864C9.09896 7.56625 9.01426 7.19547 9.01442 6.82051Z" fill="#EB0029"/>
<path d="M10.9233 12.3148H7.21441V20.6002H10.9233V12.3148Z" fill="#E0E0E0"/>
<path d="M16.1891 23.5669H15.5198C15.7426 23.5808 15.9663 23.5808 16.1891 23.5669Z" fill="#EB0029"/>
<path d="M20.2303 23.5669H19.556C19.7805 23.5808 20.0058 23.5808 20.2303 23.5669Z" fill="#EB0029"/>
<path opacity="0.2" d="M15.2916 13.7935V15.8961C15.2916 17.5689 16.313 18.9598 17.6072 19.1307V22.8275C17.6072 23.3959 17.0122 23.5576 16.551 23.5946H19.1939C18.7327 23.5576 18.1377 23.3959 18.1377 22.8275V19.1307C19.4319 18.9644 20.4533 17.5735 20.4533 15.8961V13.7935H15.2916Z" fill="#EB0029"/>
<path d="M46.0139 11.8158C44.0306 12.6013 37.3863 12.8416 34.7832 12.3148C37.4756 8.77055 43.5248 7.73083 46.0139 11.8158Z" fill="#263238"/>
<path d="M52.2664 24.4772C52.2472 24.4768 52.2283 24.4725 52.2112 24.4645C52.194 24.4565 52.179 24.4451 52.1672 24.431C52.1028 24.3478 50.64 22.3423 50.6103 16.9728C50.6103 14.7316 49.8715 12.9294 48.6269 12.0191C48.3035 11.7701 47.922 11.5952 47.513 11.5085C47.1039 11.4219 46.6788 11.4258 46.2717 11.52C46.2557 11.5234 46.2392 11.5237 46.2231 11.5211C46.207 11.5185 46.1916 11.513 46.1778 11.5048C46.164 11.4967 46.152 11.4861 46.1426 11.4736C46.1332 11.4612 46.1265 11.4471 46.1229 11.4322C46.1193 11.4174 46.1189 11.402 46.1217 11.387C46.1245 11.372 46.1305 11.3576 46.1392 11.3447C46.148 11.3319 46.1593 11.3207 46.1727 11.312C46.1861 11.3032 46.2012 11.2969 46.2171 11.2936C46.6596 11.1955 47.1203 11.1932 47.5638 11.2869C48.0073 11.3806 48.4219 11.5679 48.7757 11.8343C50.0896 12.7908 50.8483 14.6623 50.8632 16.9681C50.8929 22.2545 52.3507 24.2785 52.3507 24.2969C52.3602 24.3094 52.367 24.3234 52.3706 24.3383C52.3743 24.3532 52.3747 24.3686 52.372 24.3836C52.3692 24.3986 52.3633 24.413 52.3545 24.4259C52.3457 24.4388 52.3343 24.4499 52.3209 24.4587C52.3043 24.4684 52.2858 24.4747 52.2664 24.4772Z" fill="#263238"/>
</svg>
