<svg width="2" height="2" viewBox="0 0 2 2" fill="none" xmlns="http://www.w3.org/2000/svg">
<path d="M1.98865 0.876214C1.98865 0.876214 1.98865 0.802528 1.93939 0.672497C1.90118 0.534501 1.82307 0.407544 1.71263 0.303965C1.6022 0.200386 1.4632 0.123705 1.30913 0.0813658C1.15507 0.0390266 0.991186 0.0324664 0.833394 0.0623314C0.675601 0.0921965 0.529254 0.157467 0.408595 0.251802C0.287936 0.346138 0.19706 0.466335 0.144781 0.600711C0.0925023 0.735087 0.0805994 0.879076 0.110239 1.01869C0.139879 1.15831 0.21006 1.28881 0.313943 1.39751C0.417826 1.50621 0.551879 1.58943 0.703103 1.63906C0.848491 1.68804 1.00562 1.70379 1.1598 1.68484C1.31398 1.66589 1.46019 1.61286 1.58476 1.5307C1.75362 1.42421 1.87818 1.27196 1.93939 1.09727C1.9788 0.971568 1.9788 0.893548 1.98865 0.893548C2.00371 0.963723 2.00371 1.03576 1.98865 1.10594C1.94029 1.30119 1.81675 1.47574 1.63895 1.60006C1.50627 1.69291 1.34861 1.75406 1.18122 1.7776C1.01382 1.80114 0.842362 1.78627 0.683412 1.73442C0.484057 1.67451 0.31098 1.56123 0.188432 1.41045C0.0658844 1.25966 0 1.07893 0 0.893548C0 0.708169 0.0658844 0.527434 0.188432 0.37665C0.31098 0.225866 0.484057 0.112584 0.683412 0.0526754C0.842773 0.00142143 1.01447 -0.0127426 1.18188 0.0115576C1.34929 0.0358579 1.50674 0.0978016 1.63895 0.191379C1.81832 0.312592 1.94238 0.486353 1.98865 0.681161C2.00144 0.74569 2.00144 0.811684 1.98865 0.876214Z" fill="white"/>
</svg>
