<svg width="3" height="3" viewBox="0 0 3 3" fill="none" xmlns="http://www.w3.org/2000/svg">
<path d="M2.67559 2.44973V3.00002H0.153763V2.54897L1.44031 1.47545C1.5508 1.39225 1.64439 1.29311 1.71708 1.18226C1.76179 1.10534 1.78632 1.02056 1.78885 0.934181C1.79187 0.882639 1.78089 0.831206 1.75683 0.784141C1.73276 0.737076 1.6963 0.695732 1.65046 0.663544C1.53504 0.593268 1.39576 0.559848 1.25577 0.568826C1.11922 0.566979 0.984078 0.593236 0.861105 0.645505C0.741678 0.692821 0.638963 0.767618 0.563809 0.86201L0 0.546272C0.13297 0.370615 0.319489 0.231486 0.538187 0.144832C0.785164 0.0438752 1.0553 -0.00552442 1.32754 0.000490241C1.55013 -0.00250194 1.77124 0.0327418 1.97849 0.104238C2.15065 0.168528 2.29954 0.273035 2.40904 0.406445C2.51493 0.538206 2.57056 0.696139 2.56794 0.857502C2.56846 1.01382 2.52814 1.16815 2.45006 1.30856C2.3386 1.49091 2.18904 1.65312 2.00924 1.78668L1.2404 2.42718L2.67559 2.44973Z" fill="#F45570"/>
</svg>
