<svg width="11" height="3" viewBox="0 0 11 3" fill="none" xmlns="http://www.w3.org/2000/svg">
<path d="M10.9574 2.53217C10.9799 2.36243 10.9799 2.19097 10.9574 2.02123C10.9163 1.55314 10.679 1.11518 10.2917 0.79231C10.0208 0.578051 9.67841 0.446702 9.31566 0.417906C8.89926 0.384616 8.47971 0.435853 8.08934 0.567668C7.6739 0.691 7.28348 0.928856 6.82298 1.09183C6.58536 1.17857 6.32926 1.21914 6.07218 1.21076C5.8109 1.19436 5.55581 1.133 5.32138 1.03017C4.84587 0.831953 4.44544 0.554453 4.01498 0.360646C3.60854 0.168024 3.14948 0.0780836 2.68856 0.100769C2.29518 0.121595 1.91183 0.21843 1.56579 0.384391C1.21975 0.550352 0.919517 0.781363 0.686418 1.061C0.370712 1.438 0.156742 1.87333 0.060747 2.33396C0.0257094 2.49694 0.0156908 2.62467 0.00568003 2.71277C0.0121798 2.75663 0.0121798 2.80105 0.00568003 2.84491C-0.00762148 2.67268 0.00245919 2.49968 0.035711 2.32956C0.114439 1.85276 0.322143 1.39958 0.641356 1.00814C0.876814 0.718823 1.18195 0.478804 1.53495 0.305207C1.88796 0.13161 2.28015 0.0287158 2.68355 0.00386434C3.16282 -0.0205229 3.64054 0.0708659 4.06504 0.268147C4.50551 0.466359 4.90593 0.739453 5.36642 0.933261C5.58228 1.03606 5.82159 1.09497 6.06673 1.10564C6.31187 1.11631 6.55662 1.07848 6.78295 0.994927C7.22843 0.836357 7.62384 0.602906 8.05931 0.475169C8.46288 0.340735 8.89609 0.289501 9.32567 0.325407C9.69889 0.36632 10.0486 0.507877 10.3267 0.730644C10.723 1.0651 10.9578 1.52092 10.9824 2.00361C11.0125 2.17959 11.004 2.359 10.9574 2.53217Z" fill="#263238"/>
</svg>
