<svg width="24" height="14" viewBox="0 0 24 14" fill="none" xmlns="http://www.w3.org/2000/svg">
<path d="M1.09091 14V11.6667H22.9091V14H1.09091ZM2.34545 6.94167L0.927273 6.06667L1.85455 4.31667H0V2.56667H1.85455L0.927273 0.875L2.34545 0L3.27273 1.69167L4.2 0L5.61818 0.875L4.69091 2.56667H6.54545V4.31667H4.69091L5.61818 6.06667L4.2 6.94167L3.27273 5.19167L2.34545 6.94167ZM11.0727 6.94167L9.65455 6.06667L10.5818 4.31667H8.72727V2.56667H10.5818L9.65455 0.875L11.0727 0L12 1.69167L12.9273 0L14.3455 0.875L13.4182 2.56667H15.2727V4.31667H13.4182L14.3455 6.06667L12.9273 6.94167L12 5.19167L11.0727 6.94167ZM19.8 6.94167L18.3818 6.06667L19.3091 4.31667H17.4545V2.56667H19.3091L18.3818 0.875L19.8 0L20.7273 1.69167L21.6545 0L23.0727 0.875L22.1455 2.56667H24V4.31667H22.1455L23.0727 6.06667L21.6545 6.94167L20.7273 5.19167L19.8 6.94167Z" fill="black"/>
</svg>
