<svg width="117" height="138" viewBox="0 0 117 138" fill="none" xmlns="http://www.w3.org/2000/svg">
<path d="M19.1736 119.439L15.93 138H19.635L25.8937 119.439H19.1736Z" fill="#202324"/>
<path d="M99.6941 119.439L102.938 138H99.2281L92.974 119.439H99.6941Z" fill="#202324"/>
<path d="M2.31735 70.2055C2.05637 78.5798 -0.413583 115.522 8.19398 122.555H18.8847C21.6809 122.555 21.5224 121.395 21.4152 118.947L19.3833 71.0134C19.3506 70.0915 18.9794 69.2038 18.3255 68.483C16.9274 66.9574 14.0986 64.5993 10.2259 64.829C8.13597 64.9175 6.11342 65.5075 4.3772 66.535C3.72928 66.9605 3.20492 67.5149 2.84692 68.1528C2.48893 68.7907 2.30747 69.4941 2.31735 70.2055Z" fill="#535455"/>
<path d="M99.2095 123.093L18.8846 122.555V100.717H99.2095V123.093Z" fill="#535455"/>
<path d="M98.8925 100.717L18.4232 101.3V88.2009L99.2094 86.8681L98.8925 100.717Z" fill="#535455"/>
<path d="M3.83656 67.7489C3.83656 67.7489 4.43308 49.5649 27.1753 48.6257C49.9176 47.6866 83.6628 48.6257 83.6628 48.6257C83.6628 48.6257 112.23 47.6825 112.892 63.5167L107.216 93.8645H19.0105L3.83656 67.7489Z" fill="#535455"/>
<path d="M116.271 72.1371C115.67 84.6699 114.355 121.432 104.448 123.093H97.0798L99.3586 69.3935C99.3586 69.3935 102.775 64.1523 108.465 64.4722H108.637C110.791 64.6285 112.792 65.5154 114.216 66.9457C115.641 68.376 116.377 70.2375 116.271 72.1371Z" fill="#535455"/>
<path d="M112.212 65.2513L111.941 65.1939L111.172 65.0094L110.613 64.8741L109.914 64.7797C109.663 64.751 109.392 64.7059 109.103 64.6772H108.171C106.58 64.6887 105.014 65.0331 103.604 65.682L103.292 65.8173L102.989 65.9813L102.374 66.3217C101.962 66.5759 101.567 66.8497 101.19 67.1419C100.369 67.784 99.648 68.519 99.0464 69.3278V69.2909C98.7481 74.8396 98.3753 81.8483 97.9698 89.4517C97.5038 98.7078 97.1636 107.086 96.9725 113.16C96.884 116.191 96.8187 118.643 96.7675 120.349C96.7675 121.19 96.7255 121.85 96.7162 122.305C96.7162 122.523 96.7162 122.691 96.6929 122.814C96.6696 122.937 96.6929 122.986 96.6929 122.986C96.6929 122.986 96.6929 122.929 96.6929 122.814C96.6929 122.699 96.6929 122.519 96.6929 122.305C96.6929 121.846 96.6929 121.19 96.6929 120.349C96.6929 118.651 96.7535 116.195 96.8234 113.16C96.9772 107.086 97.2894 98.6996 97.7555 89.4435C98.1423 81.836 98.5477 74.8232 98.8739 69.2827C98.87 69.272 98.87 69.2605 98.8739 69.2499C99.4863 68.4312 100.222 67.689 101.06 67.0435C101.443 66.7429 101.846 66.4621 102.267 66.2028L102.891 65.8583L103.199 65.6943L103.516 65.5589C104.948 64.9099 106.537 64.5724 108.148 64.5747L109.08 64.6034C109.369 64.6321 109.639 64.6813 109.896 64.7141L110.595 64.8166L111.154 64.9643L111.918 65.1734L112.212 65.2513Z" fill="#202324"/>
<path d="M19.0105 101.242H19.4113H20.5857H25.1109L41.7528 101.279C55.8036 101.324 75.2137 101.46 96.6464 101.189H97.5365L97.42 101.283C97.4992 99.0441 97.5738 96.8295 97.6483 94.6519C97.6856 93.5583 97.7229 92.4756 97.7602 91.4038L97.8161 89.8003C97.8161 89.5379 97.8441 89.2631 97.8161 89.0129C97.802 88.7598 97.7223 88.5129 97.5831 88.2911C97.4398 88.068 97.2445 87.8741 97.0099 87.7221C96.7754 87.5702 96.507 87.4636 96.2223 87.4094C95.9256 87.3631 95.6237 87.3479 95.3229 87.3643H94.3908H90.7465L83.6908 87.4053L59.2941 87.6268C52.3549 87.6883 46.7439 87.7129 42.8666 87.717H38.4067H37.2463C36.9853 87.717 36.8501 87.717 36.8501 87.717H37.2463H38.4067L42.8666 87.6883L59.2941 87.5365L83.6861 87.27L90.7465 87.2249H94.3908H95.3229C95.6347 87.2083 95.9476 87.2248 96.2549 87.2741C96.5703 87.3346 96.8675 87.4532 97.127 87.6221C97.3864 87.7911 97.6023 88.0065 97.7602 88.2542C97.9155 88.4983 98.0048 88.7705 98.0212 89.0498C98.0212 89.3328 98.0212 89.5871 98.0212 89.87C98.0212 90.3991 97.9886 90.9363 97.9699 91.4736C97.9326 92.5426 97.8953 93.6239 97.8581 94.7175C97.7835 96.9047 97.7089 99.1166 97.6344 101.353C97.6302 101.378 97.6163 101.401 97.5951 101.418C97.5739 101.435 97.5466 101.446 97.5179 101.447H96.6324C75.195 101.718 55.7849 101.562 41.7341 101.48L25.0922 101.386L20.5671 101.357H19.3927L19.0105 101.242Z" fill="#202324"/>
<g opacity="0.2">
<path d="M18.4232 101.3C36.8593 104.818 45.6393 104.552 62.7799 104.81C78.1589 105.044 95.0897 102.604 97.5364 101.152L18.4232 101.3Z" fill="black"/>
</g>
<path d="M18.8847 122.555C18.8806 122.495 18.8806 122.435 18.8847 122.375C18.8847 122.244 18.8847 122.067 18.8847 121.842C18.8847 121.366 18.8847 120.677 18.8847 119.791C18.8847 118.003 18.9266 115.44 18.9593 112.274C19.0478 105.917 19.1643 97.1535 19.2948 87.475C19.374 82.6317 19.4439 78.018 19.5092 73.8226C19.5439 72.8075 19.3864 71.7943 19.0431 70.8247C18.7044 69.9176 18.2042 69.0635 17.5612 68.2944C16.9402 67.589 16.2054 66.9673 15.3802 66.4489C14.6126 65.9878 13.7748 65.6246 12.8916 65.3703C11.3459 64.9512 9.70289 64.8933 8.12407 65.2022C6.92965 65.4263 5.79828 65.8586 4.79662 66.4735C4.16964 66.8687 3.61488 67.3458 3.15154 67.8884C2.83464 68.2616 2.70881 68.483 2.68551 68.4748C2.71002 68.4187 2.74127 68.3651 2.77871 68.3149C2.87777 68.1592 2.98669 68.0086 3.10494 67.8637C3.55376 67.3029 4.10305 66.8098 4.73138 66.4038C5.73634 65.7685 6.87814 65.3205 8.08679 65.0873C9.68839 64.7598 11.3596 64.8079 12.9335 65.2268C13.8424 65.4815 14.7054 65.8488 15.4967 66.3176C16.3412 66.8441 17.0947 67.4753 17.7336 68.1918C19.1239 69.808 19.8264 71.8019 19.7189 73.8267C19.6583 78.0262 19.5931 82.6399 19.5232 87.4832C19.3647 97.1617 19.2202 105.938 19.1177 112.278C19.0525 115.444 19.0012 118.02 18.9639 119.795C18.9639 120.677 18.9266 121.362 18.9127 121.846C18.9127 122.076 18.9127 122.256 18.9127 122.379C18.9082 122.438 18.8988 122.497 18.8847 122.555Z" fill="#202324"/>
<path d="M64.0755 84.1162C64.2456 75.5126 65.1962 66.9346 66.9183 58.4641C67.1793 57.1723 67.5242 55.782 68.6613 54.9372C69.6399 54.2072 70.9914 54.0473 72.2683 53.9571C81.4258 53.3009 90.7604 56.8975 99.0744 60.7935C99.9863 61.2187 100.722 61.8868 101.177 62.7022C101.631 63.5175 101.781 64.4385 101.605 65.3334C100.207 72.3462 97.4106 77.6366 93.2956 84.3336C83.9499 87.6677 73.6852 88.4674 63.8192 86.6302" fill="#EB0029"/>
<path d="M47.6666 20.7467C47.0888 17.1336 47.126 17.2526 46.6134 13.7954C45.6254 7.08605 43.2207 -0.521419 32.3389 0.0281234C32.3389 0.0281234 24.1415 0.438228 21.6203 5.58916C20.2781 8.36968 19.9239 17.9908 19.4719 26.644C19.4634 26.7839 19.432 26.9221 19.3787 27.0541L18.8707 28.3623C18.1988 30.0824 17.805 31.8771 17.7009 33.6937L17.0112 45.7057C16.9884 46.1015 17.1448 46.4891 17.4462 46.7835C17.7476 47.078 18.1693 47.2552 18.619 47.2764C22.2867 47.4323 30.6659 47.0222 32.2783 46.5095C35.5861 45.4429 38.5947 43.763 41.1001 41.5837C43.6056 39.4043 45.5494 36.7765 46.7998 33.8783C46.9676 33.4682 49.3397 33.2918 49.7871 33.1401C50.5234 32.8899 47.7785 21.4357 47.6666 20.7467Z" fill="#202324"/>
<path d="M30.2418 3.12439L30.9315 2.56255L38.2622 5.26104C38.7751 5.29183 39.2561 5.49101 39.61 5.81914C39.9638 6.14726 40.1648 6.58039 40.1729 7.0327L39.7721 28.108C39.7721 29.5393 40.2382 31.192 39.2222 32.3198L38.0292 33.7921C35.6338 36.4988 30.1067 35.5187 28.2938 32.4839C28.182 32.3116 28.0973 32.1267 28.0422 31.9343C27.9976 31.779 27.9633 31.6215 27.9396 31.4627C27.7486 29.7649 27.7579 28.2926 27.7579 28.2926C27.6554 26.4307 27.6274 25.6638 27.6227 25.6843C27.6181 25.7048 23.1302 25.1799 21.9931 20.0577C21.4292 17.5232 21.597 14.0414 21.8207 10.6252C22.1329 5.90491 25.9124 3.06698 30.2418 3.12439Z" fill="#FFBF9D"/>
<path d="M31.3929 14.0579C31.3978 14.2297 31.4791 14.3931 31.6194 14.5127C31.7597 14.6323 31.9478 14.6987 32.1432 14.6976C32.2384 14.7015 32.3335 14.6885 32.4228 14.6595C32.5122 14.6304 32.5941 14.5859 32.6636 14.5286C32.7331 14.4712 32.7888 14.4022 32.8275 14.3256C32.8662 14.249 32.8871 14.1663 32.8888 14.0825C32.884 13.9102 32.8028 13.7464 32.6626 13.6261C32.5224 13.5058 32.3343 13.4385 32.1385 13.4386C32.0431 13.4353 31.9479 13.4488 31.8585 13.4783C31.7691 13.5078 31.6873 13.5527 31.6178 13.6104C31.5484 13.668 31.4927 13.7373 31.4541 13.8141C31.4155 13.891 31.3947 13.9738 31.3929 14.0579Z" fill="#202324"/>
<path d="M23.8804 14.1071C23.8853 14.2789 23.9667 14.4423 24.107 14.5619C24.2473 14.6815 24.4354 14.7479 24.6307 14.7468C24.7259 14.7507 24.821 14.7377 24.9104 14.7087C24.9998 14.6796 25.0816 14.6351 25.1512 14.5778C25.2207 14.5204 25.2764 14.4514 25.3151 14.3748C25.3538 14.2982 25.3746 14.2155 25.3764 14.1317C25.3715 13.9594 25.2903 13.7956 25.1501 13.6753C25.01 13.555 24.8219 13.4877 24.6261 13.4878C24.5307 13.4845 24.4355 13.498 24.3461 13.5275C24.2567 13.557 24.1748 13.6019 24.1054 13.6596C24.036 13.7172 23.9803 13.7865 23.9417 13.8634C23.903 13.9402 23.8822 14.023 23.8804 14.1071Z" fill="#202324"/>
<path d="M22.571 11.9827C22.6642 12.0688 23.2188 11.6792 24.0203 11.6587C24.8219 11.6382 25.4184 11.9704 25.5116 11.8802C25.6048 11.7899 25.4557 11.6874 25.1901 11.5316C24.834 11.33 24.4153 11.2311 23.9924 11.2486C23.5741 11.2586 23.1706 11.3866 22.8413 11.6136C22.5989 11.7899 22.5197 11.9458 22.571 11.9827Z" fill="#202324"/>
<path d="M30.7264 12.1591C30.8336 12.2329 31.3369 11.7982 32.1245 11.6998C32.9121 11.6013 33.5599 11.8843 33.6344 11.7859C33.709 11.6875 33.5552 11.6013 33.2709 11.4701C32.8927 11.3018 32.4647 11.2402 32.0453 11.2938C31.6317 11.346 31.2471 11.5109 30.9455 11.7654C30.7357 11.9622 30.6752 12.1263 30.7264 12.1591Z" fill="#202324"/>
<path d="M27.837 17.2731C27.4082 17.1712 26.9669 17.1161 26.5228 17.109C26.3131 17.109 26.1174 17.068 26.0568 16.945C26.0299 16.7582 26.0707 16.5688 26.1733 16.4037C26.3457 15.9607 26.5275 15.4932 26.7232 15.0093C27.4875 13.0203 28.0281 11.3881 27.9395 11.3634C27.851 11.3388 27.1566 12.926 26.3923 14.915L25.8657 16.3175C25.7457 16.5401 25.7193 16.793 25.7911 17.0311C25.8231 17.0932 25.8709 17.148 25.9306 17.1914C25.9904 17.2347 26.0607 17.2655 26.136 17.2813C26.2517 17.307 26.371 17.318 26.4902 17.3141C26.9392 17.352 27.392 17.3382 27.837 17.2731Z" fill="#202324"/>
<path d="M27.6227 25.6721C30.3705 25.6195 33.0482 24.8984 35.3588 23.5887C35.3588 23.5887 33.5413 27.2018 27.6833 26.9106L27.6227 25.6721Z" fill="#FF9A6C"/>
<path d="M28.2471 18.9709C28.3925 18.7954 28.5867 18.6556 28.8112 18.5651C29.0356 18.4746 29.2827 18.4364 29.5287 18.4542C29.7075 18.4637 29.8822 18.505 30.0424 18.5754C30.2025 18.6459 30.3449 18.7442 30.4608 18.8643C30.5721 18.98 30.6411 19.1226 30.6585 19.2734C30.676 19.4242 30.6412 19.5761 30.5586 19.7091C30.4333 19.8397 30.2669 19.9347 30.0802 19.9822C29.8936 20.0296 29.6952 20.0274 29.5101 19.9757C29.13 19.8648 28.7785 19.6892 28.4755 19.459C28.3822 19.4062 28.3014 19.3379 28.2378 19.258C28.2086 19.2191 28.193 19.1734 28.193 19.1268C28.193 19.0801 28.2086 19.0345 28.2378 18.9955" fill="#FF9A6C"/>
<path d="M30.2232 17.6873C30.0927 17.6873 30.1253 18.4542 29.3983 19.0243C28.6713 19.5943 27.7392 19.5369 27.7392 19.6476C27.7392 19.6927 27.9489 19.7871 28.3451 19.7871C28.8599 19.7771 29.3546 19.6088 29.7431 19.3113C30.1063 19.029 30.3303 18.6333 30.3676 18.2081C30.3909 17.8678 30.2837 17.6832 30.2232 17.6873Z" fill="#202324"/>
<path d="M29.9948 8.71827C30.102 8.89872 30.8849 8.71827 31.8357 8.69776C32.7864 8.67726 33.5786 8.81259 33.6998 8.62805C33.7417 8.53782 33.5833 8.37378 33.2337 8.21794C32.7965 8.03913 32.3175 7.95343 31.8357 7.96778C31.3478 7.97767 30.8691 8.08717 30.4376 8.28766C30.0974 8.4599 29.9482 8.63215 29.9948 8.71827Z" fill="#202324"/>
<path d="M22.734 8.94794C22.8831 9.10378 23.4284 8.91923 24.0948 8.89052C24.7612 8.86182 25.3298 8.95614 25.451 8.7839C25.5069 8.70188 25.409 8.54193 25.1574 8.3984C24.8182 8.22775 24.4294 8.14917 24.0396 8.17252C23.6499 8.19587 23.2767 8.32011 22.967 8.52963C22.7387 8.70187 22.6688 8.87002 22.734 8.94794Z" fill="#202324"/>
<path d="M39.8606 16.0264C39.8606 16.0264 35.727 17.1009 33.5366 8.12774C32.791 5.06015 29.608 2.5462 29.608 2.5462L30.9175 2.21401C30.9175 2.21401 39.0078 4.33016 39.143 4.42038C39.2781 4.51061 41.1329 8.14004 41.1329 8.14004L39.8606 16.0264Z" fill="#202324"/>
<path d="M38.854 15.6777C38.854 15.2963 39.3201 14.3818 39.7302 14.308C40.8673 14.1152 42.9365 14.1316 43.0623 16.6866C43.2301 20.1848 39.2036 19.6148 39.1942 19.5122C39.1849 19.4097 38.9053 16.9983 38.854 15.6777Z" fill="#FFBF9D"/>
<path d="M40.3406 18.1425C40.3406 18.1425 40.4152 18.1835 40.5317 18.2245C40.6975 18.284 40.8832 18.284 41.049 18.2245C41.4637 18.0728 41.79 17.474 41.776 16.8425C41.7727 16.5423 41.6931 16.2467 41.543 15.9772C41.5 15.8694 41.4279 15.7724 41.333 15.6945C41.238 15.6166 41.1229 15.5602 40.9977 15.5301C40.9175 15.5147 40.8337 15.5242 40.7605 15.5571C40.6874 15.59 40.6296 15.6443 40.5969 15.7106C40.5503 15.8131 40.5969 15.8787 40.555 15.8869C40.513 15.8951 40.4711 15.8295 40.4944 15.686C40.5136 15.599 40.5643 15.5199 40.6389 15.4604C40.7455 15.3856 40.8803 15.3489 41.0164 15.3579C41.1804 15.3806 41.3353 15.4396 41.4665 15.5292C41.5977 15.6188 41.701 15.7363 41.7667 15.8705C41.9523 16.1672 42.0516 16.4997 42.0556 16.8384C42.0556 17.5438 41.6874 18.2204 41.1235 18.3845C41.0184 18.4167 40.9063 18.4276 40.7957 18.4162C40.6852 18.4048 40.5789 18.3716 40.4851 18.3189C40.3546 18.2286 40.3313 18.1507 40.3406 18.1425Z" fill="#FF9A6C"/>
<path d="M37.0971 14.2793C36.8975 14.2526 36.6999 14.2156 36.5052 14.1686C35.9808 14.0185 35.5026 13.7645 35.1071 13.4263C34.8308 13.1972 34.5867 12.9397 34.3801 12.6594C34.1491 12.3334 33.954 11.9887 33.7976 11.63C33.4661 10.7954 33.1938 9.94348 32.982 9.07919C32.7164 8.16465 32.4275 7.29933 32.1059 6.52833C31.8299 5.84517 31.495 5.18159 31.1039 4.54341C30.8425 4.11437 30.5449 3.70312 30.2138 3.31309C30.0973 3.16956 29.9994 3.07114 29.9342 2.99732C29.9033 2.96069 29.869 2.9264 29.8317 2.89479C29.8573 2.93527 29.8869 2.9737 29.9202 3.00962C29.9761 3.08344 30.074 3.19006 30.1812 3.3336C30.4952 3.72797 30.7816 4.13884 31.0387 4.56392C31.4185 5.20407 31.7456 5.86742 32.0174 6.54884C32.3296 7.31573 32.6139 8.18926 32.8795 9.09149C33.0933 9.96021 33.3688 10.8163 33.7044 11.6547C33.8651 12.0172 34.0665 12.3648 34.3056 12.6922C34.5202 12.9756 34.772 13.2358 35.0559 13.4673C35.4625 13.8078 35.9565 14.0568 36.4959 14.1932C36.6904 14.2476 36.893 14.2766 37.0971 14.2793Z" fill="#202324"/>
<path d="M49.0507 33.1032L40.1961 30.1627L27.6133 27.7513L17.4772 28.9324C15.3381 28.9734 11.6332 32.9268 8.81369 37.1673C6.28781 40.9649 4.29786 44.783 4.29786 44.783L16.0931 48.6626C16.7642 53.0794 17.7521 58.9152 18.605 61.2159C20.059 65.1489 20.5017 70.5459 20.5017 70.5459L48.5147 67.3306L48.9109 50.3973L58.1243 49.3393C58.1289 48.7446 54.5731 34.6124 49.0507 33.1032Z" fill="#EB0029"/>
<path d="M48.3424 39.8904C48.3427 40.0284 48.3599 40.1658 48.3936 40.3005C48.4402 40.5712 48.5055 40.9649 48.5754 41.4488C48.7543 42.7168 48.8446 43.9933 48.8457 45.271C48.8397 46.5475 48.7464 47.8225 48.5661 49.0891C48.4962 49.5771 48.4309 49.9708 48.3843 50.2415C48.3507 50.3763 48.3319 50.5136 48.3284 50.6516C48.39 50.5199 48.4338 50.3822 48.4589 50.2415C48.5335 49.9708 48.6173 49.5812 48.7059 49.0932C49.1595 46.5511 49.1595 43.9623 48.7059 41.4201C48.6173 40.9362 48.5335 40.5425 48.4635 40.2759C48.4394 40.1439 48.3987 40.0146 48.3424 39.8904Z" fill="#202324"/>
<path d="M57.7701 49.5812L48.6686 50.4465L48.813 52.6447L46.7905 50.0939L43.738 55.6672C43.738 55.6672 44.9683 58.9234 45.6347 60.7197C47.4103 65.5384 50.2484 70.9149 53.5572 70.5622C57.5418 70.1521 60.3613 65.9444 60.2308 63.2501C60.1236 60.814 57.7701 49.5812 57.7701 49.5812Z" fill="#FFBF9D"/>
<path d="M62.0343 81.5244L77.8187 86.9706L71.8163 93.3559L58.39 91.3013L62.0343 81.5244Z" fill="#FFBF9D"/>
<path d="M20.5531 70.2588C20.5531 70.2588 20.1383 86.1012 21.7881 88.8571C23.4378 91.613 39.3946 91.7278 39.3946 91.7278L64.5602 92.8515L67.4962 82.4922C67.4962 82.4922 49.1859 75.0119 47.457 74.1466C45.728 73.2812 41.6362 71.768 41.6362 71.768L35.4753 64.7962L20.5531 70.2588Z" fill="#202324"/>
<path d="M49.6239 91.9001C49.5593 91.8745 49.4922 91.8539 49.4235 91.8385L48.8457 91.6909L46.6926 91.1701L39.4552 89.4763H39.4272C39.0222 89.4729 38.6176 89.4496 38.2155 89.4066C37.435 89.3337 36.6679 89.1753 35.932 88.935C35.2437 88.7207 34.5817 88.4459 33.956 88.1148C32.1667 87.1738 30.7135 85.8097 29.7618 84.1778C29.6266 83.9481 29.5427 83.7677 29.4728 83.6364C29.4447 83.5697 29.4071 83.5063 29.361 83.4478C29.3778 83.5168 29.4028 83.5842 29.4355 83.6487C29.4915 83.7759 29.566 83.9727 29.6919 84.2106C30.0535 84.8832 30.5057 85.5152 31.0387 86.093C31.8403 86.9468 32.7978 87.6772 33.8721 88.2542C34.507 88.5945 35.1801 88.8763 35.8807 89.0949C36.25 89.2145 36.6265 89.3158 37.0085 89.3984C37.4022 89.4775 37.8005 89.5377 38.2016 89.5788C38.613 89.6217 39.0269 89.645 39.4412 89.6486L46.6973 91.289L48.8643 91.7565L49.4515 91.8754C49.5076 91.8898 49.5655 91.8981 49.6239 91.9001Z" fill="#535455"/>
<path d="M48.8736 75.0775L53.1611 52.0131C53.1611 52.0131 52.5925 35.4121 63.1853 36.6014C73.7782 37.7907 72.5059 52.3986 72.5059 52.3986C72.5059 52.3986 71.1358 72.4241 70.3855 75.3154C69.6352 78.2066 69.2577 81.4218 67.0953 82.5783L57.4811 81.2619L48.8736 75.0775Z" fill="#202324"/>
<path d="M57.1363 40.8008L54.5732 46.2511L56.1623 67.0681C56.1623 67.0681 69.817 68.0975 69.6772 67.7694C69.5374 67.4413 72.1239 57.4019 72.1239 57.4019C72.1239 57.4019 72.972 44.0776 68.9269 41.5349C64.8818 38.9923 57.1363 40.8008 57.1363 40.8008Z" fill="#202324"/>
<path d="M56.7123 67.105L56.8894 77.046L66.429 81.6515L69.0201 67.8309L56.7123 67.105Z" fill="#FFBF9D"/>
<path d="M35.4567 64.792L45.8724 61.015L52.1032 65.928L48.6453 75.7255L39.5065 72.7235L35.4567 64.792Z" fill="#202324"/>
<path d="M66.8951 82.484L66.7692 82.4184L66.3871 82.2502L64.9144 81.6187L59.4852 79.3139L51.4182 75.9346L46.6507 73.9579L44.1295 72.908L42.8386 72.3708L42.1862 72.1001C41.9701 72.0017 41.7457 71.9181 41.5151 71.8499C40.6051 71.5563 39.6497 71.3862 38.6816 71.3455C37.746 71.2949 36.8069 71.3459 35.8854 71.4973C34.1413 71.7884 32.475 72.3657 30.9735 73.1992C29.6173 73.9524 28.3994 74.8831 27.3618 75.9592C26.4633 76.8949 25.669 77.9043 24.9897 78.9735C24.0192 80.5201 23.2186 82.1446 22.5989 83.825C22.3753 84.4197 22.2215 84.8872 22.1329 85.2071L22.0211 85.568C22.0057 85.6078 21.9963 85.6491 21.9931 85.691C21.9931 85.691 21.9931 85.6541 22.0444 85.5721L22.1749 85.2153C22.2867 84.8995 22.4545 84.4402 22.6875 83.8497C23.3296 82.1775 24.1439 80.5604 25.1202 79.0186C25.8059 77.9635 26.6016 76.9667 27.4969 76.0412C28.528 74.9803 29.7364 74.0635 31.0807 73.3222C32.5633 72.5038 34.2073 71.9376 35.9274 71.6531C36.8349 71.503 37.7601 71.4534 38.6816 71.5055C39.6369 71.5454 40.5797 71.7127 41.4778 72.0017C41.7054 72.0682 41.9267 72.1505 42.1396 72.2478L42.792 72.5184L44.0829 73.0557L46.6041 74.1014L51.3716 76.0822L59.4572 79.4246L64.9144 81.6679L66.4011 82.2666L66.7925 82.4184C66.8247 82.4425 66.859 82.4645 66.8951 82.484Z" fill="#535455"/>
<path d="M47.0515 74.3926C47.0439 73.8876 47.0829 73.3829 47.168 72.8834C47.4648 71.693 47.9695 70.5503 48.6639 69.4959C49.3694 68.4353 49.9682 67.3224 50.4535 66.17C50.5863 65.814 50.686 65.4492 50.7517 65.0791C50.7821 64.9441 50.7931 64.8064 50.7844 64.669C50.7471 64.669 50.6818 65.2472 50.3183 66.129C49.7946 67.2592 49.181 68.3555 48.4822 69.4098C47.7795 70.4789 47.2878 71.6451 47.0282 72.8588C46.9637 73.2305 46.9465 73.6074 46.9769 73.9825C46.9826 74.1214 47.0077 74.2591 47.0515 74.3926Z" fill="#535455"/>
<path d="M72.1518 57.4019L72.1145 57.5085C72.1145 57.5906 72.0633 57.6972 72.0213 57.8284C71.9421 58.1237 71.8349 58.5338 71.6904 59.0587C71.4108 60.1291 71.0054 61.6793 70.53 63.5986C70.2924 64.5583 70.036 65.6081 69.789 66.7441C69.7285 67.0312 69.6632 67.3142 69.6213 67.6177C69.6186 67.6614 69.6186 67.7052 69.6213 67.7489V67.7899C69.6213 67.8104 69.6213 67.7899 69.6213 67.753V67.7284C69.6213 67.7284 69.6213 67.7284 69.598 67.7284C69.5178 67.7397 69.4368 67.7465 69.3556 67.7489H68.8383C68.144 67.7489 67.4403 67.7038 66.69 67.6669C63.7446 67.511 60.5151 67.2855 57.1224 67.0394L56.1903 66.9697L56.2789 67.0517C55.8128 61.2651 55.4214 56.0691 55.1231 52.2879C54.9693 50.4178 54.8435 48.9045 54.7549 47.8465C54.7083 47.3338 54.671 46.9319 54.6431 46.6448C54.6431 46.5136 54.6198 46.4111 54.6105 46.3332C54.6157 46.2978 54.6157 46.2619 54.6105 46.2265C54.6052 46.2619 54.6052 46.2978 54.6105 46.3332C54.6105 46.4111 54.6105 46.5177 54.6105 46.6448C54.6105 46.9319 54.6571 47.3379 54.685 47.8506C54.7596 48.9086 54.8621 50.4219 54.9926 52.2961C55.2722 56.0609 55.659 61.261 56.0878 67.0599V67.1378H56.1763L57.1084 67.2076C60.5011 67.4577 63.7353 67.6751 66.6853 67.8227C67.4216 67.8555 68.1393 67.8883 68.843 67.8965H69.365C69.4556 67.8942 69.546 67.886 69.6353 67.8719C69.6694 67.865 69.7023 67.8539 69.7331 67.8391C69.7507 67.8279 69.7637 67.8121 69.7704 67.794C69.775 67.7792 69.775 67.7637 69.7704 67.7489C69.7098 67.7489 69.7704 67.7284 69.7704 67.7489C69.7685 67.7175 69.7685 67.686 69.7704 67.6546C69.8077 67.3675 69.8729 67.0763 69.9289 66.7934C70.1712 65.6574 70.4182 64.6075 70.6465 63.6437C71.1126 61.7326 71.4854 60.1824 71.7464 59.0957L72.04 57.8653C72.0679 57.73 72.0959 57.6234 72.1099 57.5414C72.1357 57.4983 72.1501 57.4506 72.1518 57.4019Z" fill="#535455"/>
<path d="M59.5783 39.2302C59.4669 39.2953 59.3651 39.3725 59.2754 39.4598C59.0843 39.6157 58.8093 39.8699 58.5204 40.1611C56.9416 41.776 55.8091 43.6906 55.2116 45.755C55.0997 46.1651 55.0252 46.4726 54.9879 46.6982C54.9577 46.8138 54.9452 46.9324 54.9506 47.0509C54.9832 47.0509 55.0951 46.5629 55.3467 45.7878C56.0134 43.7649 57.1302 41.8788 58.6323 40.239C59.2055 39.6116 59.6063 39.2507 59.5783 39.2302Z" fill="#535455"/>
<path d="M43.985 71.7475C43.9789 71.6348 43.957 71.5232 43.9198 71.4153C43.8638 71.2061 43.7706 70.9026 43.6401 70.5335C43.2935 69.5699 42.857 68.633 42.3353 67.7325C41.811 66.8337 41.2047 65.9737 40.5224 65.1612C40.2614 64.8536 40.0564 64.6075 39.8746 64.4476C39.8 64.356 39.7105 64.2744 39.609 64.2056C39.609 64.2056 39.9119 64.6157 40.4059 65.235C41.0487 66.0621 41.6323 66.9236 42.1535 67.8145C42.6686 68.7084 43.1184 69.6303 43.5003 70.5746C43.7986 71.2963 43.9524 71.7557 43.985 71.7475Z" fill="#535455"/>
<path d="M26.8537 70.5459C26.8211 70.5459 26.6859 70.8945 26.3877 71.444C26.0068 72.1595 25.538 72.8361 24.9896 73.4617C24.4423 74.0848 23.817 74.6516 23.1255 75.1514C22.5942 75.5328 22.2354 75.7419 22.254 75.7665C22.2726 75.7911 22.3565 75.7337 22.529 75.6517C22.7661 75.5268 22.9949 75.3898 23.214 75.2416C23.9528 74.7665 24.6145 74.205 25.1807 73.5725C25.7345 72.9355 26.1891 72.2362 26.5322 71.4932C26.6357 71.2697 26.7244 71.041 26.7978 70.8083C26.8326 70.7241 26.8515 70.6355 26.8537 70.5459Z" fill="#535455"/>
<path d="M77.5858 93.5077C83.4671 93.2452 84.9491 93.4093 90.8303 93.1468C92.2657 93.0812 97.4899 93.2411 98.6876 92.5439C99.7828 91.9124 101.186 91.3136 101.484 90.194C101.95 88.2993 101.367 86.1545 99.3867 84.9693C98.693 84.5609 97.8893 84.3204 97.0565 84.2721C93.5846 84.0301 90.4109 86.2611 86.939 85.5967C86.0069 85.4204 85.1588 84.9611 84.2267 84.7765C82.8361 84.5359 81.3936 84.7394 80.1583 85.3507C78.914 85.9166 78.625 86.0109 78.625 86.0109L72.4455 84.1696L70.5208 93.6676L77.5858 93.5077Z" fill="#FAFAFA"/>
<path d="M72.3475 81.914L75.6097 82.849C75.8487 82.9188 76.0501 83.0636 76.1756 83.2557C76.3011 83.4478 76.3418 83.6738 76.2901 83.8907L73.7596 94.0777C73.7077 94.2954 73.5651 94.4882 73.3598 94.618C73.1545 94.7478 72.9014 94.8052 72.6504 94.779L69.3509 94.455C69.2096 94.4417 69.073 94.4024 68.95 94.3396C68.827 94.2769 68.7203 94.1922 68.6368 94.0909C68.5534 93.9897 68.495 93.8741 68.4655 93.7517C68.436 93.6294 68.436 93.5029 68.4655 93.3805L71.0333 82.5947C71.0612 82.4704 71.1187 82.3526 71.2021 82.2492C71.2854 82.1458 71.3926 82.0591 71.5168 81.9948C71.6409 81.9305 71.7791 81.8901 71.9223 81.8761C72.0655 81.8622 72.2104 81.8751 72.3475 81.914Z" fill="#FAFAFA"/>
<path d="M73.6804 94.4878C73.9262 93.9926 74.1272 93.4812 74.2816 92.9581C74.6125 92.0026 75.0272 90.6739 75.4001 89.1811C75.7729 87.6883 76.0199 86.3103 76.155 85.3343C76.2203 84.8381 76.2669 84.432 76.2855 84.1532C76.3125 84.0092 76.3125 83.8624 76.2855 83.7185C76.1411 84.2427 76.0321 84.7741 75.9593 85.3097C75.7729 86.2898 75.4933 87.6473 75.1298 89.1278C74.7663 90.6082 74.3701 91.9493 74.0905 92.913C73.9134 93.4292 73.7764 93.9553 73.6804 94.4878Z" fill="#202324"/>
<path d="M75.7262 85.1907C75.0194 84.6842 74.173 84.3511 73.2728 84.2251C72.3725 84.099 71.4505 84.1846 70.5999 84.473C70.5999 84.5509 71.7929 84.2516 73.233 84.473C74.673 84.6945 75.6843 85.2563 75.7262 85.1907Z" fill="#202324"/>
<path d="M75.3395 89.0375C74.4685 88.6868 73.5511 88.4333 72.6086 88.2829C71.6862 88.0508 70.7341 87.9226 69.7751 87.9015C70.6811 88.162 71.6059 88.3689 72.5433 88.5208C74.0766 88.8325 75.3162 89.1073 75.3395 89.0375Z" fill="#202324"/>
<path d="M73.8575 93.0278C73.8575 92.9499 72.5945 93.0852 71.2011 92.5603C69.8077 92.0354 69.0154 91.1783 68.9548 91.2316C68.8943 91.2849 69.0853 91.494 69.4209 91.818C69.8965 92.2323 70.4582 92.5622 71.0753 92.79C71.6941 93.0167 72.3576 93.1338 73.0279 93.1345C73.3102 93.159 73.595 93.1224 73.8575 93.0278Z" fill="#202324"/>
<path d="M56.4653 73.8677L56.7123 78.1656L66.4616 82.2831L68.0834 75.1062L56.4653 73.8677Z" fill="#FAFAFA"/>
<path d="M69.6959 72.5841L68.9642 75.5779C68.9104 75.7991 68.7653 75.9948 68.557 76.1274C68.3487 76.2599 68.092 76.3198 67.8364 76.2956L55.8315 75.1349C55.5749 75.1115 55.3373 75.0049 55.165 74.8359C54.9927 74.6669 54.8981 74.4475 54.8994 74.2204V71.2389C54.9013 71.1117 54.9332 70.9862 54.9931 70.8704C55.053 70.7546 55.1396 70.651 55.2474 70.5661C55.3552 70.4813 55.4818 70.4171 55.6193 70.3776C55.7567 70.3381 55.902 70.3242 56.0459 70.3367L68.7592 71.4809C68.907 71.4909 69.0506 71.5286 69.1805 71.5914C69.3103 71.6543 69.4234 71.7409 69.5121 71.8454C69.6009 71.9498 69.6632 72.0698 69.6949 72.1972C69.7265 72.3246 69.7269 72.4565 69.6959 72.5841Z" fill="#FAFAFA"/>
<path d="M55.3654 75.1103C55.9591 75.2826 56.5688 75.4088 57.1876 75.4876C58.3247 75.6762 59.8998 75.8977 61.6568 76.0863C63.4137 76.275 65.0075 76.3324 66.1679 76.3488C66.7458 76.3488 67.2118 76.3488 67.5381 76.3488C67.7059 76.3551 67.8739 76.3399 68.0367 76.3037C67.419 76.2277 66.7963 76.1866 66.1726 76.1807C65.0215 76.1191 63.4323 76.0166 61.6847 75.8444C59.9371 75.6721 58.3619 75.4671 57.2202 75.3194C56.6078 75.2139 55.9882 75.144 55.3654 75.1103Z" fill="#202324"/>
<path d="M66.2845 75.9428C66.8363 75.2769 67.1348 74.4745 67.1373 73.6503C67.2305 72.2724 66.62 71.2512 66.5641 71.2881C66.5081 71.325 66.9462 72.3257 66.853 73.6339C66.7598 74.9422 66.2239 75.91 66.2845 75.9428Z" fill="#202324"/>
<path d="M61.8106 76.0085C62.1237 75.1939 62.3194 74.3479 62.3931 73.4904C62.5982 72.0797 62.6122 70.9273 62.5329 70.9232C62.4537 70.9191 62.3139 72.0592 62.1135 73.4576C61.9131 74.8561 61.7314 75.9921 61.8106 76.0085Z" fill="#202324"/>
<path d="M57.0618 75.1103C57.1503 75.1103 56.866 73.9866 57.3181 72.6907C57.7701 71.3948 58.6789 70.595 58.609 70.5458C58.5391 70.4966 58.3247 70.6894 57.9892 71.0421C57.1284 71.9858 56.7203 73.188 56.8521 74.3926C56.8571 74.643 56.929 74.8888 57.0618 75.1103Z" fill="#202324"/>
<path d="M34.7623 42.3141C34.7623 42.3141 39.7442 42.9334 40.0611 43.2041C40.378 43.4747 46.7905 50.0939 46.7905 50.0939L43.738 55.6672L38.0851 53.104C37.5092 52.8917 36.9093 52.7336 36.2956 52.6324C36.2956 52.6324 30.638 51.9557 30.2372 51.3652C29.8364 50.7746 30.0601 50.6311 30.4748 50.545C30.8896 50.4588 34.273 50.7213 35.028 50.8279C35.7764 50.8785 36.5288 50.8648 37.2742 50.7869C37.2742 50.7869 34.9208 50.3481 34.3848 50.1964C33.8489 50.0446 28.5828 49.1096 28.648 48.2771C28.7133 47.4446 29.3564 47.137 32.6605 47.867C34.4907 48.285 36.3716 48.5067 38.2622 48.5272L30.9502 46.4316C30.9502 46.4316 28.0049 45.6606 28.9276 44.906C29.8504 44.1514 36.1511 45.554 36.1511 45.554L38.9473 46.4234L38.1271 44.9675C38.1271 44.9675 34.1658 44.012 33.6532 43.6757C33.0194 43.2656 32.9215 42.8555 33.3829 42.4987C33.8442 42.1419 34.7623 42.3141 34.7623 42.3141Z" fill="#FFBF9D"/>
<path d="M17.7569 35.3382C17.7535 35.5038 17.7317 35.6686 17.6917 35.8304C17.6264 36.1871 17.5425 36.6301 17.44 37.155C17.2303 38.2746 16.974 39.8248 16.699 41.539C16.4241 43.2533 16.2656 44.8199 16.1444 45.9477C16.0885 46.4767 16.0373 46.9237 16 47.2846C15.9911 47.4505 15.9645 47.6152 15.9208 47.7767C15.897 47.612 15.897 47.4453 15.9208 47.2805C15.9208 46.9606 15.9487 46.5013 15.986 45.9354C16.0652 44.7994 16.219 43.2328 16.452 41.5144C16.685 39.7961 17.0113 38.2336 17.2676 37.1304C17.3981 36.5726 17.5099 36.1215 17.5938 35.8139C17.6249 35.6499 17.6797 35.49 17.7569 35.3382Z" fill="#202324"/>
<path d="M50.6911 35.7689C50.6911 35.654 49.4515 28.9201 48.8736 26.5374L39.758 27.7677C39.6322 28.7642 39.5903 32.2378 39.6182 33.4066C39.6026 34.586 40.0449 35.7347 40.8719 36.6629C41.2931 37.1182 41.8505 37.4609 42.4813 37.6522C43.1121 37.8435 43.7911 37.8758 44.4416 37.7456C45.1435 38.6488 46.213 39.2802 47.4289 39.509C48.6406 39.6731 50.0247 39.1194 50.4115 38.0942C50.6859 37.3443 50.7811 36.5526 50.6911 35.7689Z" fill="#202324"/>
<path d="M37.414 36.6916L35.9599 48.9661C35.9363 49.1648 35.826 49.3477 35.6521 49.4763C35.4782 49.6048 35.2544 49.6689 35.0279 49.655L26.397 49.0481C26.1674 49.0324 25.9541 48.9373 25.8039 48.7836C25.6537 48.6299 25.5787 48.4301 25.5955 48.2279L26.6114 35.3218C26.6195 35.2146 26.6531 35.1101 26.7098 35.0149C26.7666 34.9197 26.8453 34.8361 26.941 34.7693C27.0366 34.7025 27.1471 34.654 27.2653 34.627C27.3835 34.5999 27.5068 34.595 27.6273 34.6124L36.6776 35.8427C36.9017 35.8722 37.1039 35.9773 37.2413 36.1358C37.3788 36.2943 37.4407 36.4936 37.414 36.6916Z" fill="#202324"/>
<path d="M30.1253 40.764C30.1253 40.764 25.1015 40.6532 24.7333 40.8747C24.3651 41.0962 16.8248 46.7105 16.8248 46.7105L18.7914 52.657C18.7914 52.657 24.2207 51.1233 24.8498 50.9428C25.4614 50.8169 26.086 50.7468 26.7139 50.7336C26.7139 50.7336 32.4228 50.8854 32.9075 50.3564C33.3921 49.8273 33.215 49.6592 32.8236 49.4992C32.4321 49.3393 29.0441 49.126 28.2798 49.126C27.5318 49.0676 26.792 48.9454 26.0708 48.761C26.0708 48.761 28.4755 48.6667 29.0301 48.5929C29.5847 48.5191 34.958 48.355 35.0512 47.5307C35.1444 46.7064 34.5852 46.3004 31.1692 46.5383C29.3058 46.6903 27.4284 46.6463 25.5768 46.407L33.1358 45.3859C33.1358 45.3859 36.1836 45.0496 35.4147 44.1556C34.6458 43.2615 28.1633 43.7454 28.1633 43.7454L25.2506 44.2007L26.3271 42.8801C26.3271 42.8801 30.4142 42.511 30.9874 42.2527C31.6911 41.9328 31.8636 41.5555 31.4534 41.1331C31.0433 40.7107 30.1253 40.764 30.1253 40.764Z" fill="#FFBF9D"/>
<path d="M6.22728 45.4187L14.6531 48.1869L14.4946 49.2162L17.0298 46.5587L19.36 51.8901C19.36 51.8901 15.4407 58.6692 14.5925 60.408C12.1645 65.4441 7.84906 68.0729 4.75462 66.9574C1.02639 65.6205 -1.10803 62.1592 0.592979 58.3206C1.60426 56.0363 6.22728 45.4187 6.22728 45.4187Z" fill="#FFBF9D"/>
<path d="M16.8248 46.7105C16.8248 46.7105 16.8947 46.649 17.0298 46.5423L17.6497 46.0707L20.0357 44.2786L23.8152 41.4693L24.3838 41.0592L24.682 40.846C24.807 40.7955 24.9411 40.7649 25.0782 40.7557C25.5955 40.7065 26.1267 40.6983 26.672 40.6901C27.7672 40.6901 28.9182 40.6901 30.1299 40.6901C30.4381 40.6816 30.7457 40.7205 31.0387 40.805C31.1954 40.8492 31.3399 40.9218 31.4628 41.0182C31.5868 41.1192 31.6798 41.2462 31.7331 41.3873C31.7633 41.4614 31.7752 41.5404 31.7679 41.6189C31.7607 41.6974 31.7345 41.7736 31.6911 41.8425C31.6021 41.9712 31.483 42.0816 31.3416 42.1665C31.1992 42.2576 31.0421 42.3295 30.8756 42.3798C30.7125 42.4208 30.554 42.4536 30.4095 42.4823C29.1186 42.6996 27.7578 42.835 26.3504 42.9703L26.4157 42.9416L25.3391 44.258L25.2506 44.1309L28.1633 43.6757C29.3843 43.5937 30.6426 43.5404 31.9241 43.5445C32.5673 43.5445 33.2197 43.5691 33.8721 43.6347C34.2044 43.6637 34.5333 43.7172 34.8555 43.7946C35.0211 43.8355 35.1784 43.8992 35.3215 43.9833C35.4023 44.0286 35.4712 44.0887 35.5235 44.1594C35.5757 44.2302 35.6101 44.3099 35.6244 44.3934C35.6243 44.4806 35.6001 44.5666 35.5538 44.6437C35.5075 44.7209 35.4406 44.787 35.3588 44.8363C35.2158 44.9297 35.059 45.0056 34.8927 45.0618C34.5743 45.1753 34.2453 45.2645 33.9094 45.3284C33.2383 45.4556 32.5626 45.5171 31.8869 45.6155L27.7672 46.165L25.5302 46.4603V46.2881C27.2482 46.4997 28.9869 46.5506 30.7171 46.4398C31.5629 46.3709 32.4125 46.3449 33.2616 46.3619C33.6901 46.3631 34.1149 46.4326 34.5153 46.5669C34.7344 46.6432 34.9126 46.7898 35.0139 46.977C35.1019 47.1609 35.1262 47.3635 35.0838 47.5594C35.051 47.6658 34.9747 47.7579 34.8694 47.8178C34.7798 47.872 34.6847 47.9186 34.5852 47.9572C34.3933 48.0281 34.1954 48.0857 33.9933 48.1294C33.6031 48.2159 33.208 48.2843 32.8096 48.3345C32.022 48.437 31.2437 48.5026 30.4794 48.556L29.3377 48.6298C28.9695 48.6544 28.5874 48.7036 28.2145 48.72C27.4736 48.761 26.7465 48.7938 26.0289 48.8225V48.6667C26.8116 48.8834 27.6231 49.0088 28.4429 49.0399C29.2538 49.0686 30.0414 49.1219 30.8103 49.1793C31.1925 49.2121 31.5746 49.2449 31.9474 49.2859C32.1338 49.3064 32.3203 49.327 32.502 49.3557C32.6001 49.3708 32.6968 49.3927 32.791 49.4213C32.8803 49.4564 32.9647 49.5004 33.0426 49.5525C33.0873 49.5816 33.1249 49.6185 33.1529 49.6608C33.181 49.7031 33.1989 49.75 33.2057 49.7986C33.2136 49.8898 33.1909 49.9811 33.1405 50.061C33.098 50.1359 33.0481 50.2072 32.9913 50.2743L32.9075 50.3686C32.8738 50.4051 32.8327 50.4357 32.7863 50.4589C32.4556 50.5804 32.1046 50.6538 31.747 50.6762C30.4658 50.7773 29.1791 50.8156 27.893 50.791H27.0215C26.7438 50.7745 26.4651 50.7745 26.1873 50.791C25.6722 50.807 25.1615 50.8814 24.6681 51.0125L20.2967 52.2428L19.1409 52.5545L18.8473 52.6324L18.7448 52.657L18.8427 52.6242L19.1363 52.534L20.2827 52.1977L24.6354 50.9428C25.7001 50.7035 26.8023 50.6204 27.8976 50.6967C29.1779 50.7157 30.4584 50.6719 31.7331 50.5655C32.0713 50.5444 32.4034 50.4752 32.7164 50.3604C32.7467 50.3459 32.7736 50.3264 32.7956 50.303L32.8748 50.2128C32.9261 50.1529 32.9699 50.0882 33.0053 50.02C33.0846 49.8847 33.0845 49.7576 32.9494 49.6755C32.8822 49.6293 32.8086 49.5907 32.7304 49.5607C32.6558 49.5402 32.5673 49.5238 32.4787 49.5074C32.3016 49.4787 32.1152 49.4582 31.9335 49.4377C31.5606 49.4021 31.1831 49.3693 30.801 49.3393C30.0367 49.2818 29.2491 49.2326 28.4429 49.2039C27.6095 49.1754 26.7839 49.0513 25.9869 48.8348C25.9647 48.8291 25.9456 48.8162 25.9336 48.7988C25.9215 48.7813 25.9173 48.7606 25.9217 48.7405C25.9273 48.7246 25.9384 48.7105 25.9534 48.7002C25.9684 48.69 25.9866 48.684 26.0056 48.6831C26.7232 48.6544 27.4503 48.6216 28.1912 48.5765C28.5641 48.5765 28.9229 48.5108 29.3097 48.4821L30.4515 48.4083C31.2158 48.3509 31.994 48.2894 32.7816 48.1828C33.1738 48.1344 33.5628 48.0673 33.9467 47.9818C34.1377 47.9402 34.3247 47.8854 34.5059 47.8178C34.6737 47.7522 34.8694 47.6537 34.8927 47.5389C34.9273 47.3803 34.9078 47.2162 34.8368 47.0673C34.7513 46.9236 34.6086 46.8126 34.436 46.7556C34.0572 46.6317 33.6565 46.5678 33.2523 46.5669C32.4108 46.5516 31.569 46.579 30.7311 46.649C28.9951 46.7662 27.2498 46.7181 25.5256 46.5054C25.5124 46.5045 25.4996 46.5011 25.488 46.4955C25.4764 46.4899 25.4663 46.4822 25.4584 46.4729C25.4504 46.4636 25.4448 46.4529 25.442 46.4415C25.4391 46.4302 25.439 46.4184 25.4417 46.407C25.4445 46.3883 25.4543 46.371 25.4694 46.3576C25.4846 46.3443 25.5043 46.3357 25.5256 46.3332L27.7625 46.0338L31.8822 45.4843C32.5579 45.3858 33.2383 45.3243 33.8908 45.2013C34.2091 45.1401 34.521 45.055 34.8228 44.947C34.9699 44.8935 35.1092 44.8247 35.2376 44.742C35.2942 44.711 35.3412 44.6682 35.3746 44.6174C35.4079 44.5666 35.4265 44.5094 35.4287 44.4508C35.4007 44.2088 35.0931 44.0653 34.7902 43.9956C34.4853 43.9199 34.1734 43.8678 33.8582 43.8397C33.2172 43.7812 32.5732 43.751 31.9288 43.7495C30.6519 43.7495 29.3983 43.7946 28.2006 43.8725L25.2832 44.3237C25.2716 44.3254 25.2596 44.3251 25.2481 44.3227C25.2366 44.3204 25.2258 44.316 25.2162 44.3099C25.2067 44.3038 25.1986 44.296 25.1925 44.2871C25.1864 44.2782 25.1824 44.2683 25.1807 44.258C25.1716 44.2383 25.1716 44.2163 25.1807 44.1965C25.5582 43.7413 25.9263 43.2861 26.2619 42.8801C26.2781 42.8623 26.3014 42.8506 26.3271 42.8473C27.7252 42.716 29.0907 42.5807 30.3676 42.3716C30.5248 42.3461 30.6804 42.3133 30.8336 42.2731C30.9772 42.2283 31.1124 42.1647 31.2344 42.0845C31.4861 41.9327 31.6771 41.699 31.5746 41.4652C31.5248 41.3479 31.4452 41.2422 31.3418 41.1562C31.2384 41.0702 31.114 41.0062 30.9781 40.969C30.7038 40.8871 30.4146 40.851 30.1253 40.8624C28.9182 40.8337 27.7625 40.8214 26.6766 40.8337C26.1314 40.8337 25.6001 40.8337 25.0921 40.8911C24.9765 40.8968 24.8629 40.9204 24.7566 40.9608L24.463 41.1658L23.8944 41.5759L20.087 44.3401L17.6683 46.0953L17.0345 46.5505C16.8947 46.6613 16.8248 46.7105 16.8248 46.7105Z" fill="#FF9A6C"/>
<path d="M16.8248 46.7105C16.8761 46.7474 14.4947 49.3884 11.5307 52.6037C8.56679 55.8189 6.10616 58.3985 6.03625 58.3657C5.96635 58.3329 8.3664 55.6918 11.3303 52.4724C14.2943 49.2531 16.7642 46.6735 16.8248 46.7105Z" fill="#FF9A6C"/>
</svg>
