<svg width="16" height="7" viewBox="0 0 16 7" fill="none" xmlns="http://www.w3.org/2000/svg">
<path d="M15.878 6.74364C15.878 6.74364 15.878 6.69639 15.878 6.61907C15.878 6.54176 15.878 6.4086 15.878 6.27115C15.878 5.94901 15.878 5.51089 15.8536 4.9525C15.8536 3.80135 15.8243 2.17343 15.8048 0.167517L15.8975 0.249129L0.11714 0.279193L0.244052 0.167517V3.55222C0.244052 4.65182 0.244052 5.69988 0.244052 6.73935L0.122026 6.63196L11.4216 6.68351L14.7066 6.70928H15.59H15.9024C15.8082 6.71531 15.7136 6.71531 15.6193 6.70928H14.7603L11.5046 6.73505L0.122026 6.7866H0V6.68351C0 5.66122 0 4.59598 0 3.49638V0.111676L0.126897 0L15.9073 0.0300638H16V0.111676C16 2.13906 15.9659 3.78417 15.9512 4.9439C15.9512 5.4937 15.9512 5.93183 15.9268 6.2325V6.56753C15.9325 6.62933 15.9154 6.6911 15.878 6.74364Z" fill="#263238"/>
</svg>
