<svg width="81" height="149" viewBox="0 0 81 149" fill="none" xmlns="http://www.w3.org/2000/svg">
<g clip-path="url(#clip0_1_271)">
<path d="M48.5891 21.704C48.5894 21.7043 48.5898 21.7046 48.5901 21.7048L56.956 27.5277C57.0522 27.5946 57.1643 27.6351 57.2811 27.6449C57.3978 27.6548 57.5152 27.6337 57.6212 27.5838L66.589 23.3594C67.4227 22.9793 67.3524 21.7728 66.4796 21.4935L40.8925 13.3073C40.7154 13.2505 40.5259 13.2442 40.3454 13.2891C40.1648 13.334 40.0004 13.4283 39.8704 13.5614C39.7405 13.6945 39.6502 13.8612 39.6097 14.0428C39.5692 14.2243 39.5801 14.4136 39.6412 14.5893L48.4445 39.9707C48.7448 40.8365 49.9536 40.8766 50.3125 40.0349L54.3176 30.9665C54.3652 30.8593 54.3837 30.7413 54.3711 30.6246C54.3586 30.5079 54.3156 30.3966 54.2463 30.3019L48.2213 22.0799C48.1845 22.0289 48.167 21.9666 48.1717 21.904C48.1764 21.8413 48.203 21.7824 48.2469 21.7374C48.2907 21.6924 48.3491 21.6644 48.4116 21.6582C48.4739 21.652 48.5363 21.6679 48.5881 21.7031C48.5884 21.7034 48.5888 21.7037 48.5891 21.704Z" fill="#F2C94C"/>
</g>
<path d="M13.7385 147.675C33.7623 135.995 67.4023 106.426 41.7719 81.597C9.73379 50.5601 -16.7977 118.641 17.7433 124.648C52.2844 130.655 106.849 87.1035 63.798 37.044" stroke="#F2C94C" stroke-width="3" stroke-linejoin="round" stroke-dasharray="8 8"/>
<defs>
<clipPath id="clip0_1_271">
<rect width="32" height="32" fill="white" transform="translate(49.4587 45.3053) scale(1.00119) rotate(-135.694)"/>
</clipPath>
</defs>
</svg>
