<svg width="85" height="154" viewBox="0 0 85 154" fill="none" xmlns="http://www.w3.org/2000/svg">
<path d="M76.7684 3.80639e-06H63.8971C62.9084 -0.000301621 61.9462 0.280682 61.1538 0.801037C60.3614 1.32139 59.7815 2.05323 59.5004 2.88737L59.2801 3.54735C58.9856 4.44218 58.3699 5.22909 57.525 5.79043C56.6801 6.35177 55.6515 6.65739 54.5929 6.66158H30.0736C29.0112 6.66117 27.9776 6.35736 27.1281 5.79578C26.2787 5.23421 25.6592 4.44521 25.3629 3.54735L25.1473 2.88737C24.8661 2.05255 24.2854 1.32022 23.4921 0.799802C22.6988 0.279382 21.7354 -0.00119197 20.7459 3.80639e-06H9.06991C6.66442 3.80639e-06 4.35746 0.840911 2.65653 2.33774C0.955589 3.83456 0 5.86469 0 7.98152V146.493C0 148.484 0.898786 150.393 2.49863 151.801C4.09848 153.209 6.26835 154 8.53087 154H76.9231C77.9373 154.001 78.9417 153.825 79.8789 153.484C80.816 153.143 81.6676 152.643 82.385 152.012C83.1023 151.381 83.6714 150.632 84.0597 149.807C84.4479 148.983 84.6478 148.099 84.6478 147.206V6.93382C84.6465 5.09519 83.816 3.33218 82.3386 2.03208C80.8612 0.731972 78.8578 0.0010966 76.7684 3.80639e-06Z" fill="white"/>
</svg>
