<svg width="4" height="2" viewBox="0 0 4 2" fill="none" xmlns="http://www.w3.org/2000/svg">
<path d="M3.53975 1.86369H0.23991C0.177124 1.8637 0.116838 1.84205 0.0719864 1.80339C0.0271346 1.76472 0.00128135 1.71213 5.208e-09 1.65689V0.213573C-1.30711e-05 0.158321 0.0245985 0.105267 0.068535 0.0657974C0.112471 0.0263279 0.172236 0.00359016 0.235009 0.00246257H3.53975C3.5542 -0.000820858 3.56936 -0.000820858 3.58381 0.00246257C3.58952 0.0148983 3.58952 0.0288025 3.58381 0.0412382V0.515161H3.93631C3.95238 0.515119 3.96787 0.520425 3.97967 0.530014C3.99148 0.539603 3.99873 0.552766 3.99996 0.566862V1.26482C3.99999 1.27199 3.99833 1.27909 3.99508 1.28566C3.99182 1.29223 3.98705 1.29813 3.98106 1.30299C3.97508 1.30785 3.96801 1.31157 3.96031 1.3139C3.95261 1.31623 3.94443 1.31712 3.93631 1.31652H3.58381V1.79476C3.58681 1.80181 3.58804 1.80936 3.58738 1.81687C3.58672 1.82438 3.5842 1.83168 3.58 1.83824C3.5758 1.84481 3.57002 1.85049 3.56307 1.85488C3.55612 1.85928 3.54816 1.86229 3.53975 1.86369ZM3.481 0.110173H0.235009C0.2198 0.11016 0.204745 0.112859 0.190753 0.118106C0.176762 0.123353 0.164133 0.13104 0.15361 0.140703C0.143087 0.150366 0.134887 0.161803 0.129525 0.174327C0.124162 0.186852 0.121736 0.200202 0.122398 0.213573V1.65689C0.122383 1.67027 0.125459 1.68352 0.131422 1.69583C0.137385 1.70814 0.14611 1.71927 0.157091 1.72853C0.168072 1.73779 0.181078 1.74499 0.19531 1.74971C0.209543 1.75443 0.224715 1.75656 0.23991 1.75598H3.481V1.28206C3.481 1.26834 3.48719 1.25519 3.49821 1.2455C3.50923 1.2358 3.52417 1.23036 3.53975 1.23036H3.89225V0.640105H3.53975C3.5316 0.64013 3.52355 0.638664 3.51608 0.635801C3.50861 0.632938 3.5019 0.62874 3.49637 0.623473C3.49085 0.618206 3.48663 0.611985 3.48399 0.605207C3.48134 0.598428 3.48032 0.591238 3.481 0.584096V0.110173Z" fill="#263238"/>
</svg>
