<svg width="27" height="26" viewBox="0 0 27 26" fill="none" xmlns="http://www.w3.org/2000/svg">
<path d="M1.79965 13.4511C1.83775 12.9765 2.05322 12.5336 2.40317 12.2107C2.75311 11.8878 3.21185 11.7085 3.68802 11.7086H15.1073C15.5834 11.7085 16.0422 11.8878 16.3921 12.2107C16.7421 12.5336 16.9575 12.9765 16.9956 13.4511L17.7561 22.9214C17.777 23.182 17.7437 23.4441 17.6584 23.6913C17.573 23.9384 17.4374 24.1652 17.2601 24.3573C17.0828 24.5495 16.8677 24.7028 16.6282 24.8078C16.3887 24.9127 16.1301 24.9669 15.8687 24.967H2.92661C2.66516 24.9669 2.40655 24.9127 2.16708 24.8078C1.9276 24.7028 1.71244 24.5495 1.53514 24.3573C1.35785 24.1652 1.22225 23.9384 1.1369 23.6913C1.05154 23.4441 1.01827 23.182 1.03919 22.9214L1.79965 13.4511V13.4511Z" stroke="black" stroke-width="2" stroke-linecap="round" stroke-linejoin="round"/>
<path d="M13.1857 14.5497V9.81455C13.1857 8.80988 12.7866 7.84636 12.0762 7.13596C11.3658 6.42555 10.4023 6.02644 9.39762 6.02644C8.39295 6.02644 7.42943 6.42555 6.71902 7.13596C6.00862 7.84636 5.60951 8.80988 5.60951 9.81455V14.5497" stroke="black" stroke-width="2" stroke-linecap="round" stroke-linejoin="round"/>
<path d="M17.6627 1.74339C16.1685 1.74339 14.7079 2.18646 13.4655 3.01658C12.2231 3.8467 11.2548 5.02658 10.683 6.40702C10.1112 7.78746 9.96164 9.30645 10.2531 10.7719C10.5446 12.2374 11.2641 13.5835 12.3207 14.64C13.3772 15.6966 14.7233 16.4161 16.1888 16.7076C17.6543 16.9991 19.1733 16.8495 20.5537 16.2777C21.9341 15.7059 23.114 14.7376 23.9441 13.4952C24.7743 12.2529 25.2173 10.7922 25.2173 9.29807C25.2151 7.29514 24.4184 5.3749 23.0021 3.95861C21.5858 2.54232 19.6656 1.74566 17.6627 1.74339ZM19.6966 12.7848C19.6966 12.939 19.6354 13.0868 19.5264 13.1958C19.4174 13.3048 19.2696 13.366 19.1155 13.366C18.9614 13.366 18.8135 13.3048 18.7046 13.1958C18.5956 13.0868 18.5344 12.939 18.5344 12.7848V11.0415H15.6287C15.5358 11.0415 15.4442 11.0192 15.3616 10.9765C15.2791 10.9337 15.208 10.8719 15.1543 10.796C15.1006 10.7201 15.0659 10.6325 15.0531 10.5404C15.0403 10.4484 15.0498 10.3546 15.0807 10.267L16.8239 5.32736C16.849 5.25501 16.8882 5.18834 16.9391 5.13117C16.9901 5.074 17.0518 5.02747 17.1208 4.99424C17.1898 4.96101 17.2647 4.94175 17.3411 4.93755C17.4176 4.93336 17.4941 4.94431 17.5664 4.9698C17.6386 4.99528 17.705 5.03478 17.7619 5.08603C17.8188 5.13728 17.865 5.19927 17.8979 5.26844C17.9307 5.33761 17.9496 5.41259 17.9534 5.48907C17.9572 5.56555 17.9458 5.64203 17.92 5.7141L16.4501 9.8792H18.5344V8.13581C18.5344 7.98169 18.5956 7.83388 18.7046 7.72489C18.8135 7.61591 18.9614 7.55468 19.1155 7.55468C19.2696 7.55468 19.4174 7.61591 19.5264 7.72489C19.6354 7.83388 19.6966 7.98169 19.6966 8.13581V12.7848Z" fill="#EB0029"/>
</svg>
