<svg width="63" height="17" viewBox="0 0 63 17" fill="none" xmlns="http://www.w3.org/2000/svg">
<path d="M53.7155 16.3367H9.27985C8.0612 16.3367 6.85449 16.1255 5.7286 15.7151C4.60272 15.3047 3.57973 14.7031 2.71801 13.9448C1.8563 13.1865 1.17275 12.2863 0.706397 11.2955C0.240041 10.3047 0 9.24282 0 8.17041C-3.18111e-07 6.0042 0.977553 3.92666 2.71773 2.39453C4.4579 0.862395 6.81825 0.00110128 9.27985 0H53.7155C56.1779 0 58.5395 0.860806 60.2807 2.39306C62.0219 3.92531 63.0001 6.00348 63.0001 8.17041C62.9988 10.3366 62.0201 12.4137 60.279 13.9451C58.538 15.4764 56.1771 16.3367 53.7155 16.3367Z" fill="#EB0029"/>
</svg>
