<svg width="32" height="19" viewBox="0 0 32 19" fill="none" xmlns="http://www.w3.org/2000/svg">
<path d="M7.68048 1.61108L9.11707 3.08471L10.6135 4.5816C11.6112 5.57177 12.6088 6.5387 13.6363 7.46844C14.1352 7.93331 14.634 8.39817 15.1677 8.80726C15.7014 9.21635 16.1653 9.65333 16.6891 10.0299C17.2129 10.4064 17.6867 10.7411 18.1506 11.0293C18.4999 11.2477 18.8668 11.4404 19.248 11.6058L18.4848 11.4942C18.2585 11.4688 18.0297 11.5164 17.8364 11.629C17.8364 11.629 17.9561 11.629 18.1257 11.536C18.5889 11.2716 19.0188 10.9598 19.4077 10.6063C20.4291 9.70185 21.384 8.73427 22.2659 7.71017C23.2186 6.64562 24.1464 5.51134 25.0692 4.36311C25.992 3.21488 26.9148 2.03876 27.8227 0.881237L27.8676 0.830101C28.1856 0.439119 28.6406 0.164451 29.1535 0.0539115C29.6664 -0.0566274 30.2047 0.00396348 30.6746 0.225138C31.1445 0.446312 31.5163 0.81406 31.7253 1.26436C31.9342 1.71467 31.9671 2.21901 31.8182 2.68958C31.3131 4.15876 30.7288 5.60325 30.0674 7.01752C29.4139 8.41212 28.6906 9.80673 27.8726 11.2013C27.0238 12.6518 26.0425 14.0314 24.9395 15.3247C24.2816 16.0893 23.5393 16.7874 22.7248 17.4074C22.185 17.8141 21.5936 18.1576 20.964 18.4301C20.039 18.8318 19.026 19.026 18.006 18.9972C17.8178 18.9906 17.6307 18.9673 17.4473 18.9275L17.2378 18.8856C16.145 18.6416 15.0881 18.2748 14.0903 17.7932C13.2545 17.3964 12.4465 16.9508 11.671 16.459C10.2488 15.5669 8.89226 14.5869 7.61065 13.5257C6.35363 12.5076 5.1864 11.4431 4.05409 10.3599C3.49541 9.81138 2.93674 9.26284 2.403 8.6957C1.86927 8.12855 1.35548 7.57536 0.791821 6.92919C0.162704 6.07774 -0.105873 5.03936 0.0378568 4.01428C0.181587 2.98921 0.727446 2.05002 1.5702 1.37781C2.41296 0.705595 3.49292 0.347964 4.60186 0.373871C5.71079 0.399778 6.77017 0.807387 7.57573 1.51811L7.68048 1.61108Z" fill="#E0E0E0"/>
</svg>
