<svg width="5" height="4" viewBox="0 0 5 4" fill="none" xmlns="http://www.w3.org/2000/svg">
<path d="M1.16972 3.73939C0.815009 3.57569 0.518394 3.32916 0.312421 3.02687C0.104103 2.71681 -0.00386733 2.36251 0.000194804 2.00233C-0.00523237 1.642 0.102835 1.2874 0.312421 0.977809C0.516533 0.67303 0.813499 0.424599 1.16972 0.260633C1.55159 0.0893142 1.97412 0 2.40275 0C2.83138 0 3.25393 0.0893142 3.6358 0.260633C3.90237 0.389333 4.13676 0.563946 4.32501 0.774067C4.51326 0.984188 4.6515 1.22551 4.73151 1.48365C4.81151 1.7418 4.83164 2.01148 4.79068 2.27661C4.74972 2.54174 4.64851 2.79689 4.4931 3.02687C4.28565 3.32812 3.98941 3.57433 3.6358 3.73939C3.25393 3.9107 2.83138 4.00002 2.40275 4.00002C1.97412 4.00002 1.55159 3.9107 1.16972 3.73939ZM3.1066 3.08275C3.31544 2.97983 3.48627 2.82626 3.59875 2.64033C3.71478 2.44233 3.77532 2.22278 3.77532 2C3.77532 1.77722 3.71478 1.55767 3.59875 1.35967C3.48594 1.17515 3.31506 1.02317 3.1066 0.921928C2.89081 0.817986 2.64875 0.763493 2.40275 0.763493C2.15675 0.763493 1.91471 0.817986 1.69892 0.921928C1.49271 1.02577 1.32257 1.1771 1.20677 1.35967C1.09074 1.55767 1.03019 1.77722 1.03019 2C1.03019 2.22278 1.09074 2.44233 1.20677 2.64033C1.32244 2.82419 1.4925 2.97707 1.69892 3.08275C1.91587 3.18349 2.15746 3.23614 2.40275 3.23614C2.64805 3.23614 2.88965 3.18349 3.1066 3.08275Z" fill="#263238"/>
</svg>
