<svg width="4" height="4" viewBox="0 0 4 4" fill="none" xmlns="http://www.w3.org/2000/svg">
<path d="M0 0.000459774H1.80609C2.20149 -0.00656663 2.59336 0.0670255 2.95105 0.215469C3.26969 0.35159 3.53735 0.56518 3.72236 0.830971C3.90429 1.11081 3.99999 1.42761 3.99999 1.75001C3.99999 2.07241 3.90429 2.38921 3.72236 2.66905C3.53855 2.93468 3.27043 3.14718 2.95105 3.28034C2.59451 3.43218 2.20209 3.50731 1.80609 3.49956H0V0.000459774ZM1.75818 2.83347C2.1085 2.85051 2.45246 2.74608 2.71632 2.54258C2.94395 2.32727 3.0705 2.04409 3.0705 1.75001C3.0705 1.45593 2.94395 1.17275 2.71632 0.957439C2.45294 0.752812 2.10908 0.646913 1.75818 0.662342H0.919815V2.83347H1.75818Z" fill="white"/>
</svg>
