<svg width="6" height="1" viewBox="0 0 6 1" fill="none" xmlns="http://www.w3.org/2000/svg">
<path d="M0.00278644 0.436702C0.00278644 0.436702 0.00278389 0.390852 0.0653091 0.345C0.164241 0.283891 0.27573 0.240288 0.393569 0.216616C0.824053 0.121552 1.26359 0.0616835 1.70659 0.037787C2.36206 -0.00319988 3.01966 -0.010849 3.67613 0.0148667C4.04607 0.0148667 4.43165 0.0515447 4.83285 0.0973965C5.03085 0.124908 5.23406 0.152422 5.44248 0.193688C5.5453 0.214897 5.64628 0.242474 5.74468 0.276218C5.79576 0.292985 5.84467 0.314504 5.89057 0.34041C5.91943 0.352201 5.94452 0.370097 5.96362 0.392499C5.98271 0.414901 5.9952 0.441111 5.99998 0.468795C5.99556 0.497165 5.98327 0.524144 5.96419 0.547337C5.9451 0.570529 5.91982 0.589224 5.89057 0.601769C5.84514 0.627221 5.79608 0.64726 5.74468 0.661372C5.64497 0.695162 5.54211 0.72125 5.43726 0.739326C5.23406 0.780592 5.03084 0.808102 4.82763 0.831028C4.42643 0.872295 4.03566 0.890633 3.66572 0.899803C3.0105 0.921204 2.35439 0.905894 1.70138 0.853955C1.2596 0.828283 0.821663 0.765328 0.393569 0.665961C0.274879 0.63803 0.162211 0.593103 0.0600935 0.532987C-0.00764206 0.487135 -0.00242399 0.436702 0.00278644 0.436702C0.00571832 0.454825 0.013349 0.472109 0.0250955 0.487217C0.036842 0.502324 0.0523913 0.514852 0.0705246 0.523822C0.172085 0.578596 0.28287 0.618833 0.398768 0.643034C0.828232 0.733968 1.26579 0.792263 1.70659 0.817273C2.35848 0.859454 3.0125 0.870166 3.66572 0.849366C4.03566 0.849366 4.42123 0.817268 4.82244 0.776001C5.0238 0.754356 5.22379 0.72375 5.42163 0.684299C5.5227 0.666865 5.62202 0.64233 5.71863 0.610934L5.85931 0.551332C5.90099 0.551332 5.93746 0.500891 5.93746 0.468795C5.93746 0.436699 5.90099 0.409191 5.85931 0.386265C5.81577 0.363666 5.7705 0.343747 5.72383 0.326655C5.62483 0.294559 5.52584 0.271634 5.42685 0.248708C5.22364 0.207442 5.02564 0.179928 4.82244 0.152416C4.42644 0.106565 4.04086 0.0836446 3.67092 0.0653039C3.01834 0.0347109 2.36438 0.0347109 1.71181 0.0653039C1.2715 0.0832206 0.833844 0.135388 0.403984 0.221198C0.286517 0.245594 0.174044 0.285804 0.0705246 0.34041C0.0513442 0.350561 0.0351907 0.364593 0.02341 0.38134C0.0116292 0.398086 0.00455873 0.417068 0.00278644 0.436702Z" fill="#263238"/>
</svg>
