<svg width="65" height="65" viewBox="0 0 65 65" fill="none" xmlns="http://www.w3.org/2000/svg">
<g clip-path="url(#clip0_1_269)">
<path d="M39.727 52.3562C28.7604 56.3477 16.6352 50.6936 12.6437 39.7271C8.65221 28.7605 14.3063 16.6353 25.2729 12.6437C36.2395 8.65223 48.3647 14.3063 52.3562 25.2729C56.3477 36.2395 50.6936 48.3647 39.727 52.3562ZM38.2816 48.385C42.4946 46.8516 45.9258 43.7074 47.8206 39.6441C49.7153 35.5808 49.9183 30.9313 48.3849 26.7183C46.8515 22.5054 43.7074 19.0741 39.6441 17.1793C35.5808 15.2846 30.9313 15.0816 26.7183 16.615C22.5053 18.1484 19.0741 21.2926 17.1793 25.3558C15.2846 29.4191 15.0816 34.0687 16.615 38.2816C18.1484 42.4946 21.2925 45.9259 25.3558 47.8206C29.4191 49.7154 34.0687 49.9184 38.2816 48.385ZM34.4856 31.7773L42.4281 28.8864L43.8735 32.8577L31.9597 37.1939L26.9008 23.2946L30.872 21.8491L34.4856 31.7773Z" fill="white"/>
</g>
<defs>
<clipPath id="clip0_1_269">
<rect width="50" height="50" fill="white" transform="translate(0 17.3451) scale(1.01427) rotate(-20)"/>
</clipPath>
</defs>
</svg>
