<svg width="77" height="23" viewBox="0 0 77 23" fill="none" xmlns="http://www.w3.org/2000/svg">
<path d="M0.103306 0.0785132H0.47427H1.55428H5.83675L21.8491 0.0454547L76.8827 0H77.0001V0.103305C77.0001 7.25617 77.0001 14.9049 77.0001 22.7892V22.8966H76.878L0.0798189 22.8594H0V22.7561C0 15.6322 0.0328728 9.94625 0.0469599 6.0537C0.0469599 4.11156 0.0469599 2.61569 0.0469599 1.59504C0.0469599 1.09504 0.0469599 0.71074 0.0469599 0.45041C0.0469599 0.190081 0.0469599 0.0661138 0.0469599 0.0661138C0.0469599 0.0661138 0.0469599 0.202477 0.0469599 0.479336C0.0469599 0.756194 0.0469599 1.13223 0.0469599 1.64049C0.0469599 2.66115 0.0469599 4.16528 0.0469599 6.11155C0.0469599 10.0041 0.075137 15.6652 0.0939198 22.7727L0.00938624 22.6983L76.8076 22.6652L76.6855 22.7727V0.0785132L76.8076 0.181819L21.8679 0.136364L5.82267 0.103305H1.5214H0.403823L0.103306 0.0785132Z" fill="#263238"/>
</svg>
