<svg width="17" height="7" viewBox="0 0 17 7" fill="none" xmlns="http://www.w3.org/2000/svg">
<path d="M17 0.0344113H16.6627H15.6851H12.1268L0.0928705 0.081726L0.136859 0.0172024C0.6843 1.07102 1.26596 2.16786 1.88672 3.2647C2.04802 3.54858 2.21421 3.82817 2.37551 4.12496C2.53216 4.40165 2.72225 4.66267 2.94249 4.9035C3.38301 5.37117 3.92889 5.75342 4.5457 6.02614C5.7073 6.55826 6.9906 6.85235 8.29959 6.8864C9.48372 6.9352 10.6662 6.76371 11.77 6.38314C12.728 6.04594 13.5773 5.50683 14.2432 4.81317C15.1735 3.7807 15.9186 2.62893 16.4525 1.39793C16.6432 0.967796 16.7702 0.615088 16.8533 0.382817L16.9706 0.0215079C16.8492 0.495135 16.6858 0.959662 16.4819 1.41083C15.9566 2.64981 15.2181 3.81038 14.2921 4.85188C13.6204 5.55852 12.7608 6.10816 11.7895 6.45197C10.6763 6.84127 9.48154 7.01724 8.28493 6.96813C6.96102 6.93976 5.66199 6.64551 4.48705 6.10787C3.85903 5.82963 3.30321 5.44009 2.85451 4.96371C2.63151 4.71738 2.43668 4.45228 2.27285 4.17227C2.10666 3.89269 1.94048 3.6088 1.78407 3.31201C1.15842 2.21087 0.581654 1.11834 0.029326 0.0645171L0 0H16.9658L17 0.0344113Z" fill="#263238"/>
</svg>
