<svg width="5" height="9" viewBox="0 0 5 9" fill="none" xmlns="http://www.w3.org/2000/svg">
<path d="M0.232384 8.97014C0.145977 8.94261 0.0752023 8.88645 0.035175 8.81366C-0.00485233 8.74086 -0.0109703 8.65718 0.018116 8.58047L3.05112 0.225567C3.06473 0.183281 3.0884 0.144026 3.12056 0.110401C3.15272 0.0767767 3.19264 0.0495523 3.23766 0.0305341C3.28268 0.0115159 3.33179 0.00113782 3.38172 8.84058e-05C3.43164 -0.000961004 3.48125 0.00734257 3.52726 0.0244475L4.00339 0.175288C4.04933 0.189605 4.09146 0.21204 4.12717 0.241218C4.16288 0.270396 4.19141 0.305698 4.21104 0.344949C4.23066 0.384199 4.24095 0.426571 4.24127 0.469452C4.24159 0.512333 4.23193 0.554817 4.2129 0.59429L0.713274 8.79835C0.696211 8.83858 0.66985 8.87524 0.635841 8.90603C0.601832 8.93682 0.560925 8.96106 0.515716 8.97721C0.470507 8.99336 0.421973 9.00107 0.3732 8.99985C0.324428 8.99863 0.276481 8.98852 0.232384 8.97014Z" fill="#844031"/>
</svg>
