<svg width="4" height="3" viewBox="0 0 4 3" fill="none" xmlns="http://www.w3.org/2000/svg">
<path d="M0.880262 2.78231C0.613877 2.66203 0.38961 2.48034 0.23142 2.25664C0.0797408 2.02184 0 1.75638 0 1.48628C0 1.21618 0.0797408 0.950721 0.23142 0.715912C0.38961 0.492215 0.613877 0.310529 0.880262 0.190252C1.16947 0.0650875 1.48746 0 1.80974 0C2.13203 0 2.45002 0.0650875 2.73923 0.190252C3.00803 0.316227 3.2311 0.506248 3.38291 0.738571C3.53459 0.97338 3.61435 1.23884 3.61435 1.50894C3.61435 1.77903 3.53459 2.04449 3.38291 2.2793C3.22876 2.50266 3.00789 2.68448 2.74438 2.80496C2.45621 2.93319 2.13782 3.00001 1.8149 3.00001C1.49198 3.00001 1.17359 2.93319 0.885417 2.80496L0.880262 2.78231ZM2.42511 2.07085C2.58195 1.90733 2.66799 1.70026 2.66799 1.48628C2.66799 1.2723 2.58195 1.06523 2.42511 0.901708C2.34889 0.830106 2.25617 0.77366 2.15315 0.736148C2.05013 0.698635 1.9392 0.680919 1.82777 0.684191C1.71484 0.681069 1.60241 0.698814 1.49775 0.736279C1.39309 0.773744 1.29852 0.830099 1.22013 0.901708C1.0633 1.06523 0.977256 1.2723 0.977256 1.48628C0.977256 1.70026 1.0633 1.90733 1.22013 2.07085C1.29852 2.14246 1.39309 2.19882 1.49775 2.23628C1.60241 2.27375 1.71484 2.29149 1.82777 2.28837C1.9392 2.29164 2.05013 2.27393 2.15315 2.23641C2.25617 2.1989 2.34889 2.14245 2.42511 2.07085Z" fill="#263238"/>
</svg>
