<svg width="2" height="2" viewBox="0 0 2 2" fill="none" xmlns="http://www.w3.org/2000/svg">
<path d="M0.279679 1.73777C0.240008 1.74811 0.198062 1.74811 0.158391 1.73777C0.127515 1.72712 0.099283 1.71073 0.0754236 1.68959C0.0515641 1.66845 0.0325869 1.64301 0.0196183 1.6148C0.00664967 1.5866 -2.79538e-05 1.55624 8.79527e-08 1.52555C2.81297e-05 1.49487 0.00675678 1.46452 0.0197769 1.43634C0.15834 1.09074 0.382947 0.780736 0.675145 0.531819C0.967343 0.282902 1.31879 0.102184 1.70055 0.00453129C1.76565 -0.00760321 1.83325 0.00486204 1.8885 0.0391836C1.94374 0.0735052 1.98208 0.126874 1.9951 0.187546C2.00812 0.248219 1.99475 0.311227 1.95793 0.362709C1.9211 0.414192 1.86383 0.449928 1.79872 0.462063C1.49652 0.541779 1.21899 0.687316 0.989019 0.886662C0.759047 1.08601 0.583237 1.33345 0.476072 1.60859C0.457748 1.64385 0.430113 1.6742 0.395766 1.69679C0.361419 1.71939 0.321469 1.73349 0.279679 1.73777Z" fill="#263238"/>
</svg>
