<svg width="4" height="5" viewBox="0 0 4 5" fill="none" xmlns="http://www.w3.org/2000/svg">
<path d="M3.15146 4.0188C2.86245 4.24652 2.4949 4.38222 2.10777 4.40411V4.99998H1.50191V4.42203C1.21287 4.40825 0.927076 4.36156 0.651674 4.28313C0.417593 4.22065 0.197246 4.12371 0 3.9964L0.330926 3.34676C0.497065 3.45152 0.678616 3.53592 0.870593 3.59765C1.07364 3.66514 1.28591 3.70883 1.50191 3.72758V2.83153C1.25451 2.78367 1.01253 2.7162 0.778955 2.62993C0.579892 2.5616 0.404443 2.44889 0.269834 2.30286C0.131906 2.13865 0.0618615 1.93791 0.0712844 1.73387C0.0693721 1.5922 0.100965 1.45171 0.164072 1.32136C0.227179 1.191 0.32042 1.07364 0.437852 0.976708C0.72711 0.746535 1.09727 0.61054 1.48664 0.591398V0H2.0925V0.582442C2.5255 0.599074 2.94705 0.709907 3.31946 0.905022L3.01908 1.55914C2.73496 1.41193 2.41965 1.3174 2.0925 1.28136V2.17742C2.33767 2.22322 2.57785 2.28767 2.81034 2.37006C3.00862 2.43749 3.18391 2.54856 3.31946 2.69264C3.45739 2.85686 3.52745 3.0576 3.51803 3.26163C3.52187 3.40355 3.49114 3.54455 3.42791 3.67515C3.36469 3.80575 3.27042 3.92292 3.15146 4.0188ZM1.17097 1.91308C1.26961 1.9794 1.38204 2.02809 1.50191 2.05644V1.30376C1.37584 1.32295 1.25898 1.37437 1.16589 1.45161C1.09715 1.51767 1.05902 1.60397 1.05898 1.69354C1.05549 1.73416 1.06236 1.77496 1.0791 1.81294C1.09584 1.85093 1.122 1.88515 1.1557 1.91308H1.17097ZM2.4336 3.5663C2.469 3.53695 2.4972 3.50153 2.51646 3.46224C2.53572 3.42294 2.54564 3.3806 2.54561 3.3378C2.54613 3.29625 2.53639 3.2551 2.51705 3.2172C2.49771 3.17929 2.46923 3.14554 2.4336 3.11827C2.33485 3.05371 2.2248 3.00377 2.10777 2.97042V3.70519C2.22336 3.68372 2.33048 3.63581 2.41833 3.5663H2.4336Z" fill="#263238"/>
</svg>
