<svg width="40" height="40" viewBox="0 0 40 40" fill="none" xmlns="http://www.w3.org/2000/svg">
<path d="M2.54278 0H36.8075C37.4575 0 38.0809 0.227225 38.5405 0.631688C39.0001 1.03615 39.2583 1.58472 39.2583 2.15672V32.3097C39.2583 32.8817 39.0001 33.4303 38.5405 33.8347C38.0809 34.2392 37.4575 34.4664 36.8075 34.4664H11.2864C8.95224 36.2082 4.49409 39.7165 4.49409 39.7165L4.16265 34.4664H2.54278C1.89359 34.4653 1.27141 34.2376 0.812799 33.8333C0.354191 33.4289 0.0966234 32.881 0.0966246 32.3097V2.15672C0.0966234 1.58543 0.354191 1.03748 0.812799 0.633139C1.27141 0.228794 1.89359 0.00108816 2.54278 0Z" fill="white"/>
<path d="M2.54289 0C2.27655 0.0168145 2.01334 0.060932 1.75863 0.131457C1.39343 0.24789 1.06452 0.438351 0.798513 0.687427C0.532504 0.936502 0.336872 1.23719 0.227451 1.56516C0.126574 2.05696 0.0967715 2.558 0.138753 3.05638C0.138753 3.61507 0.138753 4.21895 0.138753 4.87213C0.138753 6.1826 0.138753 7.68614 0.138753 9.36632C0.138753 12.7308 0.138759 16.8101 0.166769 21.4768C0.166769 23.8102 0.166769 26.2914 0.166769 28.9041V30.8883C0.166769 31.2211 0.166769 31.5579 0.166769 31.8948C0.143066 32.227 0.174517 32.5606 0.260132 32.8848C0.365196 33.2054 0.557394 33.4985 0.820111 33.739C1.08283 33.9795 1.40815 34.1601 1.76797 34.2651C2.14028 34.3615 2.52937 34.3977 2.91635 34.3719H4.23279V34.4582C4.34016 36.1014 4.45219 37.8884 4.5689 39.7124L4.38217 39.6426L11.2118 34.4048L11.2445 34.3802H32.8583C34.2588 34.3802 35.6266 34.3802 36.9757 34.3802C37.4624 34.3482 37.9254 34.1828 38.2997 33.9072C38.6741 33.6316 38.9408 33.2597 39.0624 32.8437C39.13 32.5617 39.1551 32.273 39.1371 31.9852V24.9563C39.1371 20.3635 39.1371 15.9186 39.1371 11.712C39.1371 9.60048 39.1371 7.54646 39.1371 5.54996C39.1371 4.5517 39.1371 3.56578 39.1371 2.59628C39.1436 2.35919 39.1358 2.12195 39.1138 1.88559C39.0787 1.65776 38.9998 1.43687 38.8803 1.23241C38.6452 0.825103 38.2625 0.498406 37.7926 0.303994C37.5616 0.206504 37.3141 0.142684 37.0597 0.115025C36.8123 0.115025 36.5462 0.115025 36.2848 0.115025H31.7006H26.0054L8.82632 0.0821595L26.0054 0.0492976H31.7006H36.2848C36.5462 0.0492976 36.8076 0.0492976 37.0831 0.0492976C37.4998 0.0935143 37.898 0.226656 38.243 0.437146C38.5879 0.647636 38.8692 0.929099 39.0624 1.25706C39.1923 1.4794 39.2776 1.71984 39.3145 1.96775C39.3445 2.21192 39.3539 2.4577 39.3425 2.70309C39.3425 3.67259 39.3425 4.65851 39.3425 5.65676C39.3425 7.65601 39.3425 9.71003 39.3425 11.8188C39.3425 16.0378 39.3425 20.4703 39.3425 25.0631C39.3425 27.3581 39.3425 29.686 39.3425 32.0468C39.3605 32.3527 39.3322 32.6594 39.2585 32.9588C39.1702 33.2585 39.0112 33.5384 38.7916 33.7804C38.5722 34.0298 38.2953 34.2356 37.9791 34.3843C37.6629 34.5329 37.3146 34.6211 36.957 34.6431C35.5566 34.6431 34.2075 34.6431 32.821 34.6431H11.2865L11.3658 34.6184C9.03172 36.4301 6.69761 38.2006 4.5689 39.8644L4.39618 39.9999V39.7945C4.28414 37.9706 4.1721 36.1877 4.0694 34.5445L4.17677 34.6349H2.96303C2.5521 34.6583 2.13968 34.618 1.74462 34.5157C1.35431 34.3982 1.00177 34.1999 0.71664 33.9376C0.431507 33.6752 0.222119 33.3564 0.106079 33.0081C0.0161603 32.6677 -0.0168679 32.3175 0.00804356 31.9687V28.9781C0.00804356 26.3654 0.00804356 23.8841 0.00804356 21.5508C0.00804356 16.884 0.00804499 12.8047 0.0313861 9.44027C0.0313861 7.76008 0.0313861 6.25654 0.0313861 4.94608C0.0313861 4.2929 0.0313861 3.68902 0.0313861 3.13032C-0.00670494 2.6258 0.0293811 2.11906 0.138753 1.62267C0.250702 1.28666 0.453602 0.979554 0.730045 0.727698C1.00649 0.475842 1.34823 0.286752 1.72595 0.176646C1.91838 0.123013 2.11743 0.0899123 2.31882 0.0780537L2.54289 0Z" fill="#263238"/>
<path d="M28.0175 16.7156L26.7758 22.0765L30.8184 21.9944L28.0175 16.7156Z" fill="#F24563"/>
<g opacity="0.3">
<path d="M28.0175 16.7156L26.7758 22.0765L30.8184 21.9944L28.0175 16.7156Z" fill="black"/>
</g>
<path d="M10.6796 16.8881L11.9214 22.2491L7.87405 22.167L10.6796 16.8881Z" fill="#F24563"/>
<g opacity="0.3">
<path d="M10.6796 16.8881L11.9214 22.2491L7.87405 22.167L10.6796 16.8881Z" fill="black"/>
</g>
<path d="M21.0384 17.8822C20.9066 17.8823 20.7799 17.8374 20.685 17.7569C20.5901 17.6765 20.5344 17.5668 20.5295 17.4509L19.9366 4.89262C19.9348 4.83206 19.9467 4.77177 19.9716 4.71528C19.9965 4.6588 20.0339 4.60725 20.0817 4.56365C20.1296 4.52005 20.1868 4.48527 20.25 4.46135C20.3133 4.43742 20.3813 4.42483 20.4502 4.4243H21.1644C21.2316 4.4243 21.2982 4.43602 21.3602 4.45878C21.4222 4.48154 21.4785 4.51489 21.5259 4.55691C21.5732 4.59892 21.6106 4.64877 21.6358 4.70357C21.6611 4.75837 21.6738 4.81704 21.6732 4.87619L21.5519 17.4345C21.5506 17.5536 21.496 17.6675 21.3998 17.7513C21.3036 17.8352 21.1737 17.8822 21.0384 17.8822Z" fill="#844031"/>
<path d="M21.6779 6.02644H19.9927V7.11507H21.6779V6.02644Z" fill="#F24563"/>
<path d="M22.1775 17.9316C22.0528 17.8916 21.9506 17.8106 21.8923 17.7057C21.834 17.6008 21.8241 17.48 21.8647 17.3688L26.2108 5.39803C26.2313 5.33988 26.265 5.286 26.3099 5.2397C26.3548 5.1934 26.4099 5.15564 26.472 5.12872C26.534 5.10181 26.6016 5.08631 26.6707 5.08317C26.7398 5.08003 26.8089 5.08932 26.8737 5.11047L27.5413 5.32408C27.669 5.36654 27.7725 5.45162 27.8293 5.56085C27.8861 5.67008 27.8917 5.79462 27.8447 5.90742L22.8311 17.6646C22.7828 17.775 22.6876 17.8646 22.5657 17.9145C22.4437 17.9643 22.3045 17.9704 22.1775 17.9316Z" fill="#844031"/>
<path d="M25.8282 6.47622L25.4035 7.49868L26.9862 8.00784L27.411 6.98539L25.8282 6.47622Z" fill="#F24563"/>
<path d="M27.0511 14.7397C26.7888 14.389 26.4453 14.091 26.0431 13.8652C25.6409 13.6393 25.189 13.4908 24.717 13.4292C23.7883 13.3293 22.8466 13.4722 22.0095 13.84C21.3512 14.1153 20.6697 14.4973 19.9648 14.37C19.4738 14.224 19.019 13.9967 18.625 13.7004C18.0993 13.3831 17.5064 13.1621 16.8817 13.0506C16.2569 12.9391 15.6131 12.9393 14.9885 13.0513C13.6989 13.312 12.5715 13.9969 11.8374 14.9656C11.5328 15.3215 11.3199 15.7315 11.2134 16.1671C11.107 16.6026 11.1097 17.0534 11.2212 17.488L27.3359 17.4387C27.5268 16.9997 27.6004 16.528 27.551 16.06C27.5017 15.592 27.3306 15.1402 27.0511 14.7397Z" fill="#E0E0E0"/>
<path d="M26.6217 17.151C26.6399 16.9185 26.6399 16.6852 26.6217 16.4527C26.5497 15.8228 26.2175 15.238 25.6881 14.8094C25.3206 14.5272 24.8618 14.3534 24.3763 14.3124C23.8149 14.2703 23.2499 14.3405 22.7237 14.5178C22.1635 14.6903 21.6314 15.0107 20.9965 15.2367C20.6681 15.3555 20.3151 15.4129 19.9601 15.4051C19.5958 15.3825 19.2402 15.2959 18.9145 15.1504C18.2609 14.8752 17.7147 14.5013 17.1359 14.2384C16.5871 13.981 15.9689 13.8603 15.3479 13.8892C14.7879 13.9139 14.2425 14.0546 13.7561 14.3C13.333 14.5223 12.9634 14.8154 12.6684 15.1627C12.2365 15.6702 11.9411 16.2573 11.8048 16.8799C11.7114 17.3236 11.7161 17.5783 11.6927 17.5742C11.6817 17.5143 11.6817 17.4533 11.6927 17.3934C11.69 17.2175 11.7024 17.0418 11.7301 16.8676C11.8342 16.22 12.1145 15.6042 12.547 15.0724C12.8494 14.7022 13.2317 14.3882 13.672 14.1481C14.1831 13.8755 14.761 13.7149 15.3573 13.6797C16.0178 13.6447 16.6765 13.7697 17.2619 14.0412C17.8688 14.3124 18.4196 14.6862 19.0358 14.945C19.3273 15.0747 19.6442 15.1542 19.9695 15.1792C20.2894 15.187 20.6076 15.1352 20.9031 15.0272C21.5007 14.8218 22.0468 14.4972 22.6397 14.3206C23.1985 14.1382 23.7973 14.0708 24.3903 14.1234C24.913 14.176 25.4033 14.373 25.7908 14.6862C26.3323 15.1505 26.6513 15.7797 26.6824 16.4444C26.6907 16.6204 26.6781 16.7966 26.645 16.9703C26.6497 17.0771 26.631 17.151 26.6217 17.151Z" fill="#263238"/>
<path d="M25.8559 17.3031C25.8681 17.1006 25.8681 16.8976 25.8559 16.6951C25.8286 16.4232 25.7353 16.1596 25.5823 15.9222C25.4293 15.6848 25.2201 15.479 24.9689 15.3189C24.6223 15.1062 24.1965 15.0181 23.7785 15.0724C23.2962 15.1614 22.839 15.3346 22.4341 15.5818C21.9672 15.871 21.4544 16.098 20.9122 16.2556C20.298 16.3797 19.6547 16.3264 19.0776 16.1036C17.9059 15.6928 16.9769 15.0108 15.9452 14.8301C15.4978 14.748 15.034 14.7671 14.5972 14.8857C14.1604 15.0042 13.765 15.2183 13.4477 15.5079C13.0152 15.9094 12.7136 16.4061 12.5748 16.9457C12.4721 17.3278 12.4768 17.5537 12.4534 17.5496C12.4301 17.5455 12.4534 17.4962 12.4534 17.3894C12.4549 17.2352 12.4705 17.0813 12.5001 16.9293C12.6091 16.3599 12.9006 15.8297 13.3404 15.4011C13.6511 15.1067 14.0343 14.879 14.4608 14.7356C14.9539 14.5663 15.4922 14.5264 16.0106 14.6206C17.117 14.8095 18.0646 15.5038 19.185 15.8899C19.7151 16.0938 20.3048 16.1455 20.8702 16.0378C21.3907 15.8861 21.8842 15.6704 22.336 15.397C22.7674 15.1382 23.2556 14.9619 23.7692 14.8794C24.2355 14.8264 24.7071 14.9338 25.0856 15.1792C25.3943 15.375 25.6351 15.6424 25.7812 15.9516C25.8929 16.1791 25.9562 16.4228 25.9679 16.6705C25.9718 16.8321 25.953 16.9935 25.9119 17.1511C25.9031 17.2042 25.8841 17.2556 25.8559 17.3031Z" fill="#263238"/>
<path d="M24.857 17.3072C24.8598 17.1478 24.8248 16.9897 24.7543 16.843C24.6579 16.6494 24.4872 16.4919 24.2721 16.398C24.0571 16.3041 23.8113 16.2799 23.5779 16.3295C23.245 16.3967 22.9287 16.5164 22.6442 16.6827C22.3012 16.8832 21.9351 17.0512 21.5519 17.1839C20.6154 17.3831 19.6282 17.2674 18.7836 16.8594C17.9786 16.4739 17.1347 16.1549 16.2628 15.9063C15.9142 15.8108 15.5465 15.7819 15.1842 15.8216C14.8219 15.8612 14.4734 15.9686 14.1621 16.1364C13.752 16.3825 13.4504 16.745 13.3078 17.1634C13.2098 17.4633 13.2331 17.644 13.2051 17.644C13.1908 17.6027 13.1829 17.5599 13.1817 17.5167C13.1745 17.3914 13.1855 17.2657 13.2144 17.1428C13.3317 16.6877 13.6338 16.286 14.064 16.0131C14.3919 15.8224 14.763 15.6969 15.1515 15.6451C15.5401 15.5933 15.9368 15.6165 16.3141 15.7133C17.2037 15.9553 18.0638 16.2746 18.8816 16.6663C19.6746 17.0494 20.5985 17.1661 21.4818 16.995C21.8518 16.8718 22.2069 16.7163 22.5415 16.5308C22.848 16.3596 23.1886 16.2411 23.5452 16.1816C23.8524 16.1277 24.1713 16.1791 24.4368 16.3254C24.6274 16.4415 24.7751 16.6044 24.8616 16.7937C24.9147 16.9124 24.934 17.0407 24.9177 17.1675C24.916 17.2188 24.8946 17.268 24.857 17.3072Z" fill="#263238"/>
<path d="M10.6517 16.8429C10.6517 17.2085 13.6113 30.5884 13.6113 30.5884L25.2212 30.42L28.0222 16.7156L10.6517 16.8429Z" fill="#F24563"/>
<path d="M10.6517 16.8429C10.759 16.8368 10.8665 16.8368 10.9738 16.8429L11.9401 16.8224L15.572 16.769L28.0175 16.6252H28.2136L28.1249 16.7813L26.3276 19.9239C25.8141 20.8195 25.3099 21.7027 24.8198 22.5531L24.7871 22.6147H24.7124L13.8914 22.5859H13.8354V22.5449C12.8551 20.7948 12.0568 19.3693 11.5013 18.3629L10.8804 17.2414L10.7217 16.9497C10.7037 16.9212 10.6896 16.8908 10.6797 16.8593L10.7451 16.962L10.9271 17.2619L11.5993 18.3875C12.1735 19.3734 12.9998 20.762 13.9988 22.4709L13.9195 22.4257L24.7404 22.4011L24.633 22.4586L26.1409 19.8253L27.9381 16.6868L28.0455 16.8388L15.7027 16.8717H11.0345L10.6517 16.8429Z" fill="#263238"/>
<g opacity="0.3">
<path d="M14.1994 22.4915L14.4935 23.0461H25.0203L27.7419 17.2004L24.7122 22.4915H14.1994Z" fill="black"/>
</g>
<path d="M21.7106 28.1236C21.0314 28.2288 20.3406 28.2646 19.6519 28.2304C18.9633 28.2649 18.2725 28.2291 17.5933 28.1236C18.2725 28.0182 18.9633 27.9823 19.6519 28.0168C20.3406 27.9826 21.0314 28.0184 21.7106 28.1236Z" fill="white"/>
<path d="M20.9731 25.9915C20.9731 25.9915 20.9451 25.8888 20.8844 25.7122C20.7971 25.4706 20.6235 25.2603 20.3896 25.1124C20.2209 25.0055 20.0249 24.9369 19.8189 24.9125C19.613 24.8882 19.4033 24.9088 19.2086 24.9727C19.0422 25.0279 18.8912 25.1138 18.7658 25.2248C18.6405 25.3357 18.5436 25.469 18.4819 25.6157C18.4201 25.7624 18.3949 25.9191 18.4079 26.0751C18.4208 26.2312 18.4718 26.3829 18.5572 26.5202C18.6425 26.6574 18.7604 26.7769 18.9028 26.8706C19.0452 26.9642 19.2088 27.0299 19.3826 27.0631C19.5563 27.0964 19.7361 27.0964 19.9099 27.0631C20.0836 27.0299 20.2472 26.9643 20.3896 26.8706C20.6245 26.7236 20.7983 26.5129 20.8844 26.2709C20.9451 26.0983 20.9498 25.9915 20.9731 25.9915C21.0035 26.0897 21.0035 26.1932 20.9731 26.2914C20.918 26.5671 20.7524 26.8164 20.5063 26.9939C20.3172 27.1265 20.0929 27.2146 19.8544 27.2498C19.6159 27.2851 19.3711 27.2662 19.1432 27.1952C18.8608 27.1067 18.6165 26.9436 18.4437 26.7281C18.2709 26.5126 18.1781 26.2553 18.1781 25.9915C18.1781 25.7278 18.2709 25.4705 18.4437 25.255C18.6165 25.0395 18.8608 24.8763 19.1432 24.7879C19.3712 24.7153 19.6166 24.6962 19.8556 24.7322C20.0945 24.7682 20.3187 24.8581 20.5063 24.9933C20.753 25.1685 20.9189 25.4167 20.9731 25.6916C21.0035 25.7898 21.0035 25.8933 20.9731 25.9915Z" fill="white"/>
<path d="M14.2415 12.1023C14.3076 12.078 14.3672 12.0416 14.4163 11.9956C14.4653 11.9496 14.5028 11.895 14.5262 11.8353C14.5804 11.7025 14.5804 11.5573 14.5262 11.4245C14.4223 11.2436 14.2904 11.0763 14.1341 10.9274C13.8025 10.5679 13.6445 10.1081 13.6943 9.64713C13.7441 9.18613 13.9975 8.76077 14.4002 8.46261C14.6756 8.23667 14.993 8.01483 15.0304 7.71084C15.0226 7.55271 14.977 7.39779 14.8966 7.25622C14.8161 7.11465 14.7026 6.9896 14.5636 6.88923C14.2928 6.66035 14.0644 6.39561 13.8867 6.1046C13.7478 5.84943 13.6703 5.57176 13.659 5.28899C13.6478 5.00623 13.703 4.72447 13.8213 4.46138C13.9822 4.10953 14.2585 3.80778 14.6149 3.59459C14.7338 3.50512 14.8769 3.44427 15.0304 3.41794C15.0304 3.41794 14.895 3.496 14.6709 3.66032C14.3605 3.88774 14.1224 4.18215 13.98 4.51479C13.8811 4.7594 13.8395 5.01915 13.858 5.2783C13.8765 5.53745 13.9545 5.79061 14.0874 6.02244C14.2648 6.29222 14.4848 6.53843 14.741 6.75367C14.8787 6.87873 15.0008 7.01646 15.1051 7.16447C15.2235 7.33263 15.276 7.53034 15.2545 7.72727C15.2207 7.92226 15.1216 8.10393 14.9697 8.24899C14.8336 8.37456 14.6903 8.49385 14.5402 8.60639C14.1871 8.87558 13.9615 9.25147 13.908 9.65986C13.8544 10.0683 13.9767 10.4795 14.2508 10.8124C14.4085 10.9768 14.5375 11.1609 14.6336 11.3588C14.7051 11.5185 14.7051 11.6961 14.6336 11.8558C14.5862 11.9562 14.4956 12.036 14.3815 12.0777C14.2788 12.1147 14.2415 12.1064 14.2415 12.1023Z" fill="#263238"/>
<path d="M16.0294 12.1023C16.0956 12.078 16.1552 12.0416 16.2043 11.9956C16.2533 11.9496 16.2908 11.895 16.3142 11.8353C16.3684 11.7025 16.3684 11.5573 16.3142 11.4245C16.2103 11.2436 16.0784 11.0763 15.9221 10.9274C15.5905 10.5679 15.4325 10.1081 15.4823 9.64713C15.5321 9.18613 15.7855 8.76077 16.1882 8.46261C16.4636 8.23667 16.781 8.01483 16.8184 7.71084C16.8106 7.55271 16.765 7.39779 16.6845 7.25622C16.6041 7.11465 16.4906 6.9896 16.3516 6.88923C16.0809 6.6613 15.8539 6.39634 15.6793 6.1046C15.5372 5.85039 15.4575 5.57268 15.4454 5.28955C15.4333 5.00643 15.4892 4.72425 15.6093 4.46138C15.7733 4.11114 16.0489 3.81011 16.4029 3.59459C16.5231 3.50449 16.6679 3.44359 16.823 3.41794C16.823 3.41794 16.683 3.496 16.4589 3.66032C16.1492 3.88746 15.9126 4.18207 15.7727 4.51479C15.6726 4.75922 15.6305 5.0191 15.649 5.27839C15.6675 5.53769 15.7461 5.79091 15.8801 6.02244C16.054 6.29312 16.2727 6.53956 16.5289 6.75367C16.6667 6.87873 16.7888 7.01646 16.8931 7.16447C17.0115 7.33263 17.064 7.53034 17.0425 7.72727C17.011 7.92287 16.9115 8.10511 16.7577 8.24899C16.6176 8.38456 16.4683 8.49547 16.3329 8.60639C16.0655 8.8007 15.8677 9.05893 15.7634 9.34994C15.6734 9.59562 15.652 9.85672 15.7007 10.1112C15.7494 10.3658 15.867 10.6062 16.0435 10.8124C16.1998 10.9769 16.3273 11.161 16.4216 11.3588C16.4955 11.5181 16.4955 11.6965 16.4216 11.8558C16.3742 11.9562 16.2836 12.036 16.1695 12.0777C16.0715 12.1147 16.0294 12.1064 16.0294 12.1023Z" fill="#263238"/>
</svg>
