<svg width="2" height="6" viewBox="0 0 2 6" fill="none" xmlns="http://www.w3.org/2000/svg">
<path d="M0.376372 5.98863C0.424661 5.97466 0.468538 5.9509 0.504482 5.91927C0.540425 5.88764 0.567416 5.84902 0.583291 5.80652C0.626554 5.70942 0.626554 5.60151 0.583291 5.5044C0.51565 5.37763 0.426883 5.26046 0.319924 5.15676C0.10158 4.9134 -0.00125935 4.60513 0.0329321 4.29653C0.0671236 3.98793 0.235699 3.70295 0.503348 3.5013C0.691468 3.34817 0.921921 3.19504 0.950139 2.96741C0.947421 2.85447 0.917501 2.74332 0.862374 2.64131C0.807247 2.53929 0.728155 2.44872 0.630324 2.37558C0.444367 2.22067 0.285839 2.0421 0.160023 1.84584C0.0642505 1.6728 0.010217 1.48419 0.00131371 1.29188C-0.00758956 1.09957 0.028837 0.907722 0.108297 0.728403C0.217361 0.489278 0.401734 0.282521 0.639739 0.132437C0.724519 0.0744401 0.819947 0.0296474 0.921908 0C0.921908 0 0.818448 0.045524 0.663248 0.157268C0.449319 0.314112 0.286944 0.518445 0.192948 0.749094C0.120609 0.920199 0.0891177 1.10259 0.100446 1.28488C0.111774 1.46717 0.165686 1.64545 0.258797 1.80859C0.387747 1.99803 0.546032 2.17075 0.729097 2.32178C0.837699 2.40191 0.925105 2.50195 0.985217 2.61489C1.04533 2.72784 1.07669 2.85097 1.07712 2.97569C1.00444 3.21444 0.837763 3.42271 0.606815 3.56338C0.420382 3.70228 0.281895 3.88436 0.207056 4.08898C0.143907 4.26238 0.129318 4.44664 0.16453 4.62607C0.199741 4.80551 0.283705 4.97479 0.409282 5.11951C0.518495 5.22936 0.607371 5.35367 0.672649 5.48785C0.720336 5.59422 0.720336 5.71256 0.672649 5.81894C0.531559 6.01346 0.362263 6.01346 0.376372 5.98863Z" fill="#263238"/>
</svg>
