<svg width="4" height="3" viewBox="0 0 4 3" fill="none" xmlns="http://www.w3.org/2000/svg">
<path d="M0.874951 2.78217C0.610053 2.66181 0.387527 2.48009 0.231378 2.2566C0.0797265 2.02183 0 1.75642 0 1.48638C0 1.21633 0.0797265 0.950913 0.231378 0.716146C0.387527 0.492662 0.610053 0.31094 0.874951 0.19058C1.16334 0.061322 1.48324 -0.00400012 1.80684 0.000289676C2.13056 -0.00492928 2.45072 0.0604444 2.73875 0.19058C3.0056 0.317215 3.22677 0.50714 3.37717 0.738801C3.52882 0.973568 3.60855 1.23898 3.60855 1.50903C3.60855 1.77907 3.52882 2.04449 3.37717 2.27926C3.22304 2.50257 3.00221 2.68436 2.73875 2.80482C2.45204 2.93855 2.13126 3.00561 1.80684 2.99964C1.48031 2.99767 1.15968 2.92284 0.874951 2.78217ZM2.41952 2.07084C2.57633 1.90735 2.66236 1.70031 2.66236 1.48638C2.66236 1.27244 2.57633 1.0654 2.41952 0.901908C2.34253 0.829968 2.24896 0.773346 2.14506 0.735838C2.04117 0.69833 1.92937 0.680801 1.81715 0.68443C1.70505 0.681665 1.59353 0.699589 1.48979 0.737045C1.38604 0.774501 1.29235 0.83066 1.21476 0.901908C1.05795 1.0654 0.971942 1.27244 0.971942 1.48638C0.971942 1.70031 1.05795 1.90735 1.21476 2.07084C1.29235 2.14209 1.38604 2.19825 1.48979 2.23571C1.59353 2.27316 1.70505 2.29108 1.81715 2.28832C1.92766 2.29065 2.03748 2.2725 2.13949 2.23503C2.24149 2.19756 2.33341 2.14162 2.40923 2.07084H2.41952Z" fill="#263238"/>
</svg>
