<svg width="5" height="4" viewBox="0 0 5 4" fill="none" xmlns="http://www.w3.org/2000/svg">
<path d="M1.18876 3.73851C0.829762 3.57056 0.52946 3.31981 0.320046 3.01313C0.110632 2.70646 0 2.35542 0 1.99763C0 1.63985 0.110632 1.2888 0.320046 0.982122C0.52946 0.675445 0.829762 0.424692 1.18876 0.256742C1.5694 0.0820709 1.99364 -0.00604884 2.42286 0.00039277C2.85047 -0.00666567 3.27317 0.0815122 3.65167 0.256742C4.00744 0.42349 4.30566 0.67143 4.51502 0.974541C4.67405 1.20376 4.77805 1.45921 4.82062 1.72514C4.86318 1.99107 4.84341 2.26186 4.76252 2.52082C4.68164 2.77977 4.54134 3.02141 4.3503 3.23084C4.15925 3.44026 3.92149 3.61303 3.65167 3.73851C3.2745 3.91731 2.85119 4.00723 2.42286 3.99953C1.9929 4.00677 1.56802 3.9169 1.18876 3.73851ZM3.12732 3.08131C3.33391 2.97554 3.50412 2.82254 3.6199 2.63852C3.74321 2.44349 3.80536 2.22311 3.79998 1.99997C3.80529 1.77535 3.74317 1.55348 3.6199 1.35675C3.50254 1.17499 3.33259 1.02382 3.12732 0.918611C2.91134 0.814579 2.66907 0.760053 2.42286 0.760053C2.17665 0.760053 1.9344 0.814579 1.71842 0.918611C1.51315 1.02382 1.34318 1.17499 1.22582 1.35675C1.10503 1.55433 1.04308 1.77562 1.04574 1.99997C1.04305 2.22284 1.10503 2.44262 1.22582 2.63852C1.3416 2.82254 1.51182 2.97554 1.71842 3.08131C1.9344 3.18534 2.17665 3.23987 2.42286 3.23987C2.66907 3.23987 2.91134 3.18534 3.12732 3.08131Z" fill="white"/>
</svg>
